<svg xmlns="http://www.w3.org/2000/svg" xmlns:xlink="http://www.w3.org/1999/xlink" xmlns:lucid="lucid" width="1300" height="216"><g transform="translate(-40 -785)" lucid:page-tab-id="0_0"><path d="M831.97 1020c36.9 0 66.8 26.86 66.8 60s-29.9 60-66.8 60h-200.4c-36.9 0-66.8-26.86-66.8-60s29.9-60 66.8-60z" stroke="#3a414a" stroke-width="3" fill="#fff0f0"/><use xlink:href="#a" transform="matrix(1,0,0,1,576.7701626123751,1032) translate(5.721571180555543 41.627170138888886)"/><use xlink:href="#b" transform="matrix(1,0,0,1,576.7701626123751,1032) translate(75.89301215277776 41.627170138888886)"/><use xlink:href="#c" transform="matrix(1,0,0,1,576.7701626123751,1032) translate(134.73632812499997 41.627170138888886)"/><use xlink:href="#d" transform="matrix(1,0,0,1,576.7701626123751,1032) translate(231.40516493055551 41.627170138888886)"/><use xlink:href="#e" transform="matrix(1,0,0,1,576.7701626123751,1032) translate(273.78797743055554 41.627170138888886)"/><use xlink:href="#f" transform="matrix(1,0,0,1,576.7701626123751,1032) translate(19.756944444444457 67.6796875)"/><use xlink:href="#g" transform="matrix(1,0,0,1,576.7701626123751,1032) translate(74.46614583333334 67.6796875)"/><use xlink:href="#h" transform="matrix(1,0,0,1,576.7701626123751,1032) translate(140.11284722222223 67.6796875)"/><use xlink:href="#i" transform="matrix(1,0,0,1,576.7701626123751,1032) translate(169.16015625 67.6796875)"/><use xlink:href="#j" transform="matrix(1,0,0,1,576.7701626123751,1032) translate(250.23654513888886 67.6796875)"/><path d="M400 806a6 6 0 0 1 6-6h47.3a6 6 0 0 1 6 6v50.08a6 6 0 0 1-6 6H406a6 6 0 0 1-6-6z" stroke="#3a414a" stroke-width="3" fill="#fbf0ff"/><use xlink:href="#k" transform="matrix(1,0,0,1,405.0000000000001,805) translate(19.471571180555557 33.86631944444444)"/><path d="M479 806a6 6 0 0 1 6-6h333.77a6 6 0 0 1 6 6v50.08a6 6 0 0 1-6 6H485a6 6 0 0 1-6-6z" stroke="#3a414a" stroke-width="3" fill="#c3f7c8"/><use xlink:href="#l" transform="matrix(1,0,0,1,483.99999999999983,805) translate(17.50629340277777 20.616319444444443)"/><use xlink:href="#m" transform="matrix(1,0,0,1,483.99999999999983,805) translate(116.96375868055554 20.616319444444443)"/><use xlink:href="#n" transform="matrix(1,0,0,1,483.99999999999983,805) translate(230.04969618055554 20.616319444444443)"/><use xlink:href="#o" transform="matrix(1,0,0,1,483.99999999999983,805) translate(305.3860677083333 20.616319444444443)"/><use xlink:href="#p" transform="matrix(1,0,0,1,483.99999999999983,805) translate(29.165364583333314 46.65798611111111)"/><use xlink:href="#q" transform="matrix(1,0,0,1,483.99999999999983,805) translate(144.22612847222223 46.65798611111111)"/><use xlink:href="#r" transform="matrix(1,0,0,1,483.99999999999983,805) translate(250.33506944444446 46.65798611111111)"/><use xlink:href="#s" transform="matrix(1,0,0,1,483.99999999999983,805) translate(268.03255208333337 46.65798611111111)"/><path d="M845.42 806a6 6 0 0 1 6-6h47.3a6 6 0 0 1 6 6v50.08a6 6 0 0 1-6 6h-47.3a6 6 0 0 1-6-6z" stroke="#3a414a" stroke-width="3" fill="#fbf0ff"/><g><use xlink:href="#t" transform="matrix(1,0,0,1,850.4162906888166,805) translate(21.864149305555557 33.86631944444444)"/></g><path d="M925.35 806a6 6 0 0 1 6-6h333.77a6 6 0 0 1 6 6v50.08a6 6 0 0 1-6 6H931.35a6 6 0 0 1-6-6z" stroke="#3a414a" stroke-width="3" fill="#ffd9d9"/><g><use xlink:href="#u" transform="matrix(1,0,0,1,930.3546749181411,805.0000000000001) translate(11.337673611111114 20.616319444444443)"/><use xlink:href="#m" transform="matrix(1,0,0,1,930.3546749181411,805.0000000000001) translate(123.1323784722222 20.616319444444443)"/><use xlink:href="#n" transform="matrix(1,0,0,1,930.3546749181411,805.0000000000001) translate(236.2183159722222 20.616319444444443)"/><use xlink:href="#o" transform="matrix(1,0,0,1,930.3546749181411,805.0000000000001) translate(311.5546875 20.616319444444443)"/><use xlink:href="#p" transform="matrix(1,0,0,1,930.3546749181411,805.0000000000001) translate(24.3530815972222 46.65798611111111)"/><use xlink:href="#q" transform="matrix(1,0,0,1,930.3546749181411,805.0000000000001) translate(139.4138454861111 46.65798611111111)"/><use xlink:href="#r" transform="matrix(1,0,0,1,930.3546749181411,805.0000000000001) translate(245.52278645833334 46.65798611111111)"/><use xlink:href="#v" transform="matrix(1,0,0,1,930.3546749181411,805.0000000000001) translate(263.22026909722223 46.65798611111111)"/></g><path d="M120.3 806a6 6 0 0 1 6-6h248a6 6 0 0 1 6 6v50.08a6 6 0 0 1-6 6h-248a6 6 0 0 1-6-6z" stroke="#3a414a" stroke-width="3" fill="#fff3d9"/><g><use xlink:href="#w" transform="matrix(1,0,0,1,125.29225615288306,805.0000000000001) translate(15.749782986111114 20.616319444444443)"/><use xlink:href="#x" transform="matrix(1,0,0,1,125.29225615288306,805.0000000000001) translate(133.642578125 20.616319444444443)"/><use xlink:href="#y" transform="matrix(1,0,0,1,125.29225615288306,805.0000000000001) translate(28.1195746527778 46.65798611111111)"/><use xlink:href="#z" transform="matrix(1,0,0,1,125.29225615288306,805.0000000000001) translate(103.45594618055557 46.65798611111111)"/><use xlink:href="#A" transform="matrix(1,0,0,1,125.29225615288306,805.0000000000001) translate(147.75933159722223 46.65798611111111)"/><use xlink:href="#v" transform="matrix(1,0,0,1,125.29225615288306,805.0000000000001) translate(173.45377604166666 46.65798611111111)"/></g><path d="M40 806a6 6 0 0 1 6-6h68.3a6 6 0 0 1 6 6v48a6 6 0 0 1-6 6H46a6 6 0 0 1-6-6z" stroke="#000" stroke-opacity="0" fill="#fff" fill-opacity="0"/><g><use xlink:href="#B" transform="matrix(1,0,0,1,45,805) translate(12.184027777777786 38.17274305555554)"/></g><path d="M1271.12 806a6 6 0 0 1 6-6h68.3a6 6 0 0 1 6 6v48a6 6 0 0 1-6 6h-68.3a6 6 0 0 1-6-6z" stroke="#000" stroke-opacity="0" fill="#fff" fill-opacity="0"/><g><use xlink:href="#C" transform="matrix(1,0,0,1,1276.1248375305163,805) translate(23.02115885416667 38.17274305555554)"/></g><g fill="none"><path d="M469.06 881.04a6 6 0 0 1 6 6v28a6 6 0 0 1-6 6h-78a6 6 0 0 1-6-6v-28a6 6 0 0 1 6-6z"/><path d="M385.06 881.04c0 5.74 4.65 10.38 10.4 10.38h24.22c5.73 0 10.38 4.65 10.38 10.4 0-5.75 4.65-10.4 10.4-10.4h24.22c5.73 0 10.38-4.64 10.38-10.38" stroke="#3a414a" stroke-width="2"/></g><path d="M340.3 916.67a6 6 0 0 1 6-6h168a6 6 0 0 1 6 6v68.3a6 6 0 0 1-6 6h-168a6 6 0 0 1-6-6z" stroke="#000" stroke-opacity="0" fill="#fff" fill-opacity="0"/><g><use xlink:href="#D" transform="matrix(1,0,0,1,345.31279474310827,915.6666666666666) translate(8.823242187500028 18.554687499999993)"/><use xlink:href="#E" transform="matrix(1,0,0,1,345.31279474310827,915.6666666666666) translate(95.17089843750001 18.554687499999993)"/><use xlink:href="#F" transform="matrix(1,0,0,1,345.31279474310827,915.6666666666666) translate(128.2666015625 18.554687499999993)"/><use xlink:href="#G" transform="matrix(1,0,0,1,345.31279474310827,915.6666666666666) translate(7.500000000000014 41.992187499999986)"/><use xlink:href="#E" transform="matrix(1,0,0,1,345.31279474310827,915.6666666666666) translate(30.800781250000007 41.992187499999986)"/><use xlink:href="#H" transform="matrix(1,0,0,1,345.31279474310827,915.6666666666666) translate(63.89648437499999 41.992187499999986)"/><use xlink:href="#I" transform="matrix(1,0,0,1,345.31279474310827,915.6666666666666) translate(39.726562500000014 65.42968749999997)"/></g><g fill="none"><path d="M914.48 881.04a6 6 0 0 1 6 6v28a6 6 0 0 1-6 6h-78a6 6 0 0 1-6-6v-28a6 6 0 0 1 6-6z"/><path d="M830.48 881.04c0 5.74 4.65 10.38 10.38 10.38h24.24c5.73 0 10.38 4.65 10.38 10.4 0-5.75 4.65-10.4 10.38-10.4h24.24c5.73 0 10.38-4.64 10.38-10.38" stroke="#3a414a" stroke-width="2"/></g><path d="M785.73 916.67a6 6 0 0 1 6-6h168a6 6 0 0 1 6 6v68.3a6 6 0 0 1-6 6h-168a6 6 0 0 1-6-6z" stroke="#000" stroke-opacity="0" fill="#fff" fill-opacity="0"/><g><use xlink:href="#D" transform="matrix(1,0,0,1,790.7290854319249,915.6666666666666) translate(8.823242187500028 18.554687499999993)"/><use xlink:href="#E" transform="matrix(1,0,0,1,790.7290854319249,915.6666666666666) translate(95.17089843750001 18.554687499999993)"/><use xlink:href="#F" transform="matrix(1,0,0,1,790.7290854319249,915.6666666666666) translate(128.2666015625 18.554687499999993)"/><use xlink:href="#G" transform="matrix(1,0,0,1,790.7290854319249,915.6666666666666) translate(17.475585937500014 41.992187499999986)"/><use xlink:href="#E" transform="matrix(1,0,0,1,790.7290854319249,915.6666666666666) translate(40.77636718750001 41.992187499999986)"/><use xlink:href="#J" transform="matrix(1,0,0,1,790.7290854319249,915.6666666666666) translate(73.8720703125 41.992187499999986)"/><use xlink:href="#K" transform="matrix(1,0,0,1,790.7290854319249,915.6666666666666) translate(36.58691406250001 65.42968749999997)"/></g><defs><path d="M688-137c238 0 323-102 359-325h193c-32 297-228 482-552 482-361 0-569-299-569-680 0-197 8-360 73-497 88-186 257-317 513-319 316-2 509 195 535 488h-193c-31-212-118-330-342-330-272 0-397 224-393 523v141c-3 282 115 517 376 517" id="L"/><path d="M663-916c-163-27-288 18-338 148V0H140v-1082h180l3 125c61-97 147-145 258-145 36 0 63 5 82 14v172" id="M"/><path d="M599-131c141 0 220-65 285-146l113 88C906-50 770 20 589 20 281 21 93-214 93-545c0-223 93-397 233-485 74-48 154-72 240-72 300 2 449 218 445 537v77H278c0 197 129 357 321 357zm227-509c-3-180-88-310-260-310-170 0-264 140-282 310h542" id="N"/><path d="M561-1102c238-4 403 126 403 351v498c0 99 13 178 38 237V0H808c-11-21-19-59-26-114C696-25 593 20 474 20c-199 0-368-130-365-320 4-251 214-359 490-356h180v-85c-1-135-86-212-229-212-115 0-232 67-233 171H131c20-205 206-316 430-320zM294-326c0 117 90 185 207 185 122 0 239-75 278-162v-222H634c-227 0-340 66-340 199" id="O"/><path d="M456 20C285 20 205-92 206-268v-671H9v-143h197v-262h185v262h202v143H391v671c-9 125 92 149 207 118V0c-49 13-96 20-142 20" id="P"/><g id="a"><use transform="matrix(0.010850694444444444,0,0,0.010850694444444444,0,0)" xlink:href="#L"/><use transform="matrix(0.010850694444444444,0,0,0.010850694444444444,14.463975694444445,0)" xlink:href="#M"/><use transform="matrix(0.010850694444444444,0,0,0.010850694444444444,21.77734375,0)" xlink:href="#N"/><use transform="matrix(0.010850694444444444,0,0,0.010850694444444444,33.55034722222222,0)" xlink:href="#O"/><use transform="matrix(0.010850694444444444,0,0,0.010850694444444444,45.63802083333333,0)" xlink:href="#P"/><use transform="matrix(0.010850694444444444,0,0,0.010850694444444444,52.897135416666664,0)" xlink:href="#N"/></g><path fill="#008573" d="M1075-221L152-672v-102l923-451v160L360-723l715 342v160" id="Q"/><path fill="#008573" d="M1020-150v138C933 9 849 20 768 20 527 20 406-95 406-324v-637H139v-94l267-49 77-287h105v293h438v137H588v637c0 130 64 195 192 195 62 0 142-7 240-21" id="R"/><path fill="#008573" d="M887 0v-707c0-173-79-260-238-260-205 0-307 133-307 398V0H160v-1556h182c-2 202 6 416-8 606h10c69-112 181-168 336-168 259 0 389 134 389 401V0H887" id="S"/><path fill="#008573" d="M152-381l714-342-714-342v-160l923 451v102L152-221v-160" id="T"/><g id="b"><use transform="matrix(0.010850694444444444,0,0,0.010850694444444444,0,0)" xlink:href="#Q"/><use transform="matrix(0.010850694444444444,0,0,0.010850694444444444,13.335503472222221,0)" xlink:href="#R"/><use transform="matrix(0.010850694444444444,0,0,0.010850694444444444,26.671006944444443,0)" xlink:href="#S"/><use transform="matrix(0.010850694444444444,0,0,0.010850694444444444,40.006510416666664,0)" xlink:href="#T"/></g><path d="M341 0H156v-1536h185V0" id="U"/><path d="M1240-945c-141 0-250 95-250 227V0H804v-709c0-157-77-236-231-236-121 0-204 52-249 155V0H139v-1082h175l5 120c79-93 186-140 321-140 151 0 254 58 309 174 69-98 181-174 345-174 237 0 362 126 362 377V0h-185v-714c-2-159-67-231-231-231" id="V"/><path d="M589-945c-131 0-219 81-264 174V0H140v-1082h175l6 136c83-104 191-156 324-156 229 0 346 129 346 387V0H806v-716c-2-153-65-229-217-229" id="W"/><path d="M538-131c121 0 232-49 232-156 0-50-20-88-56-117-73-60-334-92-420-143-92-55-162-110-162-238 0-190 192-317 400-317 223 0 414 129 413 338H759c0-108-110-186-227-186-119 0-215 53-215 159 0 45 18 78 53 101 76 52 331 90 416 139 98 57 169 115 169 251C955-92 760 20 538 20c-176 0-314-68-386-174-38-55-57-115-57-179h185c6 129 116 202 258 202" id="X"/><g id="c"><use transform="matrix(0.010850694444444444,0,0,0.010850694444444444,0,0)" xlink:href="#N"/><use transform="matrix(0.010850694444444444,0,0,0.010850694444444444,11.773003472222221,0)" xlink:href="#U"/><use transform="matrix(0.010850694444444444,0,0,0.010850694444444444,17.16579861111111,0)" xlink:href="#N"/><use transform="matrix(0.010850694444444444,0,0,0.010850694444444444,28.938802083333332,0)" xlink:href="#V"/><use transform="matrix(0.010850694444444444,0,0,0.010850694444444444,48.41579861111111,0)" xlink:href="#N"/><use transform="matrix(0.010850694444444444,0,0,0.010850694444444444,60.18880208333333,0)" xlink:href="#W"/><use transform="matrix(0.010850694444444444,0,0,0.010850694444444444,72.45008680555556,0)" xlink:href="#P"/><use transform="matrix(0.010850694444444444,0,0,0.010850694444444444,79.70920138888889,0)" xlink:href="#X"/></g><path d="M520 20C244 20 95-247 95-550c0-298 151-550 427-552 127 0 227 43 301 130v-564h185V0H838l-9-116C755-25 652 20 520 20zm48-965c-210 0-288 177-288 416 0 218 87 392 286 392 117 0 203-53 257-158v-497c-55-102-140-153-255-153" id="Y"/><g id="d"><use transform="matrix(0.010850694444444444,0,0,0.010850694444444444,0,0)" xlink:href="#O"/><use transform="matrix(0.010850694444444444,0,0,0.010850694444444444,12.08767361111111,0)" xlink:href="#W"/><use transform="matrix(0.010850694444444444,0,0,0.010850694444444444,24.348958333333332,0)" xlink:href="#Y"/></g><g id="e"><use transform="matrix(0.010850694444444444,0,0,0.010850694444444444,0,0)" xlink:href="#X"/><use transform="matrix(0.010850694444444444,0,0,0.010850694444444444,11.458333333333332,0)" xlink:href="#N"/><use transform="matrix(0.010850694444444444,0,0,0.010850694444444444,23.231336805555554,0)" xlink:href="#P"/></g><path d="M341 0H156v-1082h185V0zm-91-1264c-68 0-108-42-109-105 0-62 41-107 109-107s110 44 110 107-42 105-110 105" id="Z"/><g id="f"><use transform="matrix(0.010850694444444444,0,0,0.010850694444444444,0,0)" xlink:href="#Z"/><use transform="matrix(0.010850694444444444,0,0,0.010850694444444444,5.392795138888888,0)" xlink:href="#W"/><use transform="matrix(0.010850694444444444,0,0,0.010850694444444444,17.65407986111111,0)" xlink:href="#W"/><use transform="matrix(0.010850694444444444,0,0,0.010850694444444444,29.915364583333332,0)" xlink:href="#N"/><use transform="matrix(0.010850694444444444,0,0,0.010850694444444444,41.68836805555556,0)" xlink:href="#M"/></g><path d="M1288 0h-193v-673H361V0H169v-1456h192v626h734v-626h193V0" id="aa"/><path d="M1175-1298H707V0H516v-1298H49v-158h1126v158" id="ab"/><path d="M417-1456L893-268l476-1188h249V0h-192c-4-403 4-794 18-1179L966 0H819L342-1176c15 384 23 773 19 1176H169v-1456h248" id="ac"/><path d="M362-157h690V0H169v-1456h193v1299" id="ad"/><g id="g"><use transform="matrix(0.010850694444444444,0,0,0.010850694444444444,0,0)" xlink:href="#aa"/><use transform="matrix(0.010850694444444444,0,0,0.010850694444444444,15.52734375,0)" xlink:href="#ab"/><use transform="matrix(0.010850694444444444,0,0,0.010850694444444444,28.786892361111104,0)" xlink:href="#ac"/><use transform="matrix(0.010850694444444444,0,0,0.010850694444444444,48.18793402777778,0)" xlink:href="#ad"/></g><g id="h"><use transform="matrix(0.010850694444444444,0,0,0.010850694444444444,0,0)" xlink:href="#O"/><use transform="matrix(0.010850694444444444,0,0,0.010850694444444444,12.08767361111111,0)" xlink:href="#X"/></g><path d="M584 20C278 26 81-227 91-551c10-320 175-545 491-551 308-5 503 247 494 573-9 322-175 543-492 549zm-2-970c-208 0-305 185-305 421 0 216 106 398 307 398 211 0 307-186 307-420 0-214-109-399-309-399" id="ae"/><path d="M634-1102c292 0 422 254 422 573 0 298-143 547-420 549-137 0-242-48-317-145L310 0H140v-1536h185v573c75-93 178-139 309-139zm-44 965c207 0 281-175 281-413 0-224-79-395-283-395-122 0-210 57-263 170v468c57 113 145 170 265 170" id="af"/><path d="M19 279c92 0 127-48 127-150v-1211h185V125c0 208-94 312-283 312-41 0-78-6-113-18V271c21 5 49 8 84 8zm216-1543c-68 0-107-42-108-105 0-61 42-107 108-107 68 0 110 44 110 107s-42 105-110 105" id="ag"/><path d="M277-555c0 244 77 420 297 424 127 2 249-93 255-210h175C980-127 805 20 574 20 258 20 81-222 92-562c11-319 164-533 481-540 237-5 426 165 431 392H829c-7-133-115-242-256-240-209 4-296 166-296 395" id="ah"/><path d="M253-1536c2 169-14 319-21 479H103l1-479h149" id="ai"/><g id="i"><use transform="matrix(0.010850694444444444,0,0,0.010850694444444444,0,0)" xlink:href="#ae"/><use transform="matrix(0.010850694444444444,0,0,0.010850694444444444,12.67361111111111,0)" xlink:href="#af"/><use transform="matrix(0.010850694444444444,0,0,0.010850694444444444,25.14105902777778,0)" xlink:href="#ag"/><use transform="matrix(0.010850694444444444,0,0,0.010850694444444444,30.44704861111111,0)" xlink:href="#N"/><use transform="matrix(0.010850694444444444,0,0,0.010850694444444444,42.22005208333333,0)" xlink:href="#ah"/><use transform="matrix(0.010850694444444444,0,0,0.010850694444444444,53.85199652777778,0)" xlink:href="#P"/><use transform="matrix(0.010850694444444444,0,0,0.010850694444444444,61.11111111111111,0)" xlink:href="#ai"/><use transform="matrix(0.010850694444444444,0,0,0.010850694444444444,64.11675347222221,0)" xlink:href="#X"/></g><path fill="#008573" d="M383-553l135-152 395-393h222L641-623 1163 0H950L524-504l-129 82V0H215v-1556h180c-3 337 9 689-16 1003h4" id="aj"/><path fill="#008573" d="M631-1118c283 0 470 204 465 491v113H322c5 250 120 375 344 375 130 0 253-25 370-76v160C925-5 804 20 672 20c-329 0-539-224-539-561 0-331 182-577 498-577zM326-662h573c0-203-91-305-272-305-183 0-284 102-301 305" id="ak"/><path fill="#008573" d="M82-1098h188l262 654c55 137 84 233 89 290h6c15-75 45-172 90-292l239-652h189L670 143c-45 116-99 201-156 261-87 92-259 104-414 71V330c92 17 226 18 286-29 67-53 115-195 153-291" id="al"/><g id="j"><use transform="matrix(0.010850694444444444,0,0,0.010850694444444444,0,0)" xlink:href="#aj"/><use transform="matrix(0.010850694444444444,0,0,0.010850694444444444,13.335503472222221,0)" xlink:href="#ak"/><use transform="matrix(0.010850694444444444,0,0,0.010850694444444444,26.671006944444443,0)" xlink:href="#al"/></g><path fill="#3a414a" d="M500-1476c268 0 448 133 446 392-1 198-138 289-252 405-65 65-90 126-91 232H347c3-207 44-281 159-387 60-55 100-96 120-130s30-70 30-107c0-113-52-169-156-169-101-1-164 69-165 171H45c1-260 187-407 455-407zM480 12c-92 0-162-63-162-152s71-154 162-154 162 65 162 154S572 12 480 12" id="am"/><use transform="matrix(0.010850694444444444,0,0,0.010850694444444444,0,0)" xlink:href="#am" id="k"/><path fill="#3a414a" d="M362-157h690V0H169v-1456h193v1299" id="an"/><path fill="#3a414a" d="M599-131c141 0 220-65 285-146l113 88C906-50 770 20 589 20 281 21 93-214 93-545c0-223 93-397 233-485 74-48 154-72 240-72 300 2 449 218 445 537v77H278c0 197 129 357 321 357zm227-509c-3-180-88-310-260-310-170 0-264 140-282 310h542" id="ao"/><path fill="#3a414a" d="M704-1390c-164-38-297 28-288 194v114h231v143H416V0H231v-939H60v-143h171v-111c-12-274 208-416 483-347" id="ap"/><path fill="#3a414a" d="M456 20C285 20 205-92 206-268v-671H9v-143h197v-262h185v262h202v143H391v671c-9 125 92 149 207 118V0c-49 13-96 20-142 20" id="aq"/><path fill="#3a414a" d="M525-543H37v-151h488v151" id="ar"/><path fill="#3a414a" d="M589-945c-131 0-219 81-264 174V0H140v-1536h185v585c82-101 189-151 320-151 229 0 346 129 346 387V0H806v-716c-2-153-65-229-217-229" id="as"/><path fill="#3a414a" d="M561-1102c238-4 403 126 403 351v498c0 99 13 178 38 237V0H808c-11-21-19-59-26-114C696-25 593 20 474 20c-199 0-368-130-365-320 4-251 214-359 490-356h180v-85c-1-135-86-212-229-212-115 0-232 67-233 171H131c20-205 206-316 430-320zM294-326c0 117 90 185 207 185 122 0 239-75 278-162v-222H634c-227 0-340 66-340 199" id="at"/><path fill="#3a414a" d="M589-945c-131 0-219 81-264 174V0H140v-1082h175l6 136c83-104 191-156 324-156 229 0 346 129 346 387V0H806v-716c-2-153-65-229-217-229" id="au"/><path fill="#3a414a" d="M520 20C244 20 95-247 95-550c0-298 151-550 427-552 127 0 227 43 301 130v-564h185V0H838l-9-116C755-25 652 20 520 20zm48-965c-210 0-288 177-288 416 0 218 87 392 286 392 117 0 203-53 257-158v-497c-55-102-140-153-255-153" id="av"/><g id="l"><use transform="matrix(0.010850694444444444,0,0,0.010850694444444444,0,0)" xlink:href="#an"/><use transform="matrix(0.010850694444444444,0,0,0.010850694444444444,11.957465277777777,0)" xlink:href="#ao"/><use transform="matrix(0.010850694444444444,0,0,0.010850694444444444,23.73046875,0)" xlink:href="#ap"/><use transform="matrix(0.010850694444444444,0,0,0.010850694444444444,31.4453125,0)" xlink:href="#aq"/><use transform="matrix(0.010850694444444444,0,0,0.010850694444444444,38.704427083333336,0)" xlink:href="#ar"/><use transform="matrix(0.010850694444444444,0,0,0.010850694444444444,44.83506944444444,0)" xlink:href="#as"/><use transform="matrix(0.010850694444444444,0,0,0.010850694444444444,57.07465277777778,0)" xlink:href="#at"/><use transform="matrix(0.010850694444444444,0,0,0.010850694444444444,69.16232638888889,0)" xlink:href="#au"/><use transform="matrix(0.010850694444444444,0,0,0.010850694444444444,81.42361111111111,0)" xlink:href="#av"/></g><path fill="#3a414a" d="M503-687l240-395h216L605-547 970 0H756L506-405 256 0H41l365-547-354-535h214" id="aw"/><path fill="#3a414a" d="M632-1102c291 0 422 251 422 573 0 297-141 548-419 549-131 0-235-42-310-125v521H140v-1498h169l9 120c75-93 180-140 314-140zm-53 971c207 0 290-180 290-419 0-218-92-395-292-395-112 0-196 50-252 149v517c55 99 140 148 254 148" id="ax"/><path fill="#3a414a" d="M663-916c-163-27-288 18-338 148V0H140v-1082h180l3 125c61-97 147-145 258-145 36 0 63 5 82 14v172" id="ay"/><path fill="#3a414a" d="M538-131c121 0 232-49 232-156 0-50-20-88-56-117-73-60-334-92-420-143-92-55-162-110-162-238 0-190 192-317 400-317 223 0 414 129 413 338H759c0-108-110-186-227-186-119 0-215 53-215 159 0 45 18 78 53 101 76 52 331 90 416 139 98 57 169 115 169 251C955-92 760 20 538 20c-176 0-314-68-386-174-38-55-57-115-57-179h185c6 129 116 202 258 202" id="az"/><path fill="#3a414a" d="M341 0H156v-1082h185V0zm-91-1264c-68 0-108-42-109-105 0-62 41-107 109-107s110 44 110 107-42 105-110 105" id="aA"/><path fill="#3a414a" d="M584 20C278 26 81-227 91-551c10-320 175-545 491-551 308-5 503 247 494 573-9 322-175 543-492 549zm-2-970c-208 0-305 185-305 421 0 216 106 398 307 398 211 0 307-186 307-420 0-214-109-399-309-399" id="aB"/><g id="m"><use transform="matrix(0.010850694444444444,0,0,0.010850694444444444,0,0)" xlink:href="#ao"/><use transform="matrix(0.010850694444444444,0,0,0.010850694444444444,11.773003472222221,0)" xlink:href="#aw"/><use transform="matrix(0.010850694444444444,0,0,0.010850694444444444,22.786458333333332,0)" xlink:href="#ax"/><use transform="matrix(0.010850694444444444,0,0,0.010850694444444444,35.25390625,0)" xlink:href="#ay"/><use transform="matrix(0.010850694444444444,0,0,0.010850694444444444,42.56727430555556,0)" xlink:href="#ao"/><use transform="matrix(0.010850694444444444,0,0,0.010850694444444444,54.34027777777778,0)" xlink:href="#az"/><use transform="matrix(0.010850694444444444,0,0,0.010850694444444444,65.79861111111111,0)" xlink:href="#az"/><use transform="matrix(0.010850694444444444,0,0,0.010850694444444444,77.25694444444444,0)" xlink:href="#aA"/><use transform="matrix(0.010850694444444444,0,0,0.010850694444444444,82.64973958333333,0)" xlink:href="#aB"/><use transform="matrix(0.010850694444444444,0,0,0.010850694444444444,95.32335069444444,0)" xlink:href="#au"/></g><path fill="#3a414a" d="M491 20c-241-1-355-148-355-398v-704h185v699c0 164 67 246 200 246 141 0 235-53 282-158v-787h185V0H812l-4-107C736-22 630 20 491 20" id="aC"/><g id="n"><use transform="matrix(0.010850694444444444,0,0,0.010850694444444444,0,0)" xlink:href="#ay"/><use transform="matrix(0.010850694444444444,0,0,0.010850694444444444,7.313368055555555,0)" xlink:href="#ao"/><use transform="matrix(0.010850694444444444,0,0,0.010850694444444444,19.08637152777778,0)" xlink:href="#aq"/><use transform="matrix(0.010850694444444444,0,0,0.010850694444444444,26.34548611111111,0)" xlink:href="#aC"/><use transform="matrix(0.010850694444444444,0,0,0.010850694444444444,38.595920138888886,0)" xlink:href="#ay"/><use transform="matrix(0.010850694444444444,0,0,0.010850694444444444,46.115451388888886,0)" xlink:href="#au"/><use transform="matrix(0.010850694444444444,0,0,0.010850694444444444,58.37673611111111,0)" xlink:href="#az"/></g><g id="o"><use transform="matrix(0.010850694444444444,0,0,0.010850694444444444,0,0)" xlink:href="#aA"/><use transform="matrix(0.010850694444444444,0,0,0.010850694444444444,5.392795138888888,0)" xlink:href="#ap"/></g><path fill="#3a414a" d="M277-555c0 244 77 420 297 424 127 2 249-93 255-210h175C980-127 805 20 574 20 258 20 81-222 92-562c11-319 164-533 481-540 237-5 426 165 431 392H829c-7-133-115-242-256-240-209 4-296 166-296 395" id="aD"/><path fill="#3a414a" d="M341 0H156v-1536h185V0" id="aE"/><g id="p"><use transform="matrix(0.010850694444444444,0,0,0.010850694444444444,0,0)" xlink:href="#aD"/><use transform="matrix(0.010850694444444444,0,0,0.010850694444444444,11.631944444444445,0)" xlink:href="#aB"/><use transform="matrix(0.010850694444444444,0,0,0.010850694444444444,24.305555555555554,0)" xlink:href="#au"/><use transform="matrix(0.010850694444444444,0,0,0.010850694444444444,36.56684027777778,0)" xlink:href="#av"/><use transform="matrix(0.010850694444444444,0,0,0.010850694444444444,49.09939236111111,0)" xlink:href="#aA"/><use transform="matrix(0.010850694444444444,0,0,0.010850694444444444,54.4921875,0)" xlink:href="#aq"/><use transform="matrix(0.010850694444444444,0,0,0.010850694444444444,61.75130208333333,0)" xlink:href="#aA"/><use transform="matrix(0.010850694444444444,0,0,0.010850694444444444,67.14409722222223,0)" xlink:href="#aB"/><use transform="matrix(0.010850694444444444,0,0,0.010850694444444444,79.81770833333334,0)" xlink:href="#au"/><use transform="matrix(0.010850694444444444,0,0,0.010850694444444444,92.07899305555557,0)" xlink:href="#at"/><use transform="matrix(0.010850694444444444,0,0,0.010850694444444444,104.16666666666669,0)" xlink:href="#aE"/></g><path fill="#3a414a" d="M1240-945c-141 0-250 95-250 227V0H804v-709c0-157-77-236-231-236-121 0-204 52-249 155V0H139v-1082h175l5 120c79-93 186-140 321-140 151 0 254 58 309 174 69-98 181-174 345-174 237 0 362 126 362 377V0h-185v-714c-2-159-67-231-231-231" id="aF"/><g id="q"><use transform="matrix(0.010850694444444444,0,0,0.010850694444444444,0,0)" xlink:href="#az"/><use transform="matrix(0.010850694444444444,0,0,0.010850694444444444,11.458333333333332,0)" xlink:href="#aq"/><use transform="matrix(0.010850694444444444,0,0,0.010850694444444444,18.717447916666664,0)" xlink:href="#at"/><use transform="matrix(0.010850694444444444,0,0,0.010850694444444444,30.805121527777775,0)" xlink:href="#aq"/><use transform="matrix(0.010850694444444444,0,0,0.010850694444444444,38.06423611111111,0)" xlink:href="#ao"/><use transform="matrix(0.010850694444444444,0,0,0.010850694444444444,49.83723958333333,0)" xlink:href="#aF"/><use transform="matrix(0.010850694444444444,0,0,0.010850694444444444,69.31423611111111,0)" xlink:href="#ao"/><use transform="matrix(0.010850694444444444,0,0,0.010850694444444444,81.08723958333334,0)" xlink:href="#au"/><use transform="matrix(0.010850694444444444,0,0,0.010850694444444444,93.34852430555557,0)" xlink:href="#aq"/></g><path fill="#3a414a" d="M986-814H152v-161h834v161zm0 415H152v-160h834v160" id="aG"/><use transform="matrix(0.010850694444444444,0,0,0.010850694444444444,0,0)" xlink:href="#aG" id="r"/><g id="s"><use transform="matrix(0.010850694444444444,0,0,0.010850694444444444,0,0)" xlink:href="#aq"/><use transform="matrix(0.010850694444444444,0,0,0.010850694444444444,7.259114583333333,0)" xlink:href="#ay"/><use transform="matrix(0.010850694444444444,0,0,0.010850694444444444,14.778645833333332,0)" xlink:href="#aC"/><use transform="matrix(0.010850694444444444,0,0,0.010850694444444444,27.029079861111104,0)" xlink:href="#ao"/></g><path fill="#3a414a" d="M288 11c-91 0-163-63-163-153 0-91 73-155 163-155 91 0 164 64 164 155S380 11 288 11zm0-819c-91 0-163-63-163-153 0-91 73-155 163-155 91 0 164 64 164 155s-72 153-164 153" id="aH"/><use transform="matrix(0.010850694444444444,0,0,0.010850694444444444,0,0)" xlink:href="#aH" id="t"/><path fill="#3a414a" d="M1161-1018c0 201-122 330-278 388l342 618V0h-206L703-589H361V0H168v-1456h482c310-2 511 139 511 438zm-193 0c0-187-120-280-313-280H361v552h295c179 3 313-101 312-272" id="aI"/><path fill="#3a414a" d="M521 20C240 20 96-239 96-550c0-303 147-552 427-552 132 0 235 47 309 140l9-120h169V-26c4 277-183 454-459 452-165-1-334-81-400-187l96-111c79 98 176 147 291 147 180 1 288-109 286-290v-93C750-23 649 20 521 20zm48-965c-209 0-287 178-287 416 0 217 86 392 285 392 117 0 202-53 257-159v-494c-57-103-142-155-255-155" id="aJ"/><g id="u"><use transform="matrix(0.010850694444444444,0,0,0.010850694444444444,0,0)" xlink:href="#aI"/><use transform="matrix(0.010850694444444444,0,0,0.010850694444444444,13.682725694444445,0)" xlink:href="#aA"/><use transform="matrix(0.010850694444444444,0,0,0.010850694444444444,19.075520833333332,0)" xlink:href="#aJ"/><use transform="matrix(0.010850694444444444,0,0,0.010850694444444444,31.54296875,0)" xlink:href="#as"/><use transform="matrix(0.010850694444444444,0,0,0.010850694444444444,43.78255208333333,0)" xlink:href="#aq"/><use transform="matrix(0.010850694444444444,0,0,0.010850694444444444,51.041666666666664,0)" xlink:href="#ar"/><use transform="matrix(0.010850694444444444,0,0,0.010850694444444444,57.17230902777778,0)" xlink:href="#as"/><use transform="matrix(0.010850694444444444,0,0,0.010850694444444444,69.4118923611111,0)" xlink:href="#at"/><use transform="matrix(0.010850694444444444,0,0,0.010850694444444444,81.49956597222221,0)" xlink:href="#au"/><use transform="matrix(0.010850694444444444,0,0,0.010850694444444444,93.76085069444441,0)" xlink:href="#av"/></g><g id="v"><use transform="matrix(0.010850694444444444,0,0,0.010850694444444444,0,0)" xlink:href="#ap"/><use transform="matrix(0.010850694444444444,0,0,0.010850694444444444,7.71484375,0)" xlink:href="#at"/><use transform="matrix(0.010850694444444444,0,0,0.010850694444444444,19.80251736111111,0)" xlink:href="#aE"/><use transform="matrix(0.010850694444444444,0,0,0.010850694444444444,25.1953125,0)" xlink:href="#az"/><use transform="matrix(0.010850694444444444,0,0,0.010850694444444444,36.65364583333333,0)" xlink:href="#ao"/></g><path fill="#3a414a" d="M688-137c238 0 323-102 359-325h193c-32 297-228 482-552 482-361 0-569-299-569-680 0-197 8-360 73-497 88-186 257-317 513-319 316-2 509 195 535 488h-193c-31-212-118-330-342-330-272 0-397 224-393 523v141c-3 282 115 517 376 517" id="aK"/><g id="w"><use transform="matrix(0.010850694444444444,0,0,0.010850694444444444,0,0)" xlink:href="#aK"/><use transform="matrix(0.010850694444444444,0,0,0.010850694444444444,14.463975694444445,0)" xlink:href="#aB"/><use transform="matrix(0.010850694444444444,0,0,0.010850694444444444,27.13758680555556,0)" xlink:href="#au"/><use transform="matrix(0.010850694444444444,0,0,0.010850694444444444,39.39887152777778,0)" xlink:href="#av"/><use transform="matrix(0.010850694444444444,0,0,0.010850694444444444,51.93142361111112,0)" xlink:href="#aA"/><use transform="matrix(0.010850694444444444,0,0,0.010850694444444444,57.32421875,0)" xlink:href="#aq"/><use transform="matrix(0.010850694444444444,0,0,0.010850694444444444,64.58333333333333,0)" xlink:href="#aA"/><use transform="matrix(0.010850694444444444,0,0,0.010850694444444444,69.97612847222221,0)" xlink:href="#aB"/><use transform="matrix(0.010850694444444444,0,0,0.010850694444444444,82.64973958333333,0)" xlink:href="#au"/><use transform="matrix(0.010850694444444444,0,0,0.010850694444444444,94.91102430555556,0)" xlink:href="#at"/><use transform="matrix(0.010850694444444444,0,0,0.010850694444444444,106.99869791666666,0)" xlink:href="#aE"/></g><g id="x"><use transform="matrix(0.010850694444444444,0,0,0.010850694444444444,0,0)" xlink:href="#az"/><use transform="matrix(0.010850694444444444,0,0,0.010850694444444444,11.458333333333332,0)" xlink:href="#aq"/><use transform="matrix(0.010850694444444444,0,0,0.010850694444444444,18.717447916666664,0)" xlink:href="#at"/><use transform="matrix(0.010850694444444444,0,0,0.010850694444444444,30.805121527777775,0)" xlink:href="#aq"/><use transform="matrix(0.010850694444444444,0,0,0.010850694444444444,38.06423611111111,0)" xlink:href="#ao"/><use transform="matrix(0.010850694444444444,0,0,0.010850694444444444,49.83723958333333,0)" xlink:href="#aF"/><use transform="matrix(0.010850694444444444,0,0,0.010850694444444444,69.31423611111111,0)" xlink:href="#ao"/><use transform="matrix(0.010850694444444444,0,0,0.010850694444444444,81.08723958333334,0)" xlink:href="#au"/><use transform="matrix(0.010850694444444444,0,0,0.010850694444444444,93.34852430555557,0)" xlink:href="#aq"/></g><g id="y"><use transform="matrix(0.010850694444444444,0,0,0.010850694444444444,0,0)" xlink:href="#ay"/><use transform="matrix(0.010850694444444444,0,0,0.010850694444444444,7.313368055555555,0)" xlink:href="#ao"/><use transform="matrix(0.010850694444444444,0,0,0.010850694444444444,19.08637152777778,0)" xlink:href="#aq"/><use transform="matrix(0.010850694444444444,0,0,0.010850694444444444,26.34548611111111,0)" xlink:href="#aC"/><use transform="matrix(0.010850694444444444,0,0,0.010850694444444444,38.595920138888886,0)" xlink:href="#ay"/><use transform="matrix(0.010850694444444444,0,0,0.010850694444444444,46.115451388888886,0)" xlink:href="#au"/><use transform="matrix(0.010850694444444444,0,0,0.010850694444444444,58.37673611111111,0)" xlink:href="#az"/></g><g id="z"><use transform="matrix(0.010850694444444444,0,0,0.010850694444444444,0,0)" xlink:href="#aq"/><use transform="matrix(0.010850694444444444,0,0,0.010850694444444444,7.259114583333333,0)" xlink:href="#ay"/><use transform="matrix(0.010850694444444444,0,0,0.010850694444444444,14.778645833333332,0)" xlink:href="#aC"/><use transform="matrix(0.010850694444444444,0,0,0.010850694444444444,27.029079861111104,0)" xlink:href="#ao"/></g><g id="A"><use transform="matrix(0.010850694444444444,0,0,0.010850694444444444,0,0)" xlink:href="#aB"/><use transform="matrix(0.010850694444444444,0,0,0.010850694444444444,12.67361111111111,0)" xlink:href="#ay"/></g><path fill="#3a414a" d="M565-1226H328L52-1536h315" id="aL"/><path fill="#3a414a" d="M600-211c112 1 194-64 190-172-5-141-79-171-200-220-179-73-336-133-412-298-22-47-31-104-31-169-1-235 173-385 395-403v-214h160v217c231 30 379 204 377 465H790c2-142-56-236-182-239-108-2-173 67-172 175 0 51 16 90 44 122 59 66 280 136 360 185 132 80 239 173 239 377 0 240-169 381-398 401v199H522V17C260-8 91-175 92-457h289c-1 151 72 245 219 246" id="aM"/><path fill="#3a414a" d="M642-1436c-109 42-156 135-156 290v210c0 151-60 256-179 317 119 61 179 168 179 319v212c3 156 55 251 156 286l-56 162c-240-67-360-222-360-465v-199c0-141-59-211-178-211v-207c116 0 178-66 178-199v-212c3-269 138-400 360-464" id="aN"/><g id="B"><use transform="matrix(0.01844618055555555,0,0,0.01844618055555555,0,0)" xlink:href="#aL"/><use transform="matrix(0.01844618055555555,0,0,0.01844618055555555,12.488064236111107,0)" xlink:href="#aM"/><use transform="matrix(0.01844618055555555,0,0,0.01844618055555555,34.16232638888888,0)" xlink:href="#aN"/></g><path fill="#3a414a" d="M90-1597c221 62 356 194 360 461v215c3 133 62 199 178 199v207c-119 0-178 70-178 209v217c-5 233-125 383-360 449L34 198C135 162 190 65 190-92v-212c0-151 61-255 183-314-122-59-183-165-183-319v-209c-3-155-55-252-156-290" id="aO"/><g id="C"><use transform="matrix(0.01844618055555555,0,0,0.01844618055555555,0,0)" xlink:href="#aO"/><use transform="matrix(0.01844618055555555,0,0,0.01844618055555555,12.469618055555552,0)" xlink:href="#aL"/></g><path fill="#3a414a" d="M375 0H183v-1456h192V0" id="aP"/><g id="D"><use transform="matrix(0.009765624999999997,0,0,0.009765624999999997,0,0)" xlink:href="#aP"/><use transform="matrix(0.009765624999999997,0,0,0.009765624999999997,5.439453124999998,0)" xlink:href="#au"/><use transform="matrix(0.009765624999999997,0,0,0.009765624999999997,16.474609374999993,0)" xlink:href="#av"/><use transform="matrix(0.009765624999999997,0,0,0.009765624999999997,27.75390624999999,0)" xlink:href="#aA"/><use transform="matrix(0.009765624999999997,0,0,0.009765624999999997,32.607421874999986,0)" xlink:href="#aD"/><use transform="matrix(0.009765624999999997,0,0,0.009765624999999997,43.076171874999986,0)" xlink:href="#at"/><use transform="matrix(0.009765624999999997,0,0,0.009765624999999997,53.95507812499999,0)" xlink:href="#aq"/><use transform="matrix(0.009765624999999997,0,0,0.009765624999999997,60.488281249999986,0)" xlink:href="#ao"/><use transform="matrix(0.009765624999999997,0,0,0.009765624999999997,71.08398437499999,0)" xlink:href="#az"/></g><g id="E"><use transform="matrix(0.009765624999999997,0,0,0.009765624999999997,0,0)" xlink:href="#aq"/><use transform="matrix(0.009765624999999997,0,0,0.009765624999999997,6.533203124999997,0)" xlink:href="#as"/><use transform="matrix(0.009765624999999997,0,0,0.009765624999999997,17.548828124999993,0)" xlink:href="#ao"/></g><g id="F"><use transform="matrix(0.009765624999999997,0,0,0.009765624999999997,0,0)" xlink:href="#ao"/><use transform="matrix(0.009765624999999997,0,0,0.009765624999999997,10.595703124999996,0)" xlink:href="#au"/><use transform="matrix(0.009765624999999997,0,0,0.009765624999999997,21.630859374999993,0)" xlink:href="#av"/></g><g id="G"><use transform="matrix(0.009765624999999997,0,0,0.009765624999999997,0,0)" xlink:href="#aB"/><use transform="matrix(0.009765624999999997,0,0,0.009765624999999997,11.406249999999996,0)" xlink:href="#ap"/></g><g id="H"><use transform="matrix(0.009765624999999997,0,0,0.009765624999999997,0,0)" xlink:href="#aD"/><use transform="matrix(0.009765624999999997,0,0,0.009765624999999997,10.468749999999996,0)" xlink:href="#aB"/><use transform="matrix(0.009765624999999997,0,0,0.009765624999999997,21.874999999999993,0)" xlink:href="#au"/><use transform="matrix(0.009765624999999997,0,0,0.009765624999999997,32.910156249999986,0)" xlink:href="#av"/><use transform="matrix(0.009765624999999997,0,0,0.009765624999999997,44.189453124999986,0)" xlink:href="#aA"/><use transform="matrix(0.009765624999999997,0,0,0.009765624999999997,49.042968749999986,0)" xlink:href="#aq"/><use transform="matrix(0.009765624999999997,0,0,0.009765624999999997,55.576171874999986,0)" xlink:href="#aA"/><use transform="matrix(0.009765624999999997,0,0,0.009765624999999997,60.429687499999986,0)" xlink:href="#aB"/><use transform="matrix(0.009765624999999997,0,0,0.009765624999999997,71.83593749999999,0)" xlink:href="#au"/><use transform="matrix(0.009765624999999997,0,0,0.009765624999999997,82.87109374999999,0)" xlink:href="#at"/><use transform="matrix(0.009765624999999997,0,0,0.009765624999999997,93.74999999999999,0)" xlink:href="#aE"/></g><g id="I"><use transform="matrix(0.009765624999999997,0,0,0.009765624999999997,0,0)" xlink:href="#az"/><use transform="matrix(0.009765624999999997,0,0,0.009765624999999997,10.312499999999996,0)" xlink:href="#aq"/><use transform="matrix(0.009765624999999997,0,0,0.009765624999999997,16.845703124999993,0)" xlink:href="#at"/><use transform="matrix(0.009765624999999997,0,0,0.009765624999999997,27.72460937499999,0)" xlink:href="#aq"/><use transform="matrix(0.009765624999999997,0,0,0.009765624999999997,34.257812499999986,0)" xlink:href="#ao"/><use transform="matrix(0.009765624999999997,0,0,0.009765624999999997,44.853515624999986,0)" xlink:href="#aF"/><use transform="matrix(0.009765624999999997,0,0,0.009765624999999997,62.38281249999998,0)" xlink:href="#ao"/><use transform="matrix(0.009765624999999997,0,0,0.009765624999999997,72.97851562499997,0)" xlink:href="#au"/><use transform="matrix(0.009765624999999997,0,0,0.009765624999999997,84.01367187499997,0)" xlink:href="#aq"/></g><g id="J"><use transform="matrix(0.009765624999999997,0,0,0.009765624999999997,0,0)" xlink:href="#aE"/><use transform="matrix(0.009765624999999997,0,0,0.009765624999999997,4.853515624999998,0)" xlink:href="#ao"/><use transform="matrix(0.009765624999999997,0,0,0.009765624999999997,15.449218749999995,0)" xlink:href="#ap"/><use transform="matrix(0.009765624999999997,0,0,0.009765624999999997,22.392578124999993,0)" xlink:href="#aq"/><use transform="matrix(0.009765624999999997,0,0,0.009765624999999997,28.92578124999999,0)" xlink:href="#ar"/><use transform="matrix(0.009765624999999997,0,0,0.009765624999999997,34.443359374999986,0)" xlink:href="#as"/><use transform="matrix(0.009765624999999997,0,0,0.009765624999999997,45.458984374999986,0)" xlink:href="#at"/><use transform="matrix(0.009765624999999997,0,0,0.009765624999999997,56.337890624999986,0)" xlink:href="#au"/><use transform="matrix(0.009765624999999997,0,0,0.009765624999999997,67.37304687499999,0)" xlink:href="#av"/></g><g id="K"><use transform="matrix(0.009765624999999997,0,0,0.009765624999999997,0,0)" xlink:href="#ao"/><use transform="matrix(0.009765624999999997,0,0,0.009765624999999997,10.595703124999996,0)" xlink:href="#aw"/><use transform="matrix(0.009765624999999997,0,0,0.009765624999999997,20.507812499999993,0)" xlink:href="#ax"/><use transform="matrix(0.009765624999999997,0,0,0.009765624999999997,31.72851562499999,0)" xlink:href="#ay"/><use transform="matrix(0.009765624999999997,0,0,0.009765624999999997,38.310546874999986,0)" xlink:href="#ao"/><use transform="matrix(0.009765624999999997,0,0,0.009765624999999997,48.906249999999986,0)" xlink:href="#az"/><use transform="matrix(0.009765624999999997,0,0,0.009765624999999997,59.218749999999986,0)" xlink:href="#az"/><use transform="matrix(0.009765624999999997,0,0,0.009765624999999997,69.53124999999999,0)" xlink:href="#aA"/><use transform="matrix(0.009765624999999997,0,0,0.009765624999999997,74.38476562499999,0)" xlink:href="#aB"/><use transform="matrix(0.009765624999999997,0,0,0.009765624999999997,85.79101562499999,0)" xlink:href="#au"/></g></defs></g></svg>