<?xml version="1.0" encoding="utf-8"?>
<!-- Generator: Adobe Illustrator 16.0.3, SVG Export Plug-In . SVG Version: 6.00 Build 0)  -->
<!DOCTYPE svg PUBLIC "-//W3C//DTD SVG 1.1//EN" "http://www.w3.org/Graphics/SVG/1.1/DTD/svg11.dtd">
<svg version="1.1" id="Layer_1" xmlns="http://www.w3.org/2000/svg" xmlns:xlink="http://www.w3.org/1999/xlink" x="0px" y="0px"
	 width="90.501px" height="91.468px" viewBox="0 0 90.501 91.468" enable-background="new 0 0 90.501 91.468" xml:space="preserve">
<path fill="#1C4178" d="M44.309,0.016c7.087-0.261,17.707,2.757,23.477,5.907c8.264,4.586,19.147,15.732,21.112,28.591
	c1.316,7.866-0.652,16.129-8.389,20.721c-10.492,6.288-27.02-2.105-25.051-16.401c1.704-11.668,1.182-20.458-6.559-27.144
	c0,0-11.015-9.444-25.176-6.028C30.41,0.412,44.309,0.016,44.309,0.016 M81.429,73.592c-4.982,6.029-11.808,11.8-20.594,14.95
	c-9.704,3.41-22.292,5.374-34.488-3.015c-8.394-5.906-7.213-16.525-5.244-21.117c4.586-9.839,18.093-13.375,27.405-4.59
	c0.654,0.657,11.012,9.182,21.248,6.951c0,0,14.16-3.149,20.584-19.018C91.918,58.9,81.429,73.592,81.429,73.592 M11.001,75.427
	c-7.605-9.705-9.443-16.13-10.884-24.659c-0.915-16.52,3.541-28.851,13.768-37.637c6.555-5.637,14.557-7.078,21.639-3.275
	c10.101,5.244,12.07,19.147,3.938,26.883c-8.921,8.523-21.383,4.982-24.789,22.819c0,0-2.361,12.064,6.293,24.261
	C15.854,80.937,11.001,75.427,11.001,75.427"/>
<g>
</g>
<g>
</g>
<g>
</g>
<g>
</g>
<g>
</g>
<g>
</g>
</svg>
