<?xml version="1.0" encoding="UTF-8" standalone="no"?>
<!-- Generator: Adobe Illustrator 12.0.1, SVG Export Plug-In  -->

<svg
   xmlns:dc="http://purl.org/dc/elements/1.1/"
   xmlns:cc="http://creativecommons.org/ns#"
   xmlns:rdf="http://www.w3.org/1999/02/22-rdf-syntax-ns#"
   xmlns:svg="http://www.w3.org/2000/svg"
   xmlns="http://www.w3.org/2000/svg"
   xmlns:sodipodi="http://sodipodi.sourceforge.net/DTD/sodipodi-0.dtd"
   xmlns:inkscape="http://www.inkscape.org/namespaces/inkscape"
   version="1.1"
   width="212.575"
   height="212.575"
   viewBox="0 0 212.575 212.575"
   enable-background="new 0 0 216 216"
   xml:space="preserve"
   id="svg2"
   inkscape:version="0.48.1 "
   sodipodi:docname="AJAX.svg"><metadata
   id="metadata137"><rdf:RDF><cc:Work
       rdf:about=""><dc:format>image/svg+xml</dc:format><dc:type
         rdf:resource="http://purl.org/dc/dcmitype/StillImage" /></cc:Work></rdf:RDF></metadata><sodipodi:namedview
   pagecolor="#ffffff"
   bordercolor="#666666"
   borderopacity="1"
   objecttolerance="10"
   gridtolerance="10"
   guidetolerance="10"
   inkscape:pageopacity="0"
   inkscape:pageshadow="2"
   inkscape:window-width="1280"
   inkscape:window-height="1004"
   id="namedview135"
   showgrid="false"
   inkscape:zoom="27.967705"
   inkscape:cx="109.86821"
   inkscape:cy="209.08063"
   inkscape:window-x="-8"
   inkscape:window-y="-8"
   inkscape:window-maximized="1"
   inkscape:current-layer="svg2"
   showguides="true"
   inkscape:guide-bbox="true"
   fit-margin-top="0.1"
   fit-margin-left="0.1"
   fit-margin-right="0.1"
   fit-margin-bottom="0.1" />
<defs
   id="defs4">
</defs>
<path
   d="m 69.2545,174.2745 c 0,0 50.896,-67.286 51.732,-68.391 -0.858,-1.086 -51.72,-65.377 -51.72,-65.377 l 1.108,-1.385 116.74,56.148 c -5.383,-39.85 -39.507,-70.575 -80.828,-70.575 -45.066,0 -81.596,36.529 -81.596,81.596 0,45.065 36.529,81.595 81.596,81.595 41.27,0 75.361,-30.648 80.81,-70.426 l -116.709,58.179 -1.133,-1.364 z"
   id="path6"
   inkscape:connector-curvature="0"
   style="fill:none" />
<path
   style="fill:#e51d2b;fill-opacity:1;stroke:none"
   d="M 106.2875,0.1 C 47.6335,0.1 0.1,47.6325 0.1,106.2875 c 0,58.653 47.5335,106.1875 106.1875,106.1875 58.648,0 106.1875,-47.5345 106.1875,-106.1875 C 212.475,47.6325 164.9355,0.1 106.2875,0.1 z m 0,24.59375 c 41.321,0 75.4295,30.7125 80.8125,70.5625 L 209.75625,106.1625 187.1,117.475 c -5.448,39.777 -39.5425,70.40625 -80.8125,70.40625 -45.066,0 -81.59375,-36.52775 -81.59375,-81.59375 0,-45.066 36.52675,-81.59375 81.59375,-81.59375 z"
   id="path8"
   inkscape:connector-curvature="0" />















<path
   d="m 205.6215,106.1905 c -3.184,-1.531 -125.808,-60.51 -132.477,-63.717 4.45,5.625 50.145,63.385 50.145,63.385 0,0 -45.969,60.771 -50.241,66.419 6.519,-3.25 129.409,-64.51 132.573,-66.087 z"
   id="path40"
   style="fill:#302875;stroke:none"
   inkscape:connector-curvature="0" />
<path
   d="m 70.3755,39.1215 -1.108,1.385 c 0,0 50.861,64.291 51.72,65.377 -0.836,1.105 -51.732,68.391 -51.732,68.391 l 1.132,1.363 116.71,-58.179 22.665,-11.298 -22.646,-10.892 -116.741,-56.147 z m 52.914,66.737 c 0,0 -45.695,-57.76 -50.145,-63.385 6.669,3.208 129.293,62.186 132.477,63.717 -3.164,1.577 -126.054,62.837 -132.573,66.087 4.272,-5.648 50.241,-66.419 50.241,-66.419 z"
   id="path42"
   style="fill:none;stroke:none"
   inkscape:connector-curvature="0" />













































<rect
   id="_x3C_Slice_x3E__2_"
   width="216"
   height="216"
   x="-1.7125"
   y="-1.7125"
   style="fill:none" />
<path
   inkscape:connector-curvature="0"
   style="fill:#ffffff;stroke:none"
   d="m 103.25625,6.94375 -0.0312,1.96875 3.375,0.03125 -0.0937,9.15625 2.3125,0.03125 0.0937,-9.15625 3.34375,0.03125 0.0312,-1.96875 -9.03125,-0.09375 z M 99.6,7.1625 91.75625,8.06875 93.00625,19.1 95.31875,18.85 94.7875,14.19375 99.63125,13.63125 99.4125,11.6625 94.56875,12.25625 94.2875,9.75625 99.81875,9.1 99.6,7.1625 z m 14.78125,0.03125 -1.3125,11.03125 2.25,0.25 0.5,-4.3125 2.40625,0.3125 c 1.702,0.206 1.71625,0.76925 1.53125,2.28125 -0.131,1.137 -0.11825,1.73725 -0.0312,2.28125 l 2.56245,0.3125 0.0312,-0.3125 c -0.468,-0.245 -0.41475,-0.636 -0.21875,-2.25 0.249,-2.062 -0.2025,-2.46275 -1.0625,-2.96875 1.131,-0.239 1.88025,-1.19325 2.03125,-2.40625 0.114,-0.951 -0.15675,-3.2105 -3.09375,-3.5625 l -5.5937,-0.65625 z M 85.5375,9.1625 c -0.586953,-0.007 -1.11,0.072 -1.46875,0.15625 -1.426,0.331 -5.067,1.83925 -3.875,6.90625 1.185,5.08 5.10225,4.80575 6.53125,4.46875 1.436,-0.337 5.061,-1.82825 3.875,-6.90625 C 89.7075,9.979 87.298359,9.183547 85.5375,9.1625 z m 30.875,0.21875 2.875,0.3125 c 1.349,0.164 1.5135,1.07425 1.4375,1.65625 -0.13,1.093 -0.76775,1.42725 -1.96875,1.28125 l -2.6875,-0.3125 0.34375,-2.9375 z m 12.65625,0.125 L 122.6,19.35 l 2.375,0.59375 1.28125,-2.03125 3.96875,0.96875 0.15625,2.375 2.46875,0.625 -1.1875,-11.75 -2.59375,-0.625 z m -44.0625,1.65625 c 1.187854,-0.08493 2.719875,0.50675 3.34375,3.15625 0.706,3.029 -0.8385,4.18075 -2.0625,4.46875 -1.218,0.282 -3.1055,-0.06475 -3.8125,-3.09375 -0.712,-3.023 0.81225,-4.18575 2.03125,-4.46875 0.15225,-0.036 0.330307,-0.05037 0.5,-0.0625 z m 52.375,0.5625 -3.90625,10.375 2.03125,0.78125 2.78125,-7.4375 0.0312,0.03125 1.4375,9 2.1875,0.8125 3.90625,-10.375 -2.03125,-0.78125 -2.71875,7.25 -0.0312,0 -1.40625,-8.8125 -2.28125,-0.84375 z m -7.65625,0.53125 0.0312,0 0.3125,4.59375 -2.75,-0.65625 2.40625,-3.9375 z m -56.25,0.375 -8.375,3.4375 0.75,1.8125 3.125,-1.28125 3.46875,8.46875 2.125,-0.875 L 71.1,15.725 l 3.125,-1.28125 -0.75,-1.8125 z m -10,4.21875 -1.90625,1.03125 3.71875,6.78125 -0.03125,0.03125 -7.59375,-4.6875 -2.125,1.15625 5.3125,9.75 1.90625,-1.03125 -3.78125,-6.9375 0,-0.03125 7.78125,4.78125 L 68.7875,26.6 63.475,16.85 z m 85.96875,0.03125 c -1.55233,0.02222 -2.42819,1.02225 -2.8125,1.78125 -1.114,2.168 0.223,3.33325 1.625,4.53125 l 0.9375,0.78125 c 0.913,0.783 1.55325,1.358 1.15625,2.125 -0.533,1.05 -1.73875,0.71875 -2.71875,0.21875 -1.804,-0.924 -1.516,-2.10125 -1.25,-2.65625 l -2,-1.03125 c -0.63,1.224 -1.06875,3.645 2.53125,5.5 0.87,0.445 4.0395,1.724 5.5625,-1.25 0.914,-1.772 -0.0397,-2.94775 -1.21875,-3.96875 l -2.125,-1.84375 c -0.364,-0.305 -0.896,-0.7905 -0.5,-1.5625 0.457,-0.892 1.5285,-0.7095 2.3125,-0.3125 1.804,0.93 1.45025,2.06425 1.28125,2.53125 l 1.96875,1.03125 c 0.609,-1.224 0.80425,-3.6315 -2.21875,-5.1875 -1.0025,-0.514688 -1.82564,-0.697599 -2.53125,-0.6875 z m 8.5625,4.28125 -6.15625,9.28125 1.9375,1.28125 2.21875,-3.34375 2.21875,1.46875 c 2.484,1.647 4.35325,-0.163 4.90625,-1 1.207,-1.816 0.88875,-3.69 -0.90625,-4.875 l -4.21875,-2.8125 z m -104.6875,1.40625 -6.6875,4.6875 6.40625,9.09375 6.875,-4.84375 -1.125,-1.625 -5.03125,3.5625 L 52.1,31.1 56.5375,27.975 55.38125,26.35 50.975,29.475 l -1.34375,-1.90625 4.8125,-3.375 -1.125,-1.625 z m 105.5625,1.46875 1.53125,1.03125 c 1.195,0.795 1.43775,1.50325 0.84375,2.40625 -0.276,0.413 -0.96725,1.42575 -2.40625,0.46875 l -1.78125,-1.1875 1.8125,-2.71875 z m 8.4375,4.8125 c -1.28472,0.03624 -2.77475,0.63375 -4.25,2.375 -3.37,3.976 -0.83775,6.95425 0.28125,7.90625 1.121,0.945 4.503,2.975 7.875,-1 3.371,-3.98 0.83975,-6.95525 -0.28125,-7.90625 -0.63281,-0.532687 -1.97322,-1.421593 -3.625,-1.375 z M 44.35,29.00625 l -2.5,2.25 4.40625,7.8125 L 46.225,39.1 38.88125,33.94375 36.35,36.225 l 7.46875,8.25 1.59375,-1.46875 -6.21875,-6.875 L 39.225,36.1 l 7.71875,5.53125 1.6875,-1.53125 -4.6875,-8.28125 6.25,6.875 L 51.7875,37.225 44.35,29.00625 z m 123.3125,2.03125 c 0.832,-0.05712 1.5275,0.282 2,0.6875 0.957,0.81 1.79325,2.53525 -0.21875,4.90625 -2.007,2.377 -3.8545,1.804 -4.8125,1 -0.951,-0.816 -1.79325,-2.53525 0.21875,-4.90625 1.0055,-1.188 1.9805,-1.630375 2.8125,-1.6875 z m 8.90625,4.625 -8.15625,7.53125 1.53125,1.6875 3.1875,-2.96875 1.65625,1.78125 c 1.164,1.262 0.77025,1.716 -0.34375,2.75 -0.843,0.771 -1.18675,1.2205 -1.46875,1.6875 l 1.71875,1.90625 0.21875,-0.21875 c -0.196,-0.489 0.1165,-0.74075 1.3125,-1.84375 1.522,-1.403 1.42075,-1.9915 1.09375,-2.9375 1.022,0.555 2.223,0.30075 3.125,-0.53125 0.701,-0.642 1.9385,-2.54275 -0.0625,-4.71875 l -3.8125,-4.125 z m -141.5,1.96875 -5.9375,6.8125 1.5,1.28125 2.1875,-2.53125 6.90625,6 1.53125,-1.75 -6.90625,-6 2.21875,-2.53125 -1.5,-1.28125 z m 141.65625,1 1.9375,2.125 c 0.925,1.007 0.46725,1.7845 0.0312,2.1875 -0.811,0.745 -1.4975,0.61075 -2.3125,-0.28125 l -1.84375,-2 2.1875,-2.03125 z m 6.84375,4.75 -1.5625,1.15625 2,2.6875 -7.34375,5.46875 1.375,1.875 7.34375,-5.46875 2,2.6875 1.5625,-1.15625 -5.375,-7.25 z M 28.975,46.6625 c -0.83475,0.03187 -1.81125,0.44425 -2.65625,1.65625 L 23.1,52.9125 l 9.125,6.375 1.3125,-1.875 -3.5625,-2.5 1.375,-1.9375 c 0.979,-1.408 1.505,-1.15125 2.75,-0.28125 0.936,0.652 1.45275,0.8885 1.96875,1.0625 l 1.46875,-2.09375 -0.25,-0.15625 c -0.435,0.299 -0.76075,0.055 -2.09375,-0.875 -1.696,-1.185 -2.24675,-0.98575 -3.09375,-0.46875 0.326,-1.115 -0.1865,-2.20525 -1.1875,-2.90625 -0.394,-0.2745 -1.10275,-0.625625 -1.9375,-0.59375 z m -0.15625,2.3125 c 0.37325,-0.0265 0.6985,0.1465 0.9375,0.3125 0.902,0.631 0.90975,1.35975 0.21875,2.34375 L 28.4125,53.85 26.00625,52.1625 27.6625,49.7875 c 0.388,-0.56 0.783,-0.786 1.15625,-0.8125 z m 161.96875,4.625 -11.5625,2.375 1.28125,2.09375 2.34375,-0.53125 2.125,3.5 -1.59375,1.8125 1.3125,2.15625 7.46875,-9.125 -1.375,-2.28125 z m -1.46875,2.40625 0.0312,0.03125 -3.0625,3.46875 -1.46875,-2.4375 4.5,-1.0625 z m -169.1875,2.125 -1.28125,2.375 7.9375,8.71875 1.15625,-2.15625 -1.65625,-1.75 1.9375,-3.625 2.34375,0.4375 1.1875,-2.21875 -11.625,-1.78125 z m 173.8125,0.71875 -1.75,0.875 1.4375,3.03125 -8.21875,3.96875 1,2.09375 8.25,-3.96875 1.4375,3 1.78125,-0.84375 -3.9375,-8.15625 z m -172.25,1.65625 4.53125,0.84375 -1.34375,2.5 -3.1875,-3.3125 0,-0.03125 z m -2.78125,4.375 c -1.385672,-0.07041 -2.50925,0.66375 -3.125,2.15625 l -1.96875,4.6875 10.28125,4.25 0.875,-2.125 -3.6875,-1.5625 1,-2.4375 c 1.147,-2.757 -0.97625,-4.245 -1.90625,-4.625 -0.503,-0.2095 -1.006859,-0.320281 -1.46875,-0.34375 z m -0.21875,2.28125 c 0.209063,0.002 0.43875,0.0515 0.6875,0.15625 0.463,0.19 1.6005,0.651 0.9375,2.25 l -0.8125,2 -3,-1.25 0.6875,-1.71875 c 0.41175,-0.99525 0.872812,-1.4435 1.5,-1.4375 z M 198.35,68.35 188.00625,72.44375 188.88125,74.6 199.19375,70.50625 198.35,68.35 z m -1.15625,5.21875 c -0.7189,-0.02543 -1.53275,0.0945 -2.46875,0.375 -4.996,1.506 -4.51275,5.37825 -4.09375,6.78125 0.425,1.408 2.15925,4.9385 7.15625,3.4375 4.991,-1.501 4.4815,-5.37825 4.0625,-6.78125 -0.34369,-1.144 -1.54102,-3.702305 -4.65625,-3.8125 z M 12.9125,74.25625 10.63125,82.1 21.31875,85.225 23.6625,77.1 21.7875,76.56875 20.06875,82.475 17.2875,81.69375 18.81875,76.475 16.9125,75.9125 l -1.5,5.21875 -2.25,-0.65625 1.65625,-5.65625 -1.90625,-0.5625 z m 184.40625,1.65625 c 1.62563,0.08962 2.39075,1.126 2.65625,2.03125 0.364,1.201 0.1,3.102 -2.875,4 -2.979,0.892 -4.1975,-0.57925 -4.5625,-1.78125 -0.354,-1.201 -0.13625,-3.108 2.84375,-4 0.745,-0.22425 1.39562,-0.279875 1.9375,-0.25 z m 6.28125,9.03125 -10.96875,1.84375 0.375,2.125 7.8125,-1.3125 0,0.03125 -7.0625,5.78125 0.40625,2.28125 L 205.1,93.85 l -0.34375,-2.125 -7.625,1.28125 -0.0312,-0.03125 6.90625,-5.625 -0.40625,-2.40625 z m -190.03125,0.1875 c -1.824141,0.08953 -3.7849998,0.923 -4.2499998,3.6875 l -0.8125,4.84375 10.9374998,1.84375 0.8125,-4.71875 c 0.609,-3.621 -2.61975,-5.13325 -4.96875,-5.53125 -0.51825,-0.0885 -1.110703,-0.154844 -1.71875,-0.125 z m 0.40625,2.375 c 0.323697,0.0096 0.65875,0.0565 1.0625,0.125 1.806,0.31 3.60225,1.23475 3.28125,3.09375 l -0.375,2.21875 -7.1875,-1.21875 0.375,-2.1875 c 0.147875,-0.861 0.577869,-2.098762 2.84375,-2.03125 z m 172.625,54.15625 -1.21875,2.375 3.34375,4.25 -5.4375,-0.1875 -1.25,2.46875 8,-0.21875 3.8125,1.9375 1.0625,-2.125 -3.75,-1.90625 -4.5625,-6.59375 z m -160.46875,3.96875 -1.71875,1 1.6875,2.96875 -8.0625,4.59375 1.15625,2.0625 8.0625,-4.625 1.6875,2.96875 1.75,-1 -4.5625,-7.96875 z m 155.65625,5.28125 -4.5625,6.90625 9.40625,6.21875 4.71875,-7.15625 -1.65625,-1.09375 -3.46875,5.21875 -2.4375,-1.59375 3.03125,-4.59375 -1.65625,-1.09375 -3.03125,4.59375 -1.96875,-1.3125 3.28125,-5 -1.65625,-1.09375 z m -150.84375,3.09375 -9.125,6.625 1.40625,1.90625 4.0625,-2.96875 2.59375,3.5625 -4.09375,2.96875 1.375,1.90625 9.125,-6.625 -1.375,-1.90625 -3.46875,2.53125 -2.5625,-3.5625 3.4375,-2.5 -1.375,-1.9375 z m 145.6875,6.25 c -0.99238,0.0414 -2.11775,0.51425 -3.21875,1.84375 -2.338,2.818 -1.06775,4.7625 -0.0937,5.5625 1.902,1.582 3.35375,0.47475 4.84375,-0.65625 l 0.96875,-0.75 c 0.979,-0.733 1.72725,-1.2475 2.40625,-0.6875 0.914,0.767 0.29975,1.891 -0.40625,2.75 -1.315,1.589 -2.41825,1.05325 -2.90625,0.65625 l -1.4375,1.75 c 1.081,0.892 3.33775,1.8525 5.96875,-1.3125 0.632,-0.756 2.61,-3.586 0,-5.75 -1.561,-1.294 -2.94075,-0.6335 -4.21875,0.3125 l -2.28125,1.6875 c -0.387,0.294 -0.98725,0.7485 -1.65625,0.1875 -0.788,-0.646 -0.3765,-1.685 0.1875,-2.375 1.316,-1.588 2.35625,-0.9605 2.78125,-0.6875 l 1.4375,-1.75 c -0.5355,-0.435 -1.38262,-0.82263 -2.375,-0.78125 z m -139.375,2.25 -8.3125,7.59375 5.75,6.34375 1.46875,-1.375 -4.21875,-4.59375 2.15625,-1.96875 3.71875,4.03125 1.46875,-1.3125 -3.71875,-4.0625 1.75,-1.59375 4.0625,4.40625 1.46875,-1.34375 -5.59375,-6.125 z m 132.78125,5.0625 c -0.69121,0.055 -1.4735,0.37512 -2.28125,1.15625 l -4.09375,3.9375 7.8125,8.125 1.65625,-1.59375 -3.03125,-3.1875 1.75,-1.6875 c 1.251,-1.207 1.72025,-0.86 2.78125,0.25 0.811,0.843 1.272,1.19075 1.75,1.46875 l 1.90625,-1.78125 -0.21875,-0.21875 c -0.494,0.219 -0.76325,-0.0902 -1.90625,-1.28125 -1.462,-1.511 -2.08525,-1.4155 -3.03125,-1.0625 0.538,-1.049 0.26525,-2.25925 -0.59375,-3.15625 -0.42125,-0.4375 -1.34799,-1.0604 -2.5,-0.96875 z m -0.21875,2.3125 c 0.51384,-0.0635 0.92937,0.20063 1.1875,0.46875 0.771,0.804 0.626,1.526 -0.25,2.375 l -2,1.90625 -2.09375,-2.15625 2.125,-2.0625 c 0.37125,-0.35888 0.72295,-0.49314 1.03125,-0.53125 z M 47.06875,173.1 c -1.324863,-0.0948 -2.285,0.6375 -2.78125,1.25 -1.556,1.931 -0.42825,3.37475 0.71875,4.84375 l 0.78125,0.96875 c 0.751,0.968 1.2365,1.691 0.6875,2.375 -0.744,0.931 -1.88,0.35125 -2.75,-0.34375 -1.598,-1.3 -1.09975,-2.4365 -0.71875,-2.9375 l -1.75,-1.40625 c -0.87,1.087 -1.828,3.38575 1.375,5.96875 0.771,0.62 3.65125,2.53825 5.78125,-0.0937 1.278,-1.577 0.56075,-2.95075 -0.40625,-4.21875 l -1.6875,-2.2188 c -0.299,-0.381 -0.7365,-0.9965 -0.1875,-1.6875 0.642,-0.788 1.673,-0.3725 2.375,0.1875 1.593,1.294 0.98475,2.35125 0.71875,2.78125 l 1.75,1.40625 c 0.859,-1.082 1.567,-3.41875 -1.125,-5.59375 -1.0665,-0.8625 -1.986332,-1.22436 -2.78125,-1.28125 z m 115.5625,0.40625 -6.59375,5.0625 6.875,8.9375 6.78125,-5.1875 -1.21875,-1.59375 -4.9375,3.8125 -1.78125,-2.3125 4.34375,-3.34375 -1.1875,-1.59375 -4.375,3.34375 -1.4375,-1.875 4.75,-3.65625 -1.21875,-1.59375 z m -109.25,4.09375 -1.09375,1.6875 2.875,1.84375 -5.0625,7.78125 1.96875,1.28125 5.0625,-7.78125 2.84375,1.875 1.09375,-1.6875 -7.6875,-5 z m 101.375,1.8125 -2,1.21875 4.21875,6.8125 c 0.457,0.734 0.794,1.472 -0.25,2.125 -1.071,0.652 -1.6275,-0.0252 -2.5625,-1.53125 l -1.875,1.15625 c 1.132,1.827 2.40175,3.854 5.59375,1.875 1.919,-1.19 2.34975,-2.80975 1.09375,-4.84375 l -4.21875,-6.8125 z m -91.5625,4.25 -8.78125,8.125 2.1875,1.15625 1.78125,-1.6875 3.6875,1.90625 -0.4375,2.40625 2.25,1.1875 1.71875,-11.84375 -2.40625,-1.25 z m 82.40625,1.375 -2.1875,0.90625 c 0.989,6.297 1.17825,7.28375 1.40625,8.34375 l -0.0312,0 c -0.789,-1.257 -1.1255,-1.781 -4.6875,-7 l -2.3125,0.96875 c 1.142,5.932 1.4265,7.05475 1.6875,8.21875 l -0.0312,0 c -0.676,-1.109 -1.10625,-1.7715 -4.78125,-6.9375 l -2.3125,0.9375 7.21875,9.21875 2.03125,-0.8125 c -1.082,-5.835 -1.21275,-6.6805 -1.71875,-8.8125 l 0.0312,0 c 1.163,1.859 1.7675,2.79275 4.9375,7.46875 L 146.9438,196.69375 145.6,185.0375 z m -77.96875,1 -0.75,1.84375 3.15625,1.3125 -3.5,8.5625 2.1875,0.90625 3.5,-8.59375 3.15625,1.28125 0.75,-1.84375 -8.5,-3.46875 z m -4.4375,0.5 -0.8125,4.59375 -2.5625,-1.3125 3.375,-3.28125 z m 13.5,3.15625 -3.15625,10.8125 8.21875,2.375 0.5625,-1.90625 -6,-1.75 0.8125,-2.78125 5.28125,1.53125 0.5625,-1.9375 -5.28125,-1.53125 0.65625,-2.28125 5.75,1.6875 0.5625,-1.90625 -7.96875,-2.3125 z m 55.28125,0.6875 -8.03125,2.09375 2.84375,10.90625 8.28125,-2.15625 -0.5,-1.90625 -6.03125,1.5625 -0.75,-2.8125 5.3125,-1.40625 -0.5,-1.90625 -5.3125,1.375 -0.59375,-2.28125 5.78125,-1.53125 -0.5,-1.9375 z m -9.40625,2.40625 -2.15625,0.3125 1.09375,7.78125 -0.0312,0 -5.53125,-7.15625 -2.4375,0.375 1.5625,11.15625 2.1875,-0.3125 -1.125,-7.96875 0.0312,0 5.6875,7.3125 2.3125,-0.34375 -1.59375,-11.15625 z M 93.9125,193.35 c -1.760432,-0.0169 -4.87575,0.65363 -5.4375,5.25 -0.642,5.252 3.2095,6.3835 4.6875,6.5625 1.479,0.186 5.45775,0.002 6.09375,-5.25 0.642,-5.248 -3.17325,-6.34625 -4.65625,-6.53125 -0.184875,-0.0224 -0.43601,-0.0288 -0.6875,-0.0312 z m 7.0625,0.9375 -0.0937,11.28125 2.34375,0.0312 0.0625,-4.75 4.9375,0.0312 0.0312,-1.96875 -4.96875,-0.0625 0.0312,-2.53125 5.65625,0.0312 0.0312,-1.96875 -8.03115,-0.0936 z M 93.85,195.35 c 0.17257,-0.006 0.342375,-0.0196 0.5,0 1.262,0.146 2.9435,1.14925 2.5625,4.28125 -0.381,3.132 -2.26925,3.7215 -3.53125,3.5625 -1.256,-0.151 -2.9475,-1.15525 -2.5625,-4.28125 0.338625,-2.74575 1.823258,-3.51778 3.03125,-3.5625 z"
   id="path44" /></svg>