<svg xmlns="http://www.w3.org/2000/svg" xmlns:xlink="http://www.w3.org/1999/xlink" xmlns:lucid="lucid" width="747" height="612"><g transform="translate(-84 -682)" lucid:page-tab-id="0_0"><path d="M100 705.84a6 6 0 0 1 6-6h248a6 6 0 0 1 6 6v248a6 6 0 0 1-6 6H106a6 6 0 0 1-6-6z" stroke="#5e5e5e" stroke-width="3" fill="#fff"/><path d="M100 705.84a6 6 0 0 1 6-6h248a6 6 0 0 1 6 6v43.72a6 6 0 0 1-6 6H106a6 6 0 0 1-6-6z" stroke="#5e5e5e" stroke-width="3" fill="#fcce14"/><use xlink:href="#a" transform="matrix(1,0,0,1,105.00000000000006,704.8419007681213) translate(48.45377604166667 29.241319444444443)"/><use xlink:href="#b" transform="matrix(1,0,0,1,105.00000000000006,704.8419007681213) translate(105.17035590277777 29.241319444444443)"/><path d="M120 785.84a6 6 0 0 1 6-6h28a6 6 0 0 1 6 6v28a6 6 0 0 1-6 6h-28a6 6 0 0 1-6-6zM180 785.84a6 6 0 0 1 6-6h148a6 6 0 0 1 6 6v28a6 6 0 0 1-6 6H186a6 6 0 0 1-6-6z" stroke="#5e5e5e" stroke-width="3" fill="#c3f7c8"/><use xlink:href="#c" transform="matrix(1,0,0,1,185,784.8419007681213) translate(55.794270833333336 22.491319444444443)"/><path d="M120 845.84a6 6 0 0 1 6-6h28a6 6 0 0 1 6 6v28a6 6 0 0 1-6 6h-28a6 6 0 0 1-6-6zM180 845.84a6 6 0 0 1 6-6h148a6 6 0 0 1 6 6v28a6 6 0 0 1-6 6H186a6 6 0 0 1-6-6z" stroke="#5e5e5e" stroke-width="3" fill="#c3f7c8"/><use xlink:href="#d" transform="matrix(1,0,0,1,185,844.8419007681213) translate(42.333984375 22.491319444444443)"/><path d="M120 905.84a6 6 0 0 1 6-6h28a6 6 0 0 1 6 6v28a6 6 0 0 1-6 6h-28a6 6 0 0 1-6-6zM180 905.84a6 6 0 0 1 6-6h148a6 6 0 0 1 6 6v28a6 6 0 0 1-6 6H186a6 6 0 0 1-6-6z" stroke="#5e5e5e" stroke-width="3" fill="#c3f7c8"/><use xlink:href="#e" transform="matrix(1,0,0,1,185,904.8419007681213) translate(60.90494791666667 22.491319444444443)"/><path d="M380 968.46a6 6 0 0 1 6-6h112a6 6 0 0 0 6-6v-8a2.3 2.3 0 0 1 4-1.54L536 978a6.67 6.67 0 0 1 0 8.92L508 1018a2.3 2.3 0 0 1-4-1.54v-8a6 6 0 0 0-6-6H386a6 6 0 0 1-6-6z" stroke="#5e5e5e" stroke-width="3" fill="#ffdda6"/><path d="M155.04 791.38l-16.86 23.15c-1.25 1.7-3.26 1.7-4.5 0l-8.72-11.97c-1.24-1.7-1.24-4.47 0-6.2 1.25-1.72 3.3-1.72 4.54 0l6.4 8.85 14.6-20.05c1.25-1.7 3.3-1.7 4.54 0 1.24 1.73 1.24 4.5 0 6.23zM155.04 851.63l-16.86 23.15c-1.25 1.7-3.26 1.7-4.5 0l-8.72-11.97c-1.24-1.7-1.24-4.46 0-6.2 1.25-1.7 3.3-1.7 4.54 0l6.4 8.86 14.6-20.06c1.25-1.7 3.3-1.7 4.54 0 1.24 1.73 1.24 4.5 0 6.23zM155.04 911.38l-16.86 23.15c-1.25 1.7-3.26 1.7-4.5 0l-8.72-11.97c-1.24-1.7-1.24-4.47 0-6.2 1.25-1.72 3.3-1.72 4.54 0l6.4 8.85 14.6-20.05c1.25-1.7 3.3-1.7 4.54 0 1.24 1.73 1.24 4.5 0 6.23z" stroke="#000" stroke-opacity="0" fill="#5e5e5e"/><path d="M560 701.8a6 6 0 0 1 6-6h248a6 6 0 0 1 6 6V1274a6 6 0 0 1-6 6H566a6 6 0 0 1-6-6zM100 1029.15a6 6 0 0 1 6-6h248a6 6 0 0 1 6 6V1274a6 6 0 0 1-6 6H106a6 6 0 0 1-6-6z" stroke="#5e5e5e" stroke-width="3" fill="#fff"/><path d="M100 1026a6 6 0 0 1 6-6h248a6 6 0 0 1 6 6v68a6 6 0 0 1-6 6H106a6 6 0 0 1-6-6z" stroke="#5e5e5e" stroke-width="3" fill="#fcce14"/><use xlink:href="#f" transform="matrix(1,0,0,1,105.00000000000003,1025) translate(62.73328993055556 29.366319444444443)"/><use xlink:href="#g" transform="matrix(1,0,0,1,105.00000000000003,1025) translate(55.75629340277777 55.40798611111111)"/><path d="M120 1126.53a6 6 0 0 1 6-6h28a6 6 0 0 1 6 6v28a6 6 0 0 1-6 6h-28a6 6 0 0 1-6-6zM180 1126.53a6 6 0 0 1 6-6h148a6 6 0 0 1 6 6v50.08a6 6 0 0 1-6 6H186a6 6 0 0 1-6-6z" stroke="#5e5e5e" stroke-width="3" fill="#c3f7c8"/><use xlink:href="#h" transform="matrix(1,0,0,1,185,1125.5313289230653) translate(46.29991319444444 20.616319444444443)"/><use xlink:href="#i" transform="matrix(1,0,0,1,185,1125.5313289230653) translate(21.73394097222223 46.65798611111111)"/><path d="M120 1209.18a6 6 0 0 1 6-6h28a6 6 0 0 1 6 6v28a6 6 0 0 1-6 6h-28a6 6 0 0 1-6-6zM180 1208.37a6 6 0 0 1 6-6h148a6 6 0 0 1 6 6v50.1a6 6 0 0 1-6 6H186a6 6 0 0 1-6-6z" stroke="#5e5e5e" stroke-width="3" fill="#c3f7c8"/><use xlink:href="#j" transform="matrix(1,0,0,1,185,1207.3729434572472) translate(16.54188368055557 20.616319444444443)"/><use xlink:href="#k" transform="matrix(1,0,0,1,185,1207.3729434572472) translate(101.06879340277777 20.616319444444443)"/><use xlink:href="#l" transform="matrix(1,0,0,1,185,1207.3729434572472) translate(39.16558159722223 46.65798611111111)"/><path d="M155.04 1132.07l-16.86 23.15c-1.25 1.7-3.26 1.7-4.5 0l-8.72-11.97c-1.24-1.7-1.24-4.47 0-6.2 1.25-1.72 3.3-1.72 4.54 0l6.4 8.85 14.6-20.06c1.25-1.7 3.3-1.7 4.54 0 1.24 1.73 1.24 4.5 0 6.23zM155.04 1214.97l-16.86 23.15c-1.25 1.7-3.26 1.7-4.5 0l-8.72-11.97c-1.24-1.7-1.24-4.47 0-6.2 1.25-1.72 3.3-1.72 4.54 0l6.4 8.85 14.6-20.05c1.25-1.7 3.3-1.7 4.54 0 1.24 1.72 1.24 4.5 0 6.22z" stroke="#000" stroke-opacity="0" fill="#5e5e5e"/><path d="M248.4 983.95c-.24-.22-.54-.34-.87-.34H236.3v-11.2c0-.35-.1-.65-.33-.87-.27-.27-.57-.38-.9-.38h-10.14c-.67 0-1.23.56-1.23 1.24v11.2h-11.23c-.67 0-1.23.58-1.23 1.25V995c0 .33.1.63.37.9.24.22.54.33.87.33h11.23v11.22c0 .34.1.64.33.87.27.26.57.37.9.37h10.14c.67 0 1.23-.57 1.23-1.25v-11.22h11.23c.67 0 1.23-.57 1.23-1.24v-10.15c0-.34-.15-.64-.37-.9z" stroke="#636363" stroke-width="2" fill="#ffdda6"/><path d="M570 967.9h240v80.17H570z" fill="none"/><use xlink:href="#m" transform="matrix(1,0,0,1,570,967.9127398222674) translate(9.397243923611114 34.53211805555556)"/><use xlink:href="#n" transform="matrix(1,0,0,1,570,967.9127398222674) translate(91.3840060763889 34.53211805555556)"/><use xlink:href="#o" transform="matrix(1,0,0,1,570,967.9127398222674) translate(129.91265190972223 34.53211805555556)"/><use xlink:href="#p" transform="matrix(1,0,0,1,570,967.9127398222674) translate(198.12554253472223 34.53211805555556)"/><use xlink:href="#q" transform="matrix(1,0,0,1,570,967.9127398222674) translate(91.72417534722223 63.177951388888886)"/><path d="M570.22 927.75h240v40.16h-240z" fill="none"/><use xlink:href="#r" transform="matrix(1,0,0,1,570.2181747306779,927.7546405903888) translate(26.56684027777777 28.85503472222222)"/><use xlink:href="#s" transform="matrix(1,0,0,1,570.2181747306779,927.7546405903888) translate(70.20399305555554 28.85503472222222)"/><use xlink:href="#t" transform="matrix(1,0,0,1,570.2181747306779,927.7546405903888) translate(161.76323784722223 28.85503472222222)"/><path d="M570.22 1048.07h240v39.84h-240z" fill="none"/><use xlink:href="#u" transform="matrix(1,0,0,1,570.2181747306779,1048.0708390541463) translate(90.69498697916667 29.874131944444443)"/><path d="M565.27 1083.88h249.46v84.58H565.27z" fill="#fff" fill-opacity="0"/><use xlink:href="#v" transform="matrix(1,0,0,1,570.2727184133473,1088.8773202951945) translate(0.3499348958333428 32.052951388888886)"/><use xlink:href="#w" transform="matrix(1,0,0,1,570.2727184133473,1088.8773202951945) translate(77.35948350694446 32.052951388888886)"/><use xlink:href="#p" transform="matrix(1,0,0,1,570.2727184133473,1088.8773202951945) translate(207.1728515625 32.052951388888886)"/><use xlink:href="#x" transform="matrix(1,0,0,1,570.2727184133473,1088.8773202951945) translate(5.345052083333343 60.698784722222214)"/><use xlink:href="#y" transform="matrix(1,0,0,1,570.2727184133473,1088.8773202951945) translate(106.142578125 60.698784722222214)"/><use xlink:href="#z" transform="matrix(1,0,0,1,570.2727184133473,1088.8773202951945) translate(147.822265625 60.698784722222214)"/><path d="M645.5 875.98l-2.6-1.3 2.6-1.4c1-.5 1.4-1.7.9-2.7-.5-1-1.7-1.4-2.7-.9l-3.3 1.6v-3.9c0-1.1-.9-2-2.1-2-1.1 0-2 .9-2 2v3.9l-3.3-1.6c-1-.5-2.3-.1-2.8.9s-.1 2.2 1 2.7l2.6 1.4-2.6 1.3c-1 .5-1.5 1.7-1 2.7.4.7 1.1 1.1 1.9 1.1.3 0 .6 0 .9-.2l3.3-1.6v3.9c0 1.1.9 2 2.1 2 1.1 0 2-.9 2-2v-3.9l3.3 1.6c.3.2.6.2.9.2.8 0 1.5-.4 1.9-1.1.4-1 0-2.2-1-2.7zM612.2 875.98l-2.6-1.3 2.6-1.4c1-.5 1.4-1.7.9-2.7-.5-1-1.8-1.4-2.8-.9l-3.3 1.6v-3.9c0-1.1-.9-2-2-2s-2.1.9-2.1 2v3.9l-3.3-1.6c-1-.5-2.2-.1-2.7.9s-.1 2.2.9 2.7l2.6 1.4-2.6 1.3c-1 .5-1.4 1.7-.9 2.7.4.7 1.1 1.1 1.8 1.1.3 0 .6 0 1-.2l3.3-1.6v3.9c0 1.1.9 2 2 2s2.1-.9 2.1-2v-3.9l3.3 1.6c.2.2.6.2.9.2.7 0 1.5-.4 1.8-1.1.5-1 .1-2.2-.9-2.7zM593.7 861.58c-.9-.7-2.2-.5-2.9.4l-6.3 8.3c-.6.9-.5 2.2.4 2.9.4.2.8.4 1.3.4.6 0 1.2-.3 1.6-.8l6.3-8.4c.7-.9.5-2.1-.4-2.8zM627 861.58c-.9-.7-2.2-.5-2.8.4l-6.3 8.3c-.7.9-.5 2.2.4 2.9.4.2.8.4 1.2.4.7 0 1.3-.3 1.7-.8l6.2-8.4c.7-.9.5-2.1-.4-2.8zM660.5 861.58c-.9-.7-2.1-.5-2.8.4l-6.3 8.3c-.7.9-.5 2.2.4 2.9.4.2.8.4 1.2.4.7 0 1.3-.3 1.7-.8l6.3-8.4c.6-.9.5-2.1-.5-2.8zM648.8 794.08c1.2 0 2.1-.9 2.1-2v-6.2c0-1.1-.9-2-2.1-2-1.1 0-2 .9-2 2v6.2c0 1.1.9 2 2 2zM665.6 800.38c.5 0 1-.2 1.4-.6l4.1-4.1c.8-.8.8-2.1 0-2.9-.8-.8-2.1-.8-2.9 0l-4.1 4.1c-.8.8-.8 2.1 0 2.9.4.4.9.6 1.5.6zM667 830.38c-.8-.8-2.1-.8-2.9 0-.8.8-.8 2.1 0 2.9l4.1 4.1c.4.4.9.6 1.4.6.6 0 1.1-.2 1.5-.6.8-.8.8-2.1 0-2.9l-4.1-4.1zM678 810.98h-6.2c-1.1 0-2 .9-2 2.1 0 1.1.9 2 2 2h6.2c1.1 0 2-.9 2-2 0-1.2-.9-2.1-2-2.1zM630.6 799.78c.4.4.9.6 1.5.6.5 0 1-.2 1.4-.6.8-.8.8-2.1 0-2.9l-4.1-4.1c-.8-.8-2.1-.8-2.9 0-.8.8-.8 2.1 0 2.9l4.1 4.1zM665.3 817.58c1.2-8.2-3.6-16.1-11.3-18.4-3.7-1.2-7.8-1-11.3.6-3.1 1.4-5.7 3.8-7.5 6.7-2.9-1.1-6.1-1.8-9.4-1.8-4.8 0-9.5 1.4-13.5 4.1-3.6 2.3-6.4 5.4-8.4 9.1-1.9-.5-3.8-.6-5.1-.6-5 0-9.7 1.9-13.3 5.4-3.6 3.5-5.5 8.2-5.5 13.3 0 10.3 8.4 18.8 18.8 18.8h27.1c13.1 0 23.9-10.2 24.9-23.1 7.4-.7 13.5-6.6 14.5-14.1zm-39.5 33.1h-27c-8.1 0-14.7-6.6-14.7-14.7s6.6-14.6 14.7-14.6c1.9 0 3.8.3 5.3.9 1 .5 2.2 0 2.6-1 3.5-7.6 11-12.4 19.1-12.4 11.6 0 21 9.3 21 20.8s-9.4 21-21 21zm25-23.2c-.7-8.1-5.3-15-11.9-19.1 3-4.8 8.6-7 13.9-5.3 5.7 1.7 9.3 7.7 8.4 13.9-.7 5.6-5.1 9.8-10.4 10.5z" stroke="#000" stroke-opacity="0" stroke-width=".31" fill="#636363"/><path d="M703.2 863.48c.7 3.2 2.9 5.5 6 6.4l.9 4h-.1v10h80v-10h-66.6c.1-.5.1-.9 0-1.4l-1-4.3 51.8-11.8 1 4.3c.5 2.4 2.9 3.9 5.3 3.4l4.3-1c2.4-.6 3.9-2.9 3.3-5.3l-1.2-5.5c2.2-2.1 3.3-5.3 2.6-8.4l-3-13c-.7-3.3-3-5.7-6.3-6.5l-10.2-16.9c-3.2-5.2-9-7.7-14.9-6.3l-39.4 8.9c-5.9 1.4-10.1 6.1-10.7 12.2l-1.9 19.6c-2.6 2.2-3.6 5.4-2.9 8.6l3 13zm15.1-3.4c-3.6.8-7.2-1.5-8-5-.8-3.6 1.5-7.2 5-8 3.6-.8 7.2 1.4 8 5 .8 3.6-1.4 7.1-5 8zm56.1-12.8c-3.6 1-7.2-1.1-8.2-4.7-1-3.5 1.1-7.1 4.7-8.1.2-.1.3-.1.5-.1 3.6-.7 7.1 1.7 7.8 5.3.6 3.4-1.5 6.7-4.8 7.6zm-56.4-27.4l39.3-9c1.6-.4 3.3.3 4.1 1.8l8 13-2.9.7-50.2 11.4-2.8.7 1.5-15.3c.1-1.6 1.3-3 3-3.3zm64-26l-7-10-2.5 15 12.5 20 15 5-10-12.7 10-4.7-10-4.6 10-18z" stroke="#000" stroke-opacity="0" fill="#636363"/><defs><path fill="#333" d="M1209-1016c0 219-100 334-260 407l315 595V0H942L669-533H430V0H130v-1456h541c318-3 538 141 538 440zm-300 24c-1-144-85-221-238-221H430v437h242c144 2 238-77 237-216" id="A"/><path fill="#333" d="M579 20C257 20 58-214 66-551c8-331 182-551 511-551 324 0 514 231 514 572 0 319-198 550-512 550zm-2-888c-169 0-222 141-222 338 0 181 61 317 224 317 170 0 223-137 223-338 0-178-64-317-225-317" id="B"/><path fill="#333" d="M552-1102c254-4 435 134 435 383v469c1 103 15 180 43 233V0H738c-13-26-23-58-29-97C639-19 548 20 436 20 238 20 64-113 68-304c5-258 212-357 496-357h133c11-137-29-227-160-227-90 0-156 45-156 131H92c15-231 213-342 460-345zM357-325c0 76 61 124 142 124 88 0 168-45 198-105v-186H589c-152 2-232 51-232 167" id="C"/><path fill="#333" d="M488 20C204 20 66-234 66-549c0-305 140-551 424-553 105 0 192 39 261 118v-552h290V0H780l-14-115C694-25 601 20 488 20zM355-528c0 176 51 314 207 314 89 0 152-38 189-113v-427c-36-75-98-113-187-113-139 0-209 113-209 339" id="D"/><g id="a"><use transform="matrix(0.010850694444444444,0,0,0.010850694444444444,0,0)" xlink:href="#A"/><use transform="matrix(0.010850694444444444,0,0,0.010850694444444444,14.181857638888888,0)" xlink:href="#B"/><use transform="matrix(0.010850694444444444,0,0,0.010850694444444444,26.746961805555554,0)" xlink:href="#C"/><use transform="matrix(0.010850694444444444,0,0,0.010850694444444444,38.66102430555556,0)" xlink:href="#D"/></g><path fill="#333" d="M687-225c189-1 272-84 286-260h300c-19 311-251 505-586 505C296 20 86-277 86-686c0-466 174-782 605-790 340-6 557 198 584 514H975c-15-183-92-268-284-268-100 0-173 38-225 108-63 84-76 264-76 443 0 157 24 272 72 345s122 109 225 109" id="E"/><path fill="#333" d="M750-692c-1-124-48-174-173-175-81 0-142 35-183 104V0H105v-1082h272l9 125c77-97 181-145 311-145 244 0 342 151 342 403V0H750v-692" id="F"/><path fill="#333" d="M416 0H126v-1082h290V0zM271-1212c-92 0-162-61-162-150s68-149 162-149c93 0 162 60 162 149s-70 150-162 150" id="G"/><path fill="#333" d="M457-330c2 83 25 111 111 112 32 0 60-2 85-7V-6c-57 17-115 26-175 26-203 0-310-102-310-307v-583H10v-212h158v-266h289v266h185v212H457v540" id="H"/><g id="b"><use transform="matrix(0.010850694444444444,0,0,0.010850694444444444,0,0)" xlink:href="#E"/><use transform="matrix(0.010850694444444444,0,0,0.010850694444444444,14.539930555555555,0)" xlink:href="#B"/><use transform="matrix(0.010850694444444444,0,0,0.010850694444444444,27.10503472222222,0)" xlink:href="#F"/><use transform="matrix(0.010850694444444444,0,0,0.010850694444444444,39.55078125,0)" xlink:href="#D"/><use transform="matrix(0.010850694444444444,0,0,0.010850694444444444,52.072482638888886,0)" xlink:href="#G"/><use transform="matrix(0.010850694444444444,0,0,0.010850694444444444,57.96440972222222,0)" xlink:href="#H"/><use transform="matrix(0.010850694444444444,0,0,0.010850694444444444,65.47309027777777,0)" xlink:href="#G"/><use transform="matrix(0.010850694444444444,0,0,0.010850694444444444,71.3650173611111,0)" xlink:href="#B"/><use transform="matrix(0.010850694444444444,0,0,0.010850694444444444,83.93012152777777,0)" xlink:href="#F"/></g><path fill="#333" d="M483-459l28 192 41-173 288-1016h162l281 1016 40 176 31-196 226-996h193L1420 0h-175L945-1061l-23-111-23 111L588 0H413L61-1456h192" id="I"/><path fill="#333" d="M599-131c141 0 220-65 285-146l113 88C906-50 770 20 589 20 281 21 93-214 93-545c0-223 93-397 233-485 74-48 154-72 240-72 300 2 449 218 445 537v77H278c0 197 129 357 321 357zm227-509c-3-180-88-310-260-310-170 0-264 140-282 310h542" id="J"/><path fill="#333" d="M456 20C285 20 205-92 206-268v-671H9v-143h197v-262h185v262h202v143H391v671c-9 125 92 149 207 118V0c-49 13-96 20-142 20" id="K"/><g id="c"><use transform="matrix(0.010850694444444444,0,0,0.010850694444444444,0,0)" xlink:href="#I"/><use transform="matrix(0.010850694444444444,0,0,0.010850694444444444,19.379340277777775,0)" xlink:href="#J"/><use transform="matrix(0.010850694444444444,0,0,0.010850694444444444,31.15234375,0)" xlink:href="#K"/></g><path fill="#333" d="M631-137c179 0 314-70 314-231 0-71-25-127-75-166s-141-77-272-115c-165-47-285-106-360-175s-112-154-112-255c0-245 231-397 495-397 206 0 369 89 449 218 43 68 65 142 65 223H942c0-184-129-283-321-283-172 0-299 76-301 236 0 59 26 109 76 150s135 78 256 113c205 59 345 116 436 256 35 53 50 119 50 193-2 256-231 398-507 390C333 12 90-129 80-422h193c0 187 160 285 358 285" id="L"/><path fill="#333" d="M589-945c-131 0-219 81-264 174V0H140v-1082h175l6 136c83-104 191-156 324-156 229 0 346 129 346 387V0H806v-716c-2-153-65-229-217-229" id="M"/><path fill="#333" d="M584 20C278 26 81-227 91-551c10-320 175-545 491-551 308-5 503 247 494 573-9 322-175 543-492 549zm-2-970c-208 0-305 185-305 421 0 216 106 398 307 398 211 0 307-186 307-420 0-214-109-399-309-399" id="N"/><path fill="#333" d="M1098-255l208-827h185L1176 0h-150L763-820 507 0H357L43-1082h184l213 810 252-810h149" id="O"/><path fill="#333" d="M494-271l252-811h198L509 167C425 381 299 474 84 421V271c167 16 242-37 283-173l41-110L22-1082h202" id="P"/><g id="d"><use transform="matrix(0.010850694444444444,0,0,0.010850694444444444,0,0)" xlink:href="#L"/><use transform="matrix(0.010850694444444444,0,0,0.010850694444444444,13.18359375,0)" xlink:href="#M"/><use transform="matrix(0.010850694444444444,0,0,0.010850694444444444,25.44487847222222,0)" xlink:href="#N"/><use transform="matrix(0.010850694444444444,0,0,0.010850694444444444,38.11848958333333,0)" xlink:href="#O"/><use transform="matrix(0.010850694444444444,0,0,0.010850694444444444,54.81770833333333,0)" xlink:href="#P"/></g><path fill="#333" d="M375 0H183v-1456h192V0" id="Q"/><path fill="#333" d="M277-555c0 244 77 420 297 424 127 2 249-93 255-210h175C980-127 805 20 574 20 258 20 81-222 92-562c11-319 164-533 481-540 237-5 426 165 431 392H829c-7-133-115-242-256-240-209 4-296 166-296 395" id="R"/><g id="e"><use transform="matrix(0.010850694444444444,0,0,0.010850694444444444,0,0)" xlink:href="#Q"/><use transform="matrix(0.010850694444444444,0,0,0.010850694444444444,6.043836805555555,0)" xlink:href="#R"/><use transform="matrix(0.010850694444444444,0,0,0.010850694444444444,17.67578125,0)" xlink:href="#P"/></g><path fill="#333" d="M719-811c-143-24-279 1-319 103V0H111v-1082h273l8 129c74-124 180-175 331-136" id="S"/><path fill="#333" d="M663-1102c295 0 423 246 423 571 0 313-131 551-421 551-117 0-211-45-281-135L371 0H111v-1536h289v551c67-78 154-117 263-117zm-71 889c164 0 209-139 205-339-3-189-44-315-207-315-92 0-155 38-190 113v427c35 76 99 114 192 114" id="T"/><path fill="#333" d="M463 20c-241-1-359-147-359-393v-709h289v699c0 113 51 169 154 169 98 0 165-34 202-102v-766h290V0H767l-8-110C688-23 589 20 463 20" id="U"/><path fill="#333" d="M505 20C221 18 69-239 69-549c0-302 153-553 438-553 119 0 211 41 277 122l12-102h262V-36c-8 305-208 458-520 462-160 1-335-76-403-170L263 80c72 81 159 121 262 121 172 1 260-107 243-294C701-18 614 20 505 20zm76-887c-165 0-223 147-223 339 0 172 66 314 221 314 88 0 151-33 189-99v-455c-39-66-101-99-187-99" id="V"/><g id="f"><use transform="matrix(0.010850694444444444,0,0,0.010850694444444444,0,0)" xlink:href="#E"/><use transform="matrix(0.010850694444444444,0,0,0.010850694444444444,14.539930555555555,0)" xlink:href="#B"/><use transform="matrix(0.010850694444444444,0,0,0.010850694444444444,27.10503472222222,0)" xlink:href="#F"/><use transform="matrix(0.010850694444444444,0,0,0.010850694444444444,39.55078125,0)" xlink:href="#H"/><use transform="matrix(0.010850694444444444,0,0,0.010850694444444444,47.05946180555556,0)" xlink:href="#S"/><use transform="matrix(0.010850694444444444,0,0,0.010850694444444444,55.16493055555556,0)" xlink:href="#G"/><use transform="matrix(0.010850694444444444,0,0,0.010850694444444444,61.0568576388889,0)" xlink:href="#T"/><use transform="matrix(0.010850694444444444,0,0,0.010850694444444444,73.56770833333334,0)" xlink:href="#U"/><use transform="matrix(0.010850694444444444,0,0,0.010850694444444444,86.00260416666667,0)" xlink:href="#H"/><use transform="matrix(0.010850694444444444,0,0,0.010850694444444444,93.51128472222221,0)" xlink:href="#G"/><use transform="matrix(0.010850694444444444,0,0,0.010850694444444444,99.40321180555556,0)" xlink:href="#F"/><use transform="matrix(0.010850694444444444,0,0,0.010850694444444444,111.84895833333333,0)" xlink:href="#V"/></g><path fill="#333" d="M355-556c-2 203 30 338 206 343 102 3 181-63 182-161h271C1001-128 821 17 566 20 242 24 66-212 66-554c0-320 184-548 498-548 262 0 451 167 450 423H743c-1-108-75-193-184-189-162 6-202 123-204 312" id="W"/><path fill="#333" d="M741-689c-2-124-40-177-163-178-82 0-141 34-178 102V0H111v-1082h271l9 121c77-94 180-141 311-141 139 0 235 55 287 165 76-110 184-165 325-165 249 0 348 151 348 411V0h-290v-690c-2-123-39-176-163-177-87 0-147 41-180 124l1 743H741v-689" id="X"/><path fill="#333" d="M529-185c94 0 168-33 168-114 0-35-18-63-53-83s-91-39-168-55C219-491 90-600 90-765c0-208 203-337 432-337 246 0 451 124 453 349H686c-2-91-62-143-165-143-86 0-151 41-153 117 0 32 16 57 46 77 63 43 257 69 335 100 151 60 229 153 229 291C978-13 554 93 282-28 162-81 60-190 56-344h274c5 106 86 159 199 159" id="Y"/><path fill="#333" d="M1031-175C952-60 797 20 609 20 287 20 60-206 72-543c12-330 180-559 505-559 309 0 482 214 477 537v118H365c15 134 115 234 263 234 111 0 198-40 261-121zM770-644c5-139-62-226-194-224-130 1-191 97-208 224h402" id="Z"/><g id="g"><use transform="matrix(0.010850694444444444,0,0,0.010850694444444444,0,0)" xlink:href="#E"/><use transform="matrix(0.010850694444444444,0,0,0.010850694444444444,14.539930555555555,0)" xlink:href="#G"/><use transform="matrix(0.010850694444444444,0,0,0.010850694444444444,20.43185763888889,0)" xlink:href="#S"/><use transform="matrix(0.010850694444444444,0,0,0.010850694444444444,28.33116319444445,0)" xlink:href="#W"/><use transform="matrix(0.010850694444444444,0,0,0.010850694444444444,39.919704861111114,0)" xlink:href="#U"/><use transform="matrix(0.010850694444444444,0,0,0.010850694444444444,52.35460069444444,0)" xlink:href="#X"/><use transform="matrix(0.010850694444444444,0,0,0.010850694444444444,71.59288194444444,0)" xlink:href="#Y"/><use transform="matrix(0.010850694444444444,0,0,0.010850694444444444,83.01866319444444,0)" xlink:href="#H"/><use transform="matrix(0.010850694444444444,0,0,0.010850694444444444,90.52734375,0)" xlink:href="#C"/><use transform="matrix(0.010850694444444444,0,0,0.010850694444444444,102.44140625,0)" xlink:href="#F"/><use transform="matrix(0.010850694444444444,0,0,0.010850694444444444,114.88715277777777,0)" xlink:href="#W"/><use transform="matrix(0.010850694444444444,0,0,0.010850694444444444,126.47569444444444,0)" xlink:href="#Z"/></g><path fill="#333" d="M1222-777c17 480-206 763-650 777H169v-1456h411c408 9 627 269 642 679zm-190 4c3-312-149-522-447-525H361v1141h202c308 0 473-209 469-531v-85" id="aa"/><path fill="#333" d="M663-916c-163-27-288 18-338 148V0H140v-1082h180l3 125c61-97 147-145 258-145 36 0 63 5 82 14v172" id="ab"/><path fill="#333" d="M341 0H156v-1082h185V0zm-91-1264c-68 0-108-42-109-105 0-62 41-107 109-107s110 44 110 107-42 105-110 105" id="ac"/><path fill="#333" d="M497-251l268-831h189L566 0H425L33-1082h189" id="ad"/><g id="h"><use transform="matrix(0.010850694444444444,0,0,0.010850694444444444,0,0)" xlink:href="#aa"/><use transform="matrix(0.010850694444444444,0,0,0.010850694444444444,14.572482638888888,0)" xlink:href="#ab"/><use transform="matrix(0.010850694444444444,0,0,0.010850694444444444,22.092013888888886,0)" xlink:href="#ac"/><use transform="matrix(0.010850694444444444,0,0,0.010850694444444444,27.48480902777778,0)" xlink:href="#ad"/><use transform="matrix(0.010850694444444444,0,0,0.010850694444444444,38.107638888888886,0)" xlink:href="#J"/><use transform="matrix(0.010850694444444444,0,0,0.010850694444444444,49.88064236111111,0)" xlink:href="#ab"/></g><path fill="#333" d="M561-1102c238-4 403 126 403 351v498c0 99 13 178 38 237V0H808c-11-21-19-59-26-114C696-25 593 20 474 20c-199 0-368-130-365-320 4-251 214-359 490-356h180v-85c-1-135-86-212-229-212-115 0-232 67-233 171H131c20-205 206-316 430-320zM294-326c0 117 90 185 207 185 122 0 239-75 278-162v-222H634c-227 0-340 66-340 199" id="ae"/><g id="i"><use transform="matrix(0.010850694444444444,0,0,0.010850694444444444,0,0)" xlink:href="#Q"/><use transform="matrix(0.010850694444444444,0,0,0.010850694444444444,6.043836805555555,0)" xlink:href="#M"/><use transform="matrix(0.010850694444444444,0,0,0.010850694444444444,18.30512152777778,0)" xlink:href="#ae"/><use transform="matrix(0.010850694444444444,0,0,0.010850694444444444,30.39279513888889,0)" xlink:href="#K"/><use transform="matrix(0.010850694444444444,0,0,0.010850694444444444,37.65190972222222,0)" xlink:href="#K"/><use transform="matrix(0.010850694444444444,0,0,0.010850694444444444,44.91102430555556,0)" xlink:href="#J"/><use transform="matrix(0.010850694444444444,0,0,0.010850694444444444,56.68402777777778,0)" xlink:href="#M"/><use transform="matrix(0.010850694444444444,0,0,0.010850694444444444,68.9453125,0)" xlink:href="#K"/><use transform="matrix(0.010850694444444444,0,0,0.010850694444444444,76.20442708333333,0)" xlink:href="#ac"/><use transform="matrix(0.010850694444444444,0,0,0.010850694444444444,81.59722222222221,0)" xlink:href="#N"/><use transform="matrix(0.010850694444444444,0,0,0.010850694444444444,94.27083333333333,0)" xlink:href="#M"/></g><path fill="#333" d="M1216-1011c-1 297-202 441-512 441H361V0H169v-1456h537c297-6 510 164 510 445zm-192 2c1-178-126-288-307-289H361v571h345c196 1 318-92 318-282" id="af"/><path fill="#333" d="M538-131c121 0 232-49 232-156 0-50-20-88-56-117-73-60-334-92-420-143-92-55-162-110-162-238 0-190 192-317 400-317 223 0 414 129 413 338H759c0-108-110-186-227-186-119 0-215 53-215 159 0 45 18 78 53 101 76 52 331 90 416 139 98 57 169 115 169 251C955-92 760 20 538 20c-176 0-314-68-386-174-38-55-57-115-57-179h185c6 129 116 202 258 202" id="ag"/><path fill="#333" d="M521 20C240 20 96-239 96-550c0-303 147-552 427-552 132 0 235 47 309 140l9-120h169V-26c4 277-183 454-459 452-165-1-334-81-400-187l96-111c79 98 176 147 291 147 180 1 288-109 286-290v-93C750-23 649 20 521 20zm48-965c-209 0-287 178-287 416 0 217 86 392 285 392 117 0 202-53 257-159v-494c-57-103-142-155-255-155" id="ah"/><g id="j"><use transform="matrix(0.010850694444444444,0,0,0.010850694444444444,0,0)" xlink:href="#af"/><use transform="matrix(0.010850694444444444,0,0,0.010850694444444444,13.899739583333332,0)" xlink:href="#ae"/><use transform="matrix(0.010850694444444444,0,0,0.010850694444444444,25.987413194444443,0)" xlink:href="#ag"/><use transform="matrix(0.010850694444444444,0,0,0.010850694444444444,37.44574652777777,0)" xlink:href="#ag"/><use transform="matrix(0.010850694444444444,0,0,0.010850694444444444,48.9040798611111,0)" xlink:href="#ac"/><use transform="matrix(0.010850694444444444,0,0,0.010850694444444444,54.296874999999986,0)" xlink:href="#M"/><use transform="matrix(0.010850694444444444,0,0,0.010850694444444444,66.5581597222222,0)" xlink:href="#ah"/></g><g id="k"><use transform="matrix(0.010850694444444444,0,0,0.010850694444444444,0,0)" xlink:href="#K"/><use transform="matrix(0.010850694444444444,0,0,0.010850694444444444,7.042100694444444,0)" xlink:href="#N"/><use transform="matrix(0.010850694444444444,0,0,0.010850694444444444,19.715711805555554,0)" xlink:href="#N"/></g><path fill="#333" d="M688-137c238 0 323-102 359-325h193c-32 297-228 482-552 482-361 0-569-299-569-680 0-197 8-360 73-497 88-186 257-317 513-319 316-2 509 195 535 488h-193c-31-212-118-330-342-330-272 0-397 224-393 523v141c-3 282 115 517 376 517" id="ai"/><path fill="#333" d="M341 0H156v-1536h185V0" id="aj"/><g id="l"><use transform="matrix(0.010850694444444444,0,0,0.010850694444444444,0,0)" xlink:href="#ai"/><use transform="matrix(0.010850694444444444,0,0,0.010850694444444444,14.463975694444445,0)" xlink:href="#aj"/><use transform="matrix(0.010850694444444444,0,0,0.010850694444444444,19.856770833333332,0)" xlink:href="#N"/><use transform="matrix(0.010850694444444444,0,0,0.010850694444444444,32.53038194444444,0)" xlink:href="#ag"/><use transform="matrix(0.010850694444444444,0,0,0.010850694444444444,43.98871527777777,0)" xlink:href="#J"/><use transform="matrix(0.010850694444444444,0,0,0.010850694444444444,55.761718749999986,0)" xlink:href="#aj"/><use transform="matrix(0.010850694444444444,0,0,0.010850694444444444,61.15451388888888,0)" xlink:href="#P"/></g><path fill="#333" d="M277-1536c5 179-19 330-30 494H136l1-494h140zm270 0c5 179-19 330-30 494H406l1-494h140" id="ak"/><g id="m"><use transform="matrix(0.011935763888888888,0,0,0.011935763888888888,0,0)" xlink:href="#ak"/><use transform="matrix(0.011935763888888888,0,0,0.011935763888888888,7.817925347222221,0)" xlink:href="#L"/><use transform="matrix(0.011935763888888888,0,0,0.011935763888888888,22.31987847222222,0)" xlink:href="#M"/><use transform="matrix(0.011935763888888888,0,0,0.011935763888888888,35.807291666666664,0)" xlink:href="#N"/><use transform="matrix(0.011935763888888888,0,0,0.011935763888888888,49.748263888888886,0)" xlink:href="#O"/><use transform="matrix(0.011935763888888888,0,0,0.011935763888888888,68.11740451388889,0)" xlink:href="#ak"/></g><path fill="#333" d="M1248-1138c106 220 104 603 2 820-91 195-274 338-542 338C281 20 86-300 86-759c0-291 115-515 296-629 182-114 467-115 648 0 94 60 166 141 218 250zM940-344c111-153 110-617 0-765-57-77-133-119-234-119s-177 41-233 118c-64 88-83 240-83 415 0 149 27 264 82 346s133 123 236 123c101 0 176-40 232-118" id="al"/><g id="n"><use transform="matrix(0.011935763888888888,0,0,0.011935763888888888,0,0)" xlink:href="#al"/><use transform="matrix(0.011935763888888888,0,0,0.011935763888888888,16.87717013888889,0)" xlink:href="#A"/></g><path fill="#333" d="M1161-1018c0 201-122 330-278 388l342 618V0h-206L703-589H361V0H168v-1456h482c310-2 511 139 511 438zm-193 0c0-187-120-280-313-280H361v552h295c179 3 313-101 312-272" id="am"/><g id="o"><use transform="matrix(0.011935763888888888,0,0,0.011935763888888888,0,0)" xlink:href="#ak"/><use transform="matrix(0.011935763888888888,0,0,0.011935763888888888,7.817925347222221,0)" xlink:href="#am"/><use transform="matrix(0.011935763888888888,0,0,0.011935763888888888,22.868923611111107,0)" xlink:href="#ae"/><use transform="matrix(0.011935763888888888,0,0,0.011935763888888888,36.16536458333333,0)" xlink:href="#ac"/><use transform="matrix(0.011935763888888888,0,0,0.011935763888888888,42.09743923611111,0)" xlink:href="#M"/><use transform="matrix(0.011935763888888888,0,0,0.011935763888888888,54.34353298611111,0)" xlink:href="#ak"/></g><g id="p"><use transform="matrix(0.011935763888888888,0,0,0.011935763888888888,0,0)" xlink:href="#al"/><use transform="matrix(0.011935763888888888,0,0,0.011935763888888888,16.87717013888889,0)" xlink:href="#A"/></g><path fill="#333" d="M972-643H361V0H169v-1456h902v158H361v498h611v157" id="an"/><g id="q"><use transform="matrix(0.011935763888888888,0,0,0.011935763888888888,0,0)" xlink:href="#ak"/><use transform="matrix(0.011935763888888888,0,0,0.011935763888888888,7.817925347222221,0)" xlink:href="#an"/><use transform="matrix(0.011935763888888888,0,0,0.011935763888888888,21.078559027777775,0)" xlink:href="#N"/><use transform="matrix(0.011935763888888888,0,0,0.011935763888888888,35.01953125,0)" xlink:href="#ah"/><use transform="matrix(0.011935763888888888,0,0,0.011935763888888888,48.73372395833333,0)" xlink:href="#ak"/></g><path fill="#333" d="M730-137c145 0 253-29 323-105v-327H716v-156h528v534C1148-51 964 20 729 20c-394 0-598-279-607-678v-127c-5-410 194-690 585-691 310-1 499 171 537 447h-192c-36-193-151-289-344-289-285 0-393 220-393 528v119c-5 296 140 534 415 534" id="ao"/><g id="r"><use transform="matrix(0.011935763888888888,0,0,0.011935763888888888,0,0)" xlink:href="#ao"/><use transform="matrix(0.011935763888888888,0,0,0.011935763888888888,16.650390625,0)" xlink:href="#J"/><use transform="matrix(0.011935763888888888,0,0,0.011935763888888888,29.600694444444443,0)" xlink:href="#K"/></g><path fill="#333" d="M589-945c-131 0-219 81-264 174V0H140v-1536h185v585c82-101 189-151 320-151 229 0 346 129 346 387V0H806v-716c-2-153-65-229-217-229" id="ap"/><g id="s"><use transform="matrix(0.011935763888888888,0,0,0.011935763888888888,0,0)" xlink:href="#R"/><use transform="matrix(0.011935763888888888,0,0,0.011935763888888888,12.795138888888888,0)" xlink:href="#ab"/><use transform="matrix(0.011935763888888888,0,0,0.011935763888888888,20.589192708333332,0)" xlink:href="#ae"/><use transform="matrix(0.011935763888888888,0,0,0.011935763888888888,33.88563368055556,0)" xlink:href="#ag"/><use transform="matrix(0.011935763888888888,0,0,0.011935763888888888,46.48980034722222,0)" xlink:href="#ap"/><use transform="matrix(0.011935763888888888,0,0,0.011935763888888888,59.953342013888886,0)" xlink:href="#J"/><use transform="matrix(0.011935763888888888,0,0,0.011935763888888888,72.90364583333333,0)" xlink:href="#ag"/></g><path fill="#333" d="M248 11c-71 0-114-43-114-108 0-67 42-112 114-112s116 45 116 112c-1 65-45 108-116 108zm1-883c-71 0-114-43-114-108 0-67 42-112 114-112s116 45 116 112c-1 65-45 108-116 108" id="aq"/><g id="t"><use transform="matrix(0.011935763888888888,0,0,0.011935763888888888,0,0)" xlink:href="#O"/><use transform="matrix(0.011935763888888888,0,0,0.011935763888888888,18.369140625,0)" xlink:href="#ac"/><use transform="matrix(0.011935763888888888,0,0,0.011935763888888888,24.30121527777778,0)" xlink:href="#K"/><use transform="matrix(0.011935763888888888,0,0,0.011935763888888888,32.28624131944444,0)" xlink:href="#ap"/><use transform="matrix(0.011935763888888888,0,0,0.011935763888888888,45.74978298611111,0)" xlink:href="#aq"/></g><path fill="#333" d="M952-300H426L326 0H7l542-1456h278L1372 0h-319zM507-543h364l-183-545" id="ar"/><path fill="#333" d="M1314 0h-300L430-958V0H130v-1456h300l585 960v-960h299V0" id="as"/><path fill="#333" d="M130 0v-1456h448c435 14 673 299 665 762-5 285-130 500-319 606C822-31 708 0 581 0H130zm809-685c9-311-79-526-361-528H430v972h145c252-2 356-181 364-444" id="at"/><g id="u"><use transform="matrix(0.014105902777777776,0,0,0.014105902777777776,0,0)" xlink:href="#ar"/><use transform="matrix(0.014105902777777776,0,0,0.014105902777777776,19.437934027777775,0)" xlink:href="#as"/><use transform="matrix(0.014105902777777776,0,0,0.014105902777777776,39.83506944444444,0)" xlink:href="#at"/></g><g id="v"><use transform="matrix(0.011935763888888888,0,0,0.011935763888888888,0,0)" xlink:href="#ak"/><use transform="matrix(0.011935763888888888,0,0,0.011935763888888888,7.817925347222221,0)" xlink:href="#aa"/><use transform="matrix(0.011935763888888888,0,0,0.011935763888888888,23.847656249999996,0)" xlink:href="#ab"/><use transform="matrix(0.011935763888888888,0,0,0.011935763888888888,32.119140625,0)" xlink:href="#ac"/><use transform="matrix(0.011935763888888888,0,0,0.011935763888888888,38.05121527777778,0)" xlink:href="#ad"/><use transform="matrix(0.011935763888888888,0,0,0.011935763888888888,49.736328125,0)" xlink:href="#J"/><use transform="matrix(0.011935763888888888,0,0,0.011935763888888888,62.68663194444444,0)" xlink:href="#ab"/></g><g id="w"><use transform="matrix(0.011935763888888888,0,0,0.011935763888888888,0,0)" xlink:href="#Q"/><use transform="matrix(0.011935763888888888,0,0,0.011935763888888888,6.648220486111111,0)" xlink:href="#M"/><use transform="matrix(0.011935763888888888,0,0,0.011935763888888888,20.135633680555554,0)" xlink:href="#ae"/><use transform="matrix(0.011935763888888888,0,0,0.011935763888888888,33.43207465277777,0)" xlink:href="#K"/><use transform="matrix(0.011935763888888888,0,0,0.011935763888888888,41.417100694444436,0)" xlink:href="#K"/><use transform="matrix(0.011935763888888888,0,0,0.011935763888888888,49.4021267361111,0)" xlink:href="#J"/><use transform="matrix(0.011935763888888888,0,0,0.011935763888888888,62.35243055555554,0)" xlink:href="#M"/><use transform="matrix(0.011935763888888888,0,0,0.011935763888888888,75.83984374999999,0)" xlink:href="#K"/><use transform="matrix(0.011935763888888888,0,0,0.011935763888888888,83.82486979166666,0)" xlink:href="#ac"/><use transform="matrix(0.011935763888888888,0,0,0.011935763888888888,89.75694444444443,0)" xlink:href="#N"/><use transform="matrix(0.011935763888888888,0,0,0.011935763888888888,103.69791666666666,0)" xlink:href="#M"/><use transform="matrix(0.011935763888888888,0,0,0.011935763888888888,115.94401041666666,0)" xlink:href="#ak"/></g><g id="x"><use transform="matrix(0.011935763888888888,0,0,0.011935763888888888,0,0)" xlink:href="#ak"/><use transform="matrix(0.011935763888888888,0,0,0.011935763888888888,7.817925347222221,0)" xlink:href="#af"/><use transform="matrix(0.011935763888888888,0,0,0.011935763888888888,23.107638888888886,0)" xlink:href="#ae"/><use transform="matrix(0.011935763888888888,0,0,0.011935763888888888,36.40407986111111,0)" xlink:href="#ag"/><use transform="matrix(0.011935763888888888,0,0,0.011935763888888888,49.00824652777777,0)" xlink:href="#ag"/><use transform="matrix(0.011935763888888888,0,0,0.011935763888888888,61.61241319444444,0)" xlink:href="#ac"/><use transform="matrix(0.011935763888888888,0,0,0.011935763888888888,67.54448784722221,0)" xlink:href="#M"/><use transform="matrix(0.011935763888888888,0,0,0.011935763888888888,81.03190104166666,0)" xlink:href="#ah"/></g><g id="y"><use transform="matrix(0.011935763888888888,0,0,0.011935763888888888,0,0)" xlink:href="#K"/><use transform="matrix(0.011935763888888888,0,0,0.011935763888888888,7.746310763888888,0)" xlink:href="#N"/><use transform="matrix(0.011935763888888888,0,0,0.011935763888888888,21.68728298611111,0)" xlink:href="#N"/></g><g id="z"><use transform="matrix(0.011935763888888888,0,0,0.011935763888888888,0,0)" xlink:href="#ai"/><use transform="matrix(0.011935763888888888,0,0,0.011935763888888888,15.910373263888888,0)" xlink:href="#aj"/><use transform="matrix(0.011935763888888888,0,0,0.011935763888888888,21.842447916666664,0)" xlink:href="#N"/><use transform="matrix(0.011935763888888888,0,0,0.011935763888888888,35.783420138888886,0)" xlink:href="#ag"/><use transform="matrix(0.011935763888888888,0,0,0.011935763888888888,48.38758680555555,0)" xlink:href="#J"/><use transform="matrix(0.011935763888888888,0,0,0.011935763888888888,61.33789062499999,0)" xlink:href="#aj"/><use transform="matrix(0.011935763888888888,0,0,0.011935763888888888,67.26996527777777,0)" xlink:href="#P"/><use transform="matrix(0.011935763888888888,0,0,0.011935763888888888,79.01475694444443,0)" xlink:href="#ak"/></g></defs></g></svg>