<svg xmlns="http://www.w3.org/2000/svg" xmlns:xlink="http://www.w3.org/1999/xlink" xmlns:lucid="lucid" width="752" height="297"><g transform="translate(-84 -381)" lucid:page-tab-id="0_0"><path d="M560 701.8a6 6 0 0 1 6-6h248a6 6 0 0 1 6 6V1274a6 6 0 0 1-6 6H566a6 6 0 0 1-6-6zM100 406a6 6 0 0 1 6-6h248a6 6 0 0 1 6 6v248a6 6 0 0 1-6 6H106a6 6 0 0 1-6-6z" stroke="#5e5e5e" stroke-width="3" fill="#fff"/><path d="M100 406a6 6 0 0 1 6-6h248a6 6 0 0 1 6 6v43.7a6 6 0 0 1-6 6H106a6 6 0 0 1-6-6z" stroke="#5e5e5e" stroke-width="3" fill="#fcce14"/><use xlink:href="#a" transform="matrix(1,0,0,1,105.00000000000003,405) translate(52.902560763888886 29.241319444444443)"/><path d="M120 486a6 6 0 0 1 6-6h28a6 6 0 0 1 6 6v28a6 6 0 0 1-6 6h-28a6 6 0 0 1-6-6zM180 486a6 6 0 0 1 6-6h148a6 6 0 0 1 6 6v28a6 6 0 0 1-6 6H186a6 6 0 0 1-6-6z" stroke="#5e5e5e" stroke-width="3" fill="#c3f7c8"/><use xlink:href="#b" transform="matrix(1,0,0,1,185,485) translate(47.591145833333336 22.491319444444443)"/><path d="M120 546a6 6 0 0 1 6-6h28a6 6 0 0 1 6 6v28a6 6 0 0 1-6 6h-28a6 6 0 0 1-6-6zM180 546a6 6 0 0 1 6-6h148a6 6 0 0 1 6 6v28a6 6 0 0 1-6 6H186a6 6 0 0 1-6-6z" stroke="#5e5e5e" stroke-width="3" fill="#c3f7c8"/><use xlink:href="#c" transform="matrix(1,0,0,1,185,545) translate(53.287760416666664 22.491319444444443)"/><path d="M120 606a6 6 0 0 1 6-6h28a6 6 0 0 1 6 6v28a6 6 0 0 1-6 6h-28a6 6 0 0 1-6-6zM180 606a6 6 0 0 1 6-6h148a6 6 0 0 1 6 6v28a6 6 0 0 1-6 6H186a6 6 0 0 1-6-6z" stroke="#5e5e5e" stroke-width="3" fill="#c3f7c8"/><use xlink:href="#d" transform="matrix(1,0,0,1,185,605) translate(56.40190972222223 22.491319444444443)"/><path d="M380 526a6 6 0 0 1 6-6h112a6 6 0 0 0 6-6v-8a2.3 2.3 0 0 1 4-1.54l28 31.08a6.67 6.67 0 0 1 0 8.92l-28 31.08a2.3 2.3 0 0 1-4-1.54v-8a6 6 0 0 0-6-6H386a6 6 0 0 1-6-6z" stroke="#5e5e5e" stroke-width="3" fill="#ffdda6"/><path d="M155.04 491.54l-16.86 23.15c-1.25 1.68-3.26 1.68-4.5 0l-8.72-12c-1.24-1.68-1.24-4.46 0-6.18 1.25-1.72 3.3-1.72 4.54 0l6.4 8.84 14.6-20.05c1.25-1.68 3.3-1.68 4.54 0 1.24 1.74 1.24 4.5 0 6.24zM155.04 551.8l-16.86 23.14c-1.25 1.7-3.26 1.7-4.5 0l-8.72-11.98c-1.24-1.7-1.24-4.47 0-6.2 1.25-1.7 3.3-1.7 4.54 0l6.4 8.85 14.6-20.04c1.25-1.7 3.3-1.7 4.54 0 1.24 1.73 1.24 4.5 0 6.23zM155.04 611.54l-16.86 23.15c-1.25 1.68-3.26 1.68-4.5 0l-8.72-12c-1.24-1.68-1.24-4.46 0-6.18 1.25-1.72 3.3-1.72 4.54 0l6.4 8.84 14.6-20.05c1.25-1.68 3.3-1.68 4.54 0 1.24 1.74 1.24 4.5 0 6.24z" stroke="#000" stroke-opacity="0" fill="#5e5e5e"/><path d="M560 401.96a6 6 0 0 1 6-6h248a6 6 0 0 1 6 6V654a6 6 0 0 1-6 6H566a6 6 0 0 1-6-6z" stroke="#5e5e5e" stroke-width="3" fill="#fff"/><use xlink:href="#e" transform="matrix(1,0,0,1,565,400.96458047292685) translate(125 46.584201388888886)"/><use xlink:href="#f" transform="matrix(1,0,0,1,565,400.96458047292685) translate(125 75.23003472222221)"/><use xlink:href="#f" transform="matrix(1,0,0,1,565,400.96458047292685) translate(125 103.87586805555554)"/><use xlink:href="#f" transform="matrix(1,0,0,1,565,400.96458047292685) translate(125 132.52170138888886)"/><use xlink:href="#g" transform="matrix(1,0,0,1,565,400.96458047292685) translate(34.526909722222214 161.1675347222222)"/><use xlink:href="#h" transform="matrix(1,0,0,1,565,400.96458047292685) translate(78.16406249999999 161.1675347222222)"/><use xlink:href="#i" transform="matrix(1,0,0,1,565,400.96458047292685) translate(169.72330729166669 161.1675347222222)"/><use xlink:href="#j" transform="matrix(1,0,0,1,565,400.96458047292685) translate(14.397243923611114 189.81336805555551)"/><use xlink:href="#k" transform="matrix(1,0,0,1,565,400.96458047292685) translate(96.3840060763889 189.81336805555551)"/><use xlink:href="#l" transform="matrix(1,0,0,1,565,400.96458047292685) translate(134.91265190972223 189.81336805555551)"/><use xlink:href="#m" transform="matrix(1,0,0,1,565,400.96458047292685) translate(203.12554253472223 189.81336805555551)"/><use xlink:href="#n" transform="matrix(1,0,0,1,565,400.96458047292685) translate(96.72417534722223 218.45920138888883)"/><path d="M705.5 512.1l-2.6-1.3 2.6-1.4c1-.5 1.4-1.7.9-2.7-.5-1-1.7-1.4-2.7-.9l-3.3 1.6v-3.9c0-1.1-.9-2-2.1-2-1.1 0-2 .9-2 2v3.9l-3.3-1.6c-1-.5-2.3-.1-2.8.9s-.1 2.2 1 2.7l2.6 1.4-2.6 1.3c-1 .5-1.5 1.7-1 2.7.4.7 1.1 1.1 1.9 1.1.3 0 .6 0 .9-.2l3.3-1.6v3.9c0 1.1.9 2 2.1 2 1.1 0 2-.9 2-2v-3.9l3.3 1.6c.3.2.6.2.9.2.8 0 1.5-.4 1.9-1.1.4-1 0-2.2-1-2.7zM672.2 512.1l-2.6-1.3 2.6-1.4c1-.5 1.4-1.7.9-2.7-.5-1-1.8-1.4-2.8-.9l-3.3 1.6v-3.9c0-1.1-.9-2-2-2s-2.1.9-2.1 2v3.9l-3.3-1.6c-1-.5-2.2-.1-2.7.9s-.1 2.2.9 2.7l2.6 1.4-2.6 1.3c-1 .5-1.4 1.7-.9 2.7.4.7 1.1 1.1 1.8 1.1.3 0 .6 0 1-.2l3.3-1.6v3.9c0 1.1.9 2 2 2s2.1-.9 2.1-2v-3.9l3.3 1.6c.2.2.6.2.9.2.7 0 1.5-.4 1.8-1.1.5-1 .1-2.2-.9-2.7zM653.7 497.7c-.9-.7-2.2-.5-2.9.4l-6.3 8.3c-.6.9-.5 2.2.4 2.9.4.2.8.4 1.3.4.6 0 1.2-.3 1.6-.8l6.3-8.4c.7-.9.5-2.1-.4-2.8zM687 497.7c-.9-.7-2.2-.5-2.8.4l-6.3 8.3c-.7.9-.5 2.2.4 2.9.4.2.8.4 1.2.4.7 0 1.3-.3 1.7-.8l6.2-8.4c.7-.9.5-2.1-.4-2.8zM720.5 497.7c-.9-.7-2.1-.5-2.8.4l-6.3 8.3c-.7.9-.5 2.2.4 2.9.4.2.8.4 1.2.4.7 0 1.3-.3 1.7-.8l6.3-8.4c.6-.9.5-2.1-.5-2.8zM708.8 430.2c1.2 0 2.1-.9 2.1-2V422c0-1.1-.9-2-2.1-2-1.1 0-2 .9-2 2v6.2c0 1.1.9 2 2 2zM725.6 436.5c.5 0 1-.2 1.4-.6l4.1-4.1c.8-.8.8-2.1 0-2.9-.8-.8-2.1-.8-2.9 0l-4.1 4.1c-.8.8-.8 2.1 0 2.9.4.4.9.6 1.5.6zM727 466.5c-.8-.8-2.1-.8-2.9 0-.8.8-.8 2.1 0 2.9l4.1 4.1c.4.4.9.6 1.4.6.6 0 1.1-.2 1.5-.6.8-.8.8-2.1 0-2.9l-4.1-4.1zM738 447.1h-6.2c-1.1 0-2 .9-2 2.1 0 1.1.9 2 2 2h6.2c1.1 0 2-.9 2-2 0-1.2-.9-2.1-2-2.1zM690.6 435.9c.4.4.9.6 1.5.6.5 0 1-.2 1.4-.6.8-.8.8-2.1 0-2.9l-4.1-4.1c-.8-.8-2.1-.8-2.9 0-.8.8-.8 2.1 0 2.9l4.1 4.1zM725.3 453.7c1.2-8.2-3.6-16.1-11.3-18.4-3.7-1.2-7.8-1-11.3.6-3.1 1.4-5.7 3.8-7.5 6.7-2.9-1.1-6.1-1.8-9.4-1.8-4.8 0-9.5 1.4-13.5 4.1-3.6 2.3-6.4 5.4-8.4 9.1-1.9-.5-3.8-.6-5.1-.6-5 0-9.7 1.9-13.3 5.4-3.6 3.5-5.5 8.2-5.5 13.3 0 10.3 8.4 18.8 18.8 18.8h27.1c13.1 0 23.9-10.2 24.9-23.1 7.4-.7 13.5-6.6 14.5-14.1zm-39.5 33.1h-27c-8.1 0-14.7-6.6-14.7-14.7s6.6-14.6 14.7-14.6c1.9 0 3.8.3 5.3.9 1 .5 2.2 0 2.6-1 3.5-7.6 11-12.4 19.1-12.4 11.6 0 21 9.3 21 20.8s-9.4 21-21 21zm25-23.2c-.7-8.1-5.3-15-11.9-19.1 3-4.8 8.6-7 13.9-5.3 5.7 1.7 9.3 7.7 8.4 13.9-.7 5.6-5.1 9.8-10.4 10.5z" stroke="#000" stroke-opacity="0" stroke-width=".31" fill="#636363"/><defs><path fill="#333" d="M1006-631H430v390h676V0H130v-1456h974v243H430v347h576v235" id="o"/><path fill="#333" d="M750-692c-1-124-48-174-173-175-81 0-142 35-183 104V0H105v-1082h272l9 125c77-97 181-145 311-145 244 0 342 151 342 403V0H750v-692" id="p"/><path fill="#333" d="M516-353l201-729h302L654 0H378L13-1082h302" id="q"/><path fill="#333" d="M416 0H126v-1082h290V0zM271-1212c-92 0-162-61-162-150s68-149 162-149c93 0 162 60 162 149s-70 150-162 150" id="r"/><path fill="#333" d="M579 20C257 20 58-214 66-551c8-331 182-551 511-551 324 0 514 231 514 572 0 319-198 550-512 550zm-2-888c-169 0-222 141-222 338 0 181 61 317 224 317 170 0 223-137 223-338 0-178-64-317-225-317" id="s"/><path fill="#333" d="M719-811c-143-24-279 1-319 103V0H111v-1082h273l8 129c74-124 180-175 331-136" id="t"/><path fill="#333" d="M741-689c-2-124-40-177-163-178-82 0-141 34-178 102V0H111v-1082h271l9 121c77-94 180-141 311-141 139 0 235 55 287 165 76-110 184-165 325-165 249 0 348 151 348 411V0h-290v-690c-2-123-39-176-163-177-87 0-147 41-180 124l1 743H741v-689" id="u"/><path fill="#333" d="M1031-175C952-60 797 20 609 20 287 20 60-206 72-543c12-330 180-559 505-559 309 0 482 214 477 537v118H365c15 134 115 234 263 234 111 0 198-40 261-121zM770-644c5-139-62-226-194-224-130 1-191 97-208 224h402" id="v"/><path fill="#333" d="M457-330c2 83 25 111 111 112 32 0 60-2 85-7V-6c-57 17-115 26-175 26-203 0-310-102-310-307v-583H10v-212h158v-266h289v266h185v212H457v540" id="w"/><path fill="#333" d="M552-1102c254-4 435 134 435 383v469c1 103 15 180 43 233V0H738c-13-26-23-58-29-97C639-19 548 20 436 20 238 20 64-113 68-304c5-258 212-357 496-357h133c11-137-29-227-160-227-90 0-156 45-156 131H92c15-231 213-342 460-345zM357-325c0 76 61 124 142 124 88 0 168-45 198-105v-186H589c-152 2-232 51-232 167" id="x"/><path fill="#333" d="M416 0H126v-1536h290V0" id="y"/><g id="a"><use transform="matrix(0.010850694444444444,0,0,0.010850694444444444,0,0)" xlink:href="#o"/><use transform="matrix(0.010850694444444444,0,0,0.010850694444444444,12.5,0)" xlink:href="#p"/><use transform="matrix(0.010850694444444444,0,0,0.010850694444444444,24.94574652777778,0)" xlink:href="#q"/><use transform="matrix(0.010850694444444444,0,0,0.010850694444444444,36.17621527777778,0)" xlink:href="#r"/><use transform="matrix(0.010850694444444444,0,0,0.010850694444444444,42.068142361111114,0)" xlink:href="#s"/><use transform="matrix(0.010850694444444444,0,0,0.010850694444444444,54.63324652777778,0)" xlink:href="#t"/><use transform="matrix(0.010850694444444444,0,0,0.010850694444444444,62.73871527777778,0)" xlink:href="#p"/><use transform="matrix(0.010850694444444444,0,0,0.010850694444444444,75.18446180555556,0)" xlink:href="#u"/><use transform="matrix(0.010850694444444444,0,0,0.010850694444444444,94.42274305555556,0)" xlink:href="#v"/><use transform="matrix(0.010850694444444444,0,0,0.010850694444444444,106.43446180555556,0)" xlink:href="#p"/><use transform="matrix(0.010850694444444444,0,0,0.010850694444444444,118.88020833333333,0)" xlink:href="#w"/><use transform="matrix(0.010850694444444444,0,0,0.010850694444444444,126.38888888888889,0)" xlink:href="#x"/><use transform="matrix(0.010850694444444444,0,0,0.010850694444444444,138.30295138888889,0)" xlink:href="#y"/></g><path fill="#333" d="M631-137c179 0 314-70 314-231 0-71-25-127-75-166s-141-77-272-115c-165-47-285-106-360-175s-112-154-112-255c0-245 231-397 495-397 206 0 369 89 449 218 43 68 65 142 65 223H942c0-184-129-283-321-283-172 0-299 76-301 236 0 59 26 109 76 150s135 78 256 113c205 59 345 116 436 256 35 53 50 119 50 193-2 256-231 398-507 390C333 12 90-129 80-422h193c0 187 160 285 358 285" id="z"/><path fill="#333" d="M589-945c-131 0-219 81-264 174V0H140v-1082h175l6 136c83-104 191-156 324-156 229 0 346 129 346 387V0H806v-716c-2-153-65-229-217-229" id="A"/><path fill="#333" d="M584 20C278 26 81-227 91-551c10-320 175-545 491-551 308-5 503 247 494 573-9 322-175 543-492 549zm-2-970c-208 0-305 185-305 421 0 216 106 398 307 398 211 0 307-186 307-420 0-214-109-399-309-399" id="B"/><path fill="#333" d="M1098-255l208-827h185L1176 0h-150L763-820 507 0H357L43-1082h184l213 810 252-810h149" id="C"/><g id="b"><use transform="matrix(0.010850694444444444,0,0,0.010850694444444444,0,0)" xlink:href="#z"/><use transform="matrix(0.010850694444444444,0,0,0.010850694444444444,13.18359375,0)" xlink:href="#A"/><use transform="matrix(0.010850694444444444,0,0,0.010850694444444444,25.44487847222222,0)" xlink:href="#B"/><use transform="matrix(0.010850694444444444,0,0,0.010850694444444444,38.11848958333333,0)" xlink:href="#C"/></g><path fill="#333" d="M1161-1018c0 201-122 330-278 388l342 618V0h-206L703-589H361V0H168v-1456h482c310-2 511 139 511 438zm-193 0c0-187-120-280-313-280H361v552h295c179 3 313-101 312-272" id="D"/><path fill="#333" d="M561-1102c238-4 403 126 403 351v498c0 99 13 178 38 237V0H808c-11-21-19-59-26-114C696-25 593 20 474 20c-199 0-368-130-365-320 4-251 214-359 490-356h180v-85c-1-135-86-212-229-212-115 0-232 67-233 171H131c20-205 206-316 430-320zM294-326c0 117 90 185 207 185 122 0 239-75 278-162v-222H634c-227 0-340 66-340 199" id="E"/><path fill="#333" d="M341 0H156v-1082h185V0zm-91-1264c-68 0-108-42-109-105 0-62 41-107 109-107s110 44 110 107-42 105-110 105" id="F"/><g id="c"><use transform="matrix(0.010850694444444444,0,0,0.010850694444444444,0,0)" xlink:href="#D"/><use transform="matrix(0.010850694444444444,0,0,0.010850694444444444,13.682725694444445,0)" xlink:href="#E"/><use transform="matrix(0.010850694444444444,0,0,0.010850694444444444,25.77039930555556,0)" xlink:href="#F"/><use transform="matrix(0.010850694444444444,0,0,0.010850694444444444,31.16319444444445,0)" xlink:href="#A"/></g><path fill="#333" d="M972-643H361V0H169v-1456h902v158H361v498h611v157" id="G"/><path fill="#333" d="M521 20C240 20 96-239 96-550c0-303 147-552 427-552 132 0 235 47 309 140l9-120h169V-26c4 277-183 454-459 452-165-1-334-81-400-187l96-111c79 98 176 147 291 147 180 1 288-109 286-290v-93C750-23 649 20 521 20zm48-965c-209 0-287 178-287 416 0 217 86 392 285 392 117 0 202-53 257-159v-494c-57-103-142-155-255-155" id="H"/><g id="d"><use transform="matrix(0.010850694444444444,0,0,0.010850694444444444,0,0)" xlink:href="#G"/><use transform="matrix(0.010850694444444444,0,0,0.010850694444444444,12.055121527777777,0)" xlink:href="#B"/><use transform="matrix(0.010850694444444444,0,0,0.010850694444444444,24.72873263888889,0)" xlink:href="#H"/></g><path fill="#333" d="M730-137c145 0 253-29 323-105v-327H716v-156h528v534C1148-51 964 20 729 20c-394 0-598-279-607-678v-127c-5-410 194-690 585-691 310-1 499 171 537 447h-192c-36-193-151-289-344-289-285 0-393 220-393 528v119c-5 296 140 534 415 534" id="I"/><path fill="#333" d="M599-131c141 0 220-65 285-146l113 88C906-50 770 20 589 20 281 21 93-214 93-545c0-223 93-397 233-485 74-48 154-72 240-72 300 2 449 218 445 537v77H278c0 197 129 357 321 357zm227-509c-3-180-88-310-260-310-170 0-264 140-282 310h542" id="J"/><path fill="#333" d="M456 20C285 20 205-92 206-268v-671H9v-143h197v-262h185v262h202v143H391v671c-9 125 92 149 207 118V0c-49 13-96 20-142 20" id="K"/><g id="g"><use transform="matrix(0.011935763888888888,0,0,0.011935763888888888,0,0)" xlink:href="#I"/><use transform="matrix(0.011935763888888888,0,0,0.011935763888888888,16.650390625,0)" xlink:href="#J"/><use transform="matrix(0.011935763888888888,0,0,0.011935763888888888,29.600694444444443,0)" xlink:href="#K"/></g><path fill="#333" d="M277-555c0 244 77 420 297 424 127 2 249-93 255-210h175C980-127 805 20 574 20 258 20 81-222 92-562c11-319 164-533 481-540 237-5 426 165 431 392H829c-7-133-115-242-256-240-209 4-296 166-296 395" id="L"/><path fill="#333" d="M663-916c-163-27-288 18-338 148V0H140v-1082h180l3 125c61-97 147-145 258-145 36 0 63 5 82 14v172" id="M"/><path fill="#333" d="M538-131c121 0 232-49 232-156 0-50-20-88-56-117-73-60-334-92-420-143-92-55-162-110-162-238 0-190 192-317 400-317 223 0 414 129 413 338H759c0-108-110-186-227-186-119 0-215 53-215 159 0 45 18 78 53 101 76 52 331 90 416 139 98 57 169 115 169 251C955-92 760 20 538 20c-176 0-314-68-386-174-38-55-57-115-57-179h185c6 129 116 202 258 202" id="N"/><path fill="#333" d="M589-945c-131 0-219 81-264 174V0H140v-1536h185v585c82-101 189-151 320-151 229 0 346 129 346 387V0H806v-716c-2-153-65-229-217-229" id="O"/><g id="h"><use transform="matrix(0.011935763888888888,0,0,0.011935763888888888,0,0)" xlink:href="#L"/><use transform="matrix(0.011935763888888888,0,0,0.011935763888888888,12.795138888888888,0)" xlink:href="#M"/><use transform="matrix(0.011935763888888888,0,0,0.011935763888888888,20.589192708333332,0)" xlink:href="#E"/><use transform="matrix(0.011935763888888888,0,0,0.011935763888888888,33.88563368055556,0)" xlink:href="#N"/><use transform="matrix(0.011935763888888888,0,0,0.011935763888888888,46.48980034722222,0)" xlink:href="#O"/><use transform="matrix(0.011935763888888888,0,0,0.011935763888888888,59.953342013888886,0)" xlink:href="#J"/><use transform="matrix(0.011935763888888888,0,0,0.011935763888888888,72.90364583333333,0)" xlink:href="#N"/></g><g id="i"><use transform="matrix(0.011935763888888888,0,0,0.011935763888888888,0,0)" xlink:href="#C"/><use transform="matrix(0.011935763888888888,0,0,0.011935763888888888,18.369140625,0)" xlink:href="#F"/><use transform="matrix(0.011935763888888888,0,0,0.011935763888888888,24.30121527777778,0)" xlink:href="#K"/><use transform="matrix(0.011935763888888888,0,0,0.011935763888888888,32.28624131944444,0)" xlink:href="#O"/></g><path fill="#333" d="M277-1536c5 179-19 330-30 494H136l1-494h140zm270 0c5 179-19 330-30 494H406l1-494h140" id="P"/><g id="j"><use transform="matrix(0.011935763888888888,0,0,0.011935763888888888,0,0)" xlink:href="#P"/><use transform="matrix(0.011935763888888888,0,0,0.011935763888888888,7.817925347222221,0)" xlink:href="#z"/><use transform="matrix(0.011935763888888888,0,0,0.011935763888888888,22.31987847222222,0)" xlink:href="#A"/><use transform="matrix(0.011935763888888888,0,0,0.011935763888888888,35.807291666666664,0)" xlink:href="#B"/><use transform="matrix(0.011935763888888888,0,0,0.011935763888888888,49.748263888888886,0)" xlink:href="#C"/><use transform="matrix(0.011935763888888888,0,0,0.011935763888888888,68.11740451388889,0)" xlink:href="#P"/></g><path fill="#333" d="M1248-1138c106 220 104 603 2 820-91 195-274 338-542 338C281 20 86-300 86-759c0-291 115-515 296-629 182-114 467-115 648 0 94 60 166 141 218 250zM940-344c111-153 110-617 0-765-57-77-133-119-234-119s-177 41-233 118c-64 88-83 240-83 415 0 149 27 264 82 346s133 123 236 123c101 0 176-40 232-118" id="Q"/><path fill="#333" d="M1209-1016c0 219-100 334-260 407l315 595V0H942L669-533H430V0H130v-1456h541c318-3 538 141 538 440zm-300 24c-1-144-85-221-238-221H430v437h242c144 2 238-77 237-216" id="R"/><g id="k"><use transform="matrix(0.011935763888888888,0,0,0.011935763888888888,0,0)" xlink:href="#Q"/><use transform="matrix(0.011935763888888888,0,0,0.011935763888888888,16.87717013888889,0)" xlink:href="#R"/></g><g id="l"><use transform="matrix(0.011935763888888888,0,0,0.011935763888888888,0,0)" xlink:href="#P"/><use transform="matrix(0.011935763888888888,0,0,0.011935763888888888,7.817925347222221,0)" xlink:href="#D"/><use transform="matrix(0.011935763888888888,0,0,0.011935763888888888,22.868923611111107,0)" xlink:href="#E"/><use transform="matrix(0.011935763888888888,0,0,0.011935763888888888,36.16536458333333,0)" xlink:href="#F"/><use transform="matrix(0.011935763888888888,0,0,0.011935763888888888,42.09743923611111,0)" xlink:href="#A"/><use transform="matrix(0.011935763888888888,0,0,0.011935763888888888,54.34353298611111,0)" xlink:href="#P"/></g><g id="m"><use transform="matrix(0.011935763888888888,0,0,0.011935763888888888,0,0)" xlink:href="#Q"/><use transform="matrix(0.011935763888888888,0,0,0.011935763888888888,16.87717013888889,0)" xlink:href="#R"/></g><g id="n"><use transform="matrix(0.011935763888888888,0,0,0.011935763888888888,0,0)" xlink:href="#P"/><use transform="matrix(0.011935763888888888,0,0,0.011935763888888888,7.817925347222221,0)" xlink:href="#G"/><use transform="matrix(0.011935763888888888,0,0,0.011935763888888888,21.078559027777775,0)" xlink:href="#B"/><use transform="matrix(0.011935763888888888,0,0,0.011935763888888888,35.01953125,0)" xlink:href="#H"/><use transform="matrix(0.011935763888888888,0,0,0.011935763888888888,48.73372395833333,0)" xlink:href="#P"/></g></defs></g></svg>