<svg xmlns="http://www.w3.org/2000/svg" xmlns:xlink="http://www.w3.org/1999/xlink" xmlns:lucid="lucid" width="755" height="561"><g transform="translate(-86 -680)" lucid:page-tab-id="0_0"><path d="M100 705.84c0-3.3 2.7-6 6-6h248c3.3 0 6 2.7 6 6v248c0 3.32-2.7 6-6 6H106c-3.3 0-6-2.68-6-6z" stroke="#5e5e5e" stroke-width="3" fill="#fff"/><path d="M100 705.84c0-3.3 2.7-6 6-6h248c3.3 0 6 2.7 6 6v43.72c0 3.3-2.7 6-6 6H106c-3.3 0-6-2.7-6-6z" stroke="#5e5e5e" stroke-width="3" fill="#fcce14"/><use xlink:href="#a" transform="matrix(1,0,0,1,105.00000000000006,704.8419007681213) translate(48.45377604166667 29.241319444444443)"/><use xlink:href="#b" transform="matrix(1,0,0,1,105.00000000000006,704.8419007681213) translate(105.17035590277777 29.241319444444443)"/><path d="M120 785.84c0-3.3 2.7-6 6-6h28c3.3 0 6 2.7 6 6v28c0 3.32-2.7 6-6 6h-28c-3.3 0-6-2.68-6-6zM180 785.84c0-3.3 2.7-6 6-6h148c3.3 0 6 2.7 6 6v28c0 3.32-2.7 6-6 6H186c-3.3 0-6-2.68-6-6z" stroke="#5e5e5e" stroke-width="3" fill="#c3f7c8"/><use xlink:href="#c" transform="matrix(1,0,0,1,185,784.8419007681213) translate(55.794270833333336 22.491319444444443)"/><path d="M120 845.84c0-3.3 2.7-6 6-6h28c3.3 0 6 2.7 6 6v28c0 3.32-2.7 6-6 6h-28c-3.3 0-6-2.68-6-6zM180 845.84c0-3.3 2.7-6 6-6h148c3.3 0 6 2.7 6 6v28c0 3.32-2.7 6-6 6H186c-3.3 0-6-2.68-6-6z" stroke="#5e5e5e" stroke-width="3" fill="#c3f7c8"/><use xlink:href="#d" transform="matrix(1,0,0,1,185,844.8419007681213) translate(42.333984375 22.491319444444443)"/><path d="M120 905.84c0-3.3 2.7-6 6-6h28c3.3 0 6 2.7 6 6v28c0 3.32-2.7 6-6 6h-28c-3.3 0-6-2.68-6-6zM180 905.84c0-3.3 2.7-6 6-6h148c3.3 0 6 2.7 6 6v28c0 3.32-2.7 6-6 6H186c-3.3 0-6-2.68-6-6z" stroke="#5e5e5e" stroke-width="3" fill="#c3f7c8"/><use xlink:href="#e" transform="matrix(1,0,0,1,185,904.8419007681213) translate(60.90494791666667 22.491319444444443)"/><path d="M380 968.46c0-3.32 2.7-6 6-6h112c3.3 0 6-2.7 6-6v-8c0-3.32 1.8-4 4-1.54L536 978c2.2 2.46 2.2 6.46 0 8.92L508 1018c-2.2 2.46-4 1.77-4-1.54v-8c0-3.32-2.7-6-6-6H386c-3.3 0-6-2.7-6-6z" stroke="#5e5e5e" stroke-width="3" fill="#ffdda6"/><path d="M155.04 791.38l-16.86 23.15c-1.25 1.7-3.26 1.7-4.5 0l-8.72-11.97c-1.24-1.7-1.24-4.47 0-6.2 1.25-1.72 3.3-1.72 4.54 0l6.4 8.85 14.6-20.05c1.25-1.7 3.3-1.7 4.54 0 1.24 1.73 1.24 4.5 0 6.23zM155.04 851.63l-16.86 23.15c-1.25 1.7-3.26 1.7-4.5 0l-8.72-11.97c-1.24-1.7-1.24-4.46 0-6.2 1.25-1.7 3.3-1.7 4.54 0l6.4 8.86 14.6-20.06c1.25-1.7 3.3-1.7 4.54 0 1.24 1.73 1.24 4.5 0 6.23zM155.04 911.38l-16.86 23.15c-1.25 1.7-3.26 1.7-4.5 0l-8.72-11.97c-1.24-1.7-1.24-4.47 0-6.2 1.25-1.72 3.3-1.72 4.54 0l6.4 8.85 14.6-20.05c1.25-1.7 3.3-1.7 4.54 0 1.24 1.73 1.24 4.5 0 6.23z" stroke="#000" stroke-opacity="0" fill="#5e5e5e"/><path d="M560 701.8c0-3.3 2.7-6 6-6h248c3.3 0 6 2.7 6 6v515.38c0 3.32-2.7 6-6 6H566c-3.3 0-6-2.68-6-6z" stroke="#5e5e5e" stroke-width="3" fill="#fff"/><path d="M628.25 766.87l-5.63-2.6c-2.92-1.28-4.76-1.74-4.76-5.48.1-1.53 1.2-3.5 1.84-4.88l3.47-7.7c.65-1.45 1.4-2.36 3.03-2.6 1.2-.15 2.6.62 3.68 1.15l5.52 2.52 14.4 6.54 9.3 4.34 3.9-8.68c.65-1.38.98-2.82 2.38-3.66 1.85-1.15 3.9-.08 5.63.76l9.54 4.42c.97.7 1.95 1.75 2.6 2.67.76 1.36 1.4 3.34 1.95 4.87l3.23 8.76c.33.9 1.74 5.03 2.28 5.56.44.45 3.36 2.05 4.12 2.5l9 5.12c2.37 1.3 4.75 2.36 4.53 5.63-.1 1.45-1.2 3.9-1.73 5.26l-1.3 3.44c-1.08 2.82-1.95 4.35-5.2 4.27-1.5 0-3.03-.9-4.43-1.5l-5.1-2.3c-2.6 5.26-10.18 6.56-14.83 3.28-2.92-2.06-4.22-5.26-4.22-8.77 0-1.13.1-1.97.65-3.04l-6.72-2.97-9.74-4.43-8.98-3.96c-.33 1.08-1.1 2-1.95 2.68-3.24 2.66-8.1 3.27-11.8 1.22-3.24-1.76-5.4-5.64-5.2-9.38 0-.9.34-2.13.55-3.05zm52.5.84l-2.6-7.08-1.5-3.43-2.82-1.45-4.66-2.06-3.24 7.53 10.17 4.58 4.66 1.9zm-42.97-2.35c-1.08.15-2.16.46-3.03 1.22-3.14 2.82-1.3 8.6 3.9 8.23 2.92-.23 4.76-3.58 3.8-6.25-.77-2.06-2.5-3.2-4.67-3.2zm-31.6 2.67c1.4 0 4.1.6 5.62.83 2.06.4 4.65.54 6.28 1.9l6.28 6.87c.97 1.14 2.5 2.97 3.9 3.58l11.8 2.67c2.6.9 4.1 4.2 6.5 5.5.96.6 1.83.67 3.02.67h2.6c2.38 0 4.1.92 6.28 1.68L667 795c2.17.9 6.4 6.32 8.45 7.24l10.83 2.36 5.4 3.35c3.15 1.98 4.77 2.6 7.26 5.57 1.4 1.75 1.63 4.42-.54 5.7-.86.55-2.38.62-3.46.62h-72.96-12.02c-1.84 0-4.87.15-6.6-.38-2.4-.7-3.25-2.82-3.25-5.1v-34.9c0-2.22-.42-6.5.66-8.32.65-1.07 1.84-1.83 2.92-2.44.97-.46 1.4-.53 2.5-.68zm75.23 17.22c-2.38.38-4.32 1.83-4.43 4.34-.22 2.67 1.73 5.03 4.44 5.1.87 0 1.4 0 2.17-.37 4.87-2.2 3.03-9.2-2.16-9.06z" stroke="#000" stroke-opacity="0" stroke-width=".94" fill="#5e5e5e"/><path d="M100 1028.46c0-3.32 2.7-6 6-6h248c3.3 0 6 2.68 6 6v188.72c0 3.32-2.7 6-6 6H106c-3.3 0-6-2.68-6-6z" stroke="#5e5e5e" stroke-width="3" fill="#fff"/><path d="M100 1026c0-3.3 2.7-6 6-6h248c3.3 0 6 2.7 6 6v51.12c0 3.32-2.7 6-6 6H106c-3.3 0-6-2.68-6-6z" stroke="#5e5e5e" stroke-width="3" fill="#fcce14"/><use xlink:href="#f" transform="matrix(1,0,0,1,105.00000000000003,1025) translate(25.9006076388889 20.616319444444443)"/><use xlink:href="#g" transform="matrix(1,0,0,1,105.00000000000003,1025) translate(139.46397569444446 20.616319444444443)"/><use xlink:href="#h" transform="matrix(1,0,0,1,105.00000000000003,1025) translate(76.81206597222223 46.65798611111111)"/><path d="M120 1109.18c0-3.3 2.7-6 6-6h28c3.3 0 6 2.7 6 6v28c0 3.32-2.7 6-6 6h-28c-3.3 0-6-2.68-6-6zM180 1109.18c0-3.3 2.7-6 6-6h148c3.3 0 6 2.7 6 6v28c0 3.32-2.7 6-6 6H186c-3.3 0-6-2.68-6-6z" stroke="#5e5e5e" stroke-width="3" fill="#c3f7c8"/><use xlink:href="#i" transform="matrix(1,0,0,1,185,1108.1845238095239) translate(20.833333333333336 22.491319444444443)"/><use xlink:href="#j" transform="matrix(1,0,0,1,185,1108.1845238095239) translate(75.07595486111111 22.491319444444443)"/><path d="M120 1169.18c0-3.3 2.7-6 6-6h28c3.3 0 6 2.7 6 6v28c0 3.32-2.7 6-6 6h-28c-3.3 0-6-2.68-6-6zM180 1169.18c0-3.3 2.7-6 6-6h148c3.3 0 6 2.7 6 6v28c0 3.32-2.7 6-6 6H186c-3.3 0-6-2.68-6-6z" stroke="#5e5e5e" stroke-width="3" fill="#c3f7c8"/><use xlink:href="#k" transform="matrix(1,0,0,1,185,1168.1845238095239) translate(2.9568142361111143 22.491319444444443)"/><use xlink:href="#j" transform="matrix(1,0,0,1,185,1168.1845238095239) translate(92.95247395833333 22.491319444444443)"/><path d="M155.04 1114.72l-16.86 23.15c-1.25 1.7-3.26 1.7-4.5 0l-8.72-11.97c-1.24-1.7-1.24-4.47 0-6.2 1.25-1.72 3.3-1.72 4.54 0l6.4 8.85 14.6-20.05c1.25-1.7 3.3-1.7 4.54 0 1.24 1.72 1.24 4.5 0 6.22zM155.04 1174.97l-16.86 23.15c-1.25 1.7-3.26 1.7-4.5 0l-8.72-11.97c-1.24-1.7-1.24-4.47 0-6.2 1.25-1.72 3.3-1.72 4.54 0l6.4 8.85 14.6-20.05c1.25-1.7 3.3-1.7 4.54 0 1.24 1.72 1.24 4.5 0 6.22z" stroke="#000" stroke-opacity="0" fill="#5e5e5e"/><path d="M248.4 983.95c-.24-.22-.54-.34-.87-.34H236.3v-11.2c0-.35-.1-.65-.33-.87-.27-.27-.57-.38-.9-.38h-10.14c-.67 0-1.23.56-1.23 1.24v11.2h-11.23c-.67 0-1.23.58-1.23 1.25V995c0 .33.1.63.37.9.24.22.54.33.87.33h11.23v11.22c0 .34.1.64.33.87.27.26.57.37.9.37h10.14c.67 0 1.23-.57 1.23-1.25v-11.22h11.23c.67 0 1.23-.57 1.23-1.24v-10.15c0-.34-.15-.64-.37-.9z" stroke="#636363" stroke-width="2" fill="#ffdda6"/><path d="M560.33 903.88h260v80.16h-260z" fill="none"/><use xlink:href="#l" transform="matrix(1,0,0,1,560.3272620960169,903.8773202951944) translate(14.766167534722229 34.53211805555556)"/><use xlink:href="#m" transform="matrix(1,0,0,1,560.3272620960169,903.8773202951944) translate(76.89181857638889 34.53211805555556)"/><use xlink:href="#n" transform="matrix(1,0,0,1,560.3272620960169,903.8773202951944) translate(187.34537760416666 34.53211805555556)"/><use xlink:href="#o" transform="matrix(1,0,0,1,560.3272620960169,903.8773202951944) translate(21.1935763888889 63.177951388888886)"/><use xlink:href="#p" transform="matrix(1,0,0,1,560.3272620960169,903.8773202951944) translate(59.72222222222223 63.177951388888886)"/><use xlink:href="#o" transform="matrix(1,0,0,1,560.3272620960169,903.8773202951944) translate(153.45377604166669 63.177951388888886)"/><use xlink:href="#q" transform="matrix(1,0,0,1,560.3272620960169,903.8773202951944) translate(191.982421875 63.177951388888886)"/><path d="M570.22 859.68h240v40.16h-240z" fill="none"/><use xlink:href="#r" transform="matrix(1,0,0,1,570.2181747306779,859.6838015362425) translate(29.526909722222214 28.85503472222222)"/><use xlink:href="#s" transform="matrix(1,0,0,1,570.2181747306779,859.6838015362425) translate(73.16406249999999 28.85503472222222)"/><use xlink:href="#t" transform="matrix(1,0,0,1,570.2181747306779,859.6838015362425) translate(164.72330729166669 28.85503472222222)"/><path d="M570 1000h240v39.84H570z" fill="none"/><g><use xlink:href="#u" transform="matrix(1,0,0,1,570,1000) translate(90.69498697916667 29.874131944444443)"/></g><path d="M560.33 1055.8H820.1v96.22H560.34z" fill="#fff" fill-opacity="0"/><g><use xlink:href="#v" transform="matrix(1,0,0,1,565.3272620960169,1060.8064812410482) translate(18.20475260416667 22.677951388888886)"/><use xlink:href="#w" transform="matrix(1,0,0,1,565.3272620960169,1060.8064812410482) translate(140.78504774305554 22.677951388888886)"/><use xlink:href="#m" transform="matrix(1,0,0,1,565.3272620960169,1060.8064812410482) translate(2.2824435763889 51.323784722222214)"/><use xlink:href="#x" transform="matrix(1,0,0,1,565.3272620960169,1060.8064812410482) translate(112.73600260416667 51.323784722222214)"/><use xlink:href="#y" transform="matrix(1,0,0,1,565.3272620960169,1060.8064812410482) translate(180.22081163194446 51.323784722222214)"/><use xlink:href="#o" transform="matrix(1,0,0,1,565.3272620960169,1060.8064812410482) translate(18.580729166666686 79.96961805555554)"/><use xlink:href="#z" transform="matrix(1,0,0,1,565.3272620960169,1060.8064812410482) translate(57.109375000000014 79.96961805555554)"/><use xlink:href="#A" transform="matrix(1,0,0,1,565.3272620960169,1060.8064812410482) translate(163.92252604166666 79.96961805555554)"/></g><path d="M100 406c0-3.3 2.7-6 6-6h248c3.3 0 6 2.7 6 6v248c0 3.3-2.7 6-6 6H106c-3.3 0-6-2.7-6-6zM560 401.96c0-3.3 2.7-6 6-6h248c3.3 0 6 2.7 6 6V654c0 3.3-2.7 6-6 6H566c-3.3 0-6-2.7-6-6z" stroke="#5e5e5e" stroke-width="3" fill="#fff"/><g><use xlink:href="#B" transform="matrix(1,0,0,1,565,400.96458047292685) translate(125 46.584201388888886)"/><use xlink:href="#C" transform="matrix(1,0,0,1,565,400.96458047292685) translate(125 75.23003472222221)"/><use xlink:href="#C" transform="matrix(1,0,0,1,565,400.96458047292685) translate(125 103.87586805555554)"/><use xlink:href="#C" transform="matrix(1,0,0,1,565,400.96458047292685) translate(125 132.52170138888886)"/><use xlink:href="#D" transform="matrix(1,0,0,1,565,400.96458047292685) translate(34.526909722222214 161.1675347222222)"/><use xlink:href="#s" transform="matrix(1,0,0,1,565,400.96458047292685) translate(78.16406249999999 161.1675347222222)"/><use xlink:href="#E" transform="matrix(1,0,0,1,565,400.96458047292685) translate(169.72330729166669 161.1675347222222)"/><use xlink:href="#F" transform="matrix(1,0,0,1,565,400.96458047292685) translate(9.766167534722229 189.81336805555551)"/><use xlink:href="#m" transform="matrix(1,0,0,1,565,400.96458047292685) translate(71.89181857638889 189.81336805555551)"/><use xlink:href="#n" transform="matrix(1,0,0,1,565,400.96458047292685) translate(182.34537760416666 189.81336805555551)"/><use xlink:href="#o" transform="matrix(1,0,0,1,565,400.96458047292685) translate(16.1935763888889 218.45920138888883)"/><use xlink:href="#p" transform="matrix(1,0,0,1,565,400.96458047292685) translate(54.72222222222223 218.45920138888883)"/><use xlink:href="#o" transform="matrix(1,0,0,1,565,400.96458047292685) translate(148.45377604166669 218.45920138888883)"/><use xlink:href="#q" transform="matrix(1,0,0,1,565,400.96458047292685) translate(186.982421875 218.45920138888883)"/></g><path d="M770.87 779.47c2.46-2.48 3.94-5.84 3.94-9.6 0-7.52-6-13.52-13.5-13.52-7.52 0-13.54 6-13.54 13.52 0 3.68 1.48 7.12 3.94 9.6-6.9 3.44-11.7 10.64-11.7 18.96v9.44c0 1.12.85 2 1.95 2h7.55l1.02-3.92h-6.66v-7.52c0-7.6 4.8-14 11.53-16.32 1.77.8 3.77 1.3 5.8 1.3 2.12 0 4.03-.5 5.8-1.3 6.75 2.4 11.54 8.8 11.54 16.33v7.52h-5.47c.1.96-.17 1.84-.6 2.64l-.67 1.1h8.65c1.1 0 1.95-.8 1.95-1.9v-9.53c.17-8.24-4.54-15.36-11.53-18.8zm-19.17-9.6c0-5.28 4.37-9.68 9.67-9.68s9.67 4.4 9.67 9.67c0 5.28-4.37 9.68-9.67 9.68s-9.67-4.4-9.67-9.68z" stroke="#000" stroke-opacity="0" stroke-width=".15" fill="#5e5e5e"/><path d="M768.37 804.9l-5.47.1 3.52-9.13c.17-.4.08-.88-.17-1.28-.26-.33-.68-.57-1.1-.57l-6.83.08c-.55 0-1.06.4-1.23 1.05l-4.04 15.52c-.08.4 0 .88.2 1.2.27.32.7.48 1.1.48l5.9-.08-2.07 9.76c-.18.64.16 1.28.8 1.52.25.08.5.08.76.08.34-.08.68-.32.85-.64l8.9-16.1c.27-.47.27-.95 0-1.35-.24-.4-.67-.64-1.13-.64zM761.37 752.67c1.1 0 1.95-.88 1.95-2v-5.12c0-1.04-.85-1.92-1.95-1.92s-1.95.88-1.95 1.92v5.12c0 1.12.85 2 1.95 2zM750.18 754.2c.34.63 1 .95 1.7.95.33 0 .67-.08.93-.24.9-.47 1.24-1.67.64-2.63l-2.6-4.4c-.5-.96-1.68-1.28-2.6-.72-.9.48-1.24 1.68-.65 2.64zM769.94 754.9c.34.17.67.25.93.25.68 0 1.36-.32 1.7-.96l2.58-4.4c.5-.97.26-2.17-.68-2.65-.9-.48-2.07-.24-2.58.72l-2.64 4.4c-.55.96-.26 2.16.68 2.64z" stroke="#000" stroke-opacity="0" stroke-width=".15" fill="#5e5e5e"/><defs><path fill="#333" d="M1209-1016c0 219-100 334-260 407l315 595V0H942L669-533H430V0H130v-1456h541c318-3 538 141 538 440zm-300 24c-1-144-85-221-238-221H430v437h242c144 2 238-77 237-216" id="G"/><path fill="#333" d="M579 20C257 20 58-214 66-551c8-331 182-551 511-551 324 0 514 231 514 572 0 319-198 550-512 550zm-2-888c-169 0-222 141-222 338 0 181 61 317 224 317 170 0 223-137 223-338 0-178-64-317-225-317" id="H"/><path fill="#333" d="M552-1102c254-4 435 134 435 383v469c1 103 15 180 43 233V0H738c-13-26-23-58-29-97C639-19 548 20 436 20 238 20 64-113 68-304c5-258 212-357 496-357h133c11-137-29-227-160-227-90 0-156 45-156 131H92c15-231 213-342 460-345zM357-325c0 76 61 124 142 124 88 0 168-45 198-105v-186H589c-152 2-232 51-232 167" id="I"/><path fill="#333" d="M488 20C204 20 66-234 66-549c0-305 140-551 424-553 105 0 192 39 261 118v-552h290V0H780l-14-115C694-25 601 20 488 20zM355-528c0 176 51 314 207 314 89 0 152-38 189-113v-427c-36-75-98-113-187-113-139 0-209 113-209 339" id="J"/><g id="a"><use transform="matrix(0.010850694444444444,0,0,0.010850694444444444,0,0)" xlink:href="#G"/><use transform="matrix(0.010850694444444444,0,0,0.010850694444444444,14.181857638888888,0)" xlink:href="#H"/><use transform="matrix(0.010850694444444444,0,0,0.010850694444444444,26.746961805555554,0)" xlink:href="#I"/><use transform="matrix(0.010850694444444444,0,0,0.010850694444444444,38.66102430555556,0)" xlink:href="#J"/></g><path fill="#333" d="M687-225c189-1 272-84 286-260h300c-19 311-251 505-586 505C296 20 86-277 86-686c0-466 174-782 605-790 340-6 557 198 584 514H975c-15-183-92-268-284-268-100 0-173 38-225 108-63 84-76 264-76 443 0 157 24 272 72 345s122 109 225 109" id="K"/><path fill="#333" d="M750-692c-1-124-48-174-173-175-81 0-142 35-183 104V0H105v-1082h272l9 125c77-97 181-145 311-145 244 0 342 151 342 403V0H750v-692" id="L"/><path fill="#333" d="M416 0H126v-1082h290V0zM271-1212c-92 0-162-61-162-150s68-149 162-149c93 0 162 60 162 149s-70 150-162 150" id="M"/><path fill="#333" d="M457-330c2 83 25 111 111 112 32 0 60-2 85-7V-6c-57 17-115 26-175 26-203 0-310-102-310-307v-583H10v-212h158v-266h289v266h185v212H457v540" id="N"/><g id="b"><use transform="matrix(0.010850694444444444,0,0,0.010850694444444444,0,0)" xlink:href="#K"/><use transform="matrix(0.010850694444444444,0,0,0.010850694444444444,14.539930555555555,0)" xlink:href="#H"/><use transform="matrix(0.010850694444444444,0,0,0.010850694444444444,27.10503472222222,0)" xlink:href="#L"/><use transform="matrix(0.010850694444444444,0,0,0.010850694444444444,39.55078125,0)" xlink:href="#J"/><use transform="matrix(0.010850694444444444,0,0,0.010850694444444444,52.072482638888886,0)" xlink:href="#M"/><use transform="matrix(0.010850694444444444,0,0,0.010850694444444444,57.96440972222222,0)" xlink:href="#N"/><use transform="matrix(0.010850694444444444,0,0,0.010850694444444444,65.47309027777777,0)" xlink:href="#M"/><use transform="matrix(0.010850694444444444,0,0,0.010850694444444444,71.3650173611111,0)" xlink:href="#H"/><use transform="matrix(0.010850694444444444,0,0,0.010850694444444444,83.93012152777777,0)" xlink:href="#L"/></g><path fill="#333" d="M483-459l28 192 41-173 288-1016h162l281 1016 40 176 31-196 226-996h193L1420 0h-175L945-1061l-23-111-23 111L588 0H413L61-1456h192" id="O"/><path fill="#333" d="M599-131c141 0 220-65 285-146l113 88C906-50 770 20 589 20 281 21 93-214 93-545c0-223 93-397 233-485 74-48 154-72 240-72 300 2 449 218 445 537v77H278c0 197 129 357 321 357zm227-509c-3-180-88-310-260-310-170 0-264 140-282 310h542" id="P"/><path fill="#333" d="M456 20C285 20 205-92 206-268v-671H9v-143h197v-262h185v262h202v143H391v671c-9 125 92 149 207 118V0c-49 13-96 20-142 20" id="Q"/><g id="c"><use transform="matrix(0.010850694444444444,0,0,0.010850694444444444,0,0)" xlink:href="#O"/><use transform="matrix(0.010850694444444444,0,0,0.010850694444444444,19.379340277777775,0)" xlink:href="#P"/><use transform="matrix(0.010850694444444444,0,0,0.010850694444444444,31.15234375,0)" xlink:href="#Q"/></g><path fill="#333" d="M631-137c179 0 314-70 314-231 0-71-25-127-75-166s-141-77-272-115c-165-47-285-106-360-175s-112-154-112-255c0-245 231-397 495-397 206 0 369 89 449 218 43 68 65 142 65 223H942c0-184-129-283-321-283-172 0-299 76-301 236 0 59 26 109 76 150s135 78 256 113c205 59 345 116 436 256 35 53 50 119 50 193-2 256-231 398-507 390C333 12 90-129 80-422h193c0 187 160 285 358 285" id="R"/><path fill="#333" d="M589-945c-131 0-219 81-264 174V0H140v-1082h175l6 136c83-104 191-156 324-156 229 0 346 129 346 387V0H806v-716c-2-153-65-229-217-229" id="S"/><path fill="#333" d="M584 20C278 26 81-227 91-551c10-320 175-545 491-551 308-5 503 247 494 573-9 322-175 543-492 549zm-2-970c-208 0-305 185-305 421 0 216 106 398 307 398 211 0 307-186 307-420 0-214-109-399-309-399" id="T"/><path fill="#333" d="M1098-255l208-827h185L1176 0h-150L763-820 507 0H357L43-1082h184l213 810 252-810h149" id="U"/><path fill="#333" d="M494-271l252-811h198L509 167C425 381 299 474 84 421V271c167 16 242-37 283-173l41-110L22-1082h202" id="V"/><g id="d"><use transform="matrix(0.010850694444444444,0,0,0.010850694444444444,0,0)" xlink:href="#R"/><use transform="matrix(0.010850694444444444,0,0,0.010850694444444444,13.18359375,0)" xlink:href="#S"/><use transform="matrix(0.010850694444444444,0,0,0.010850694444444444,25.44487847222222,0)" xlink:href="#T"/><use transform="matrix(0.010850694444444444,0,0,0.010850694444444444,38.11848958333333,0)" xlink:href="#U"/><use transform="matrix(0.010850694444444444,0,0,0.010850694444444444,54.81770833333333,0)" xlink:href="#V"/></g><path fill="#333" d="M375 0H183v-1456h192V0" id="W"/><path fill="#333" d="M277-555c0 244 77 420 297 424 127 2 249-93 255-210h175C980-127 805 20 574 20 258 20 81-222 92-562c11-319 164-533 481-540 237-5 426 165 431 392H829c-7-133-115-242-256-240-209 4-296 166-296 395" id="X"/><g id="e"><use transform="matrix(0.010850694444444444,0,0,0.010850694444444444,0,0)" xlink:href="#W"/><use transform="matrix(0.010850694444444444,0,0,0.010850694444444444,6.043836805555555,0)" xlink:href="#X"/><use transform="matrix(0.010850694444444444,0,0,0.010850694444444444,17.67578125,0)" xlink:href="#V"/></g><path fill="#333" d="M1245-974c0 302-233 466-552 461H430V0H130v-1456h568c323 5 547 167 547 482zm-303 2c1-143-93-241-237-241H430v457h268c151 1 244-71 244-216" id="Y"/><path fill="#333" d="M1031-175C952-60 797 20 609 20 287 20 60-206 72-543c12-330 180-559 505-559 309 0 482 214 477 537v118H365c15 134 115 234 263 234 111 0 198-40 261-121zM770-644c5-139-62-226-194-224-130 1-191 97-208 224h402" id="Z"/><path fill="#333" d="M529-185c94 0 168-33 168-114 0-35-18-63-53-83s-91-39-168-55C219-491 90-600 90-765c0-208 203-337 432-337 246 0 451 124 453 349H686c-2-91-62-143-165-143-86 0-151 41-153 117 0 32 16 57 46 77 63 43 257 69 335 100 151 60 229 153 229 291C978-13 554 93 282-28 162-81 60-190 56-344h274c5 106 86 159 199 159" id="aa"/><path fill="#333" d="M719-811c-143-24-279 1-319 103V0H111v-1082h273l8 129c74-124 180-175 331-136" id="ab"/><g id="f"><use transform="matrix(0.010850694444444444,0,0,0.010850694444444444,0,0)" xlink:href="#Y"/><use transform="matrix(0.010850694444444444,0,0,0.010850694444444444,14.192708333333332,0)" xlink:href="#Z"/><use transform="matrix(0.010850694444444444,0,0,0.010850694444444444,26.204427083333332,0)" xlink:href="#J"/><use transform="matrix(0.010850694444444444,0,0,0.010850694444444444,38.72612847222222,0)" xlink:href="#Z"/><use transform="matrix(0.010850694444444444,0,0,0.010850694444444444,50.73784722222222,0)" xlink:href="#aa"/><use transform="matrix(0.010850694444444444,0,0,0.010850694444444444,62.16362847222222,0)" xlink:href="#N"/><use transform="matrix(0.010850694444444444,0,0,0.010850694444444444,69.67230902777777,0)" xlink:href="#ab"/><use transform="matrix(0.010850694444444444,0,0,0.010850694444444444,77.77777777777777,0)" xlink:href="#M"/><use transform="matrix(0.010850694444444444,0,0,0.010850694444444444,83.6697048611111,0)" xlink:href="#I"/><use transform="matrix(0.010850694444444444,0,0,0.010850694444444444,95.58376736111111,0)" xlink:href="#L"/></g><path fill="#333" d="M750-685c-1-124-48-182-173-182-85 0-146 33-184 98V0H104v-1536h289v572c77-92 173-138 289-138 235 0 357 136 357 409V0H750v-685" id="ac"/><path fill="#333" d="M515-409l200-673h310L590 168c-66 202-236 321-472 250V199c127 7 198-15 230-107l34-89L3-1082h311" id="ad"/><path fill="#333" d="M355-556c-2 203 30 338 206 343 102 3 181-63 182-161h271C1001-128 821 17 566 20 242 24 66-212 66-554c0-320 184-548 498-548 262 0 451 167 450 423H743c-1-108-75-193-184-189-162 6-202 123-204 312" id="ae"/><path fill="#333" d="M416 0H126v-1536h290V0" id="af"/><g id="g"><use transform="matrix(0.010850694444444444,0,0,0.010850694444444444,0,0)" xlink:href="#Y"/><use transform="matrix(0.010850694444444444,0,0,0.010850694444444444,14.33376736111111,0)" xlink:href="#ac"/><use transform="matrix(0.010850694444444444,0,0,0.010850694444444444,26.768663194444443,0)" xlink:href="#ad"/><use transform="matrix(0.010850694444444444,0,0,0.010850694444444444,37.92317708333333,0)" xlink:href="#aa"/><use transform="matrix(0.010850694444444444,0,0,0.010850694444444444,49.34895833333333,0)" xlink:href="#M"/><use transform="matrix(0.010850694444444444,0,0,0.010850694444444444,55.240885416666664,0)" xlink:href="#ae"/><use transform="matrix(0.010850694444444444,0,0,0.010850694444444444,66.82942708333333,0)" xlink:href="#I"/><use transform="matrix(0.010850694444444444,0,0,0.010850694444444444,78.74348958333333,0)" xlink:href="#af"/></g><g id="h"><use transform="matrix(0.010850694444444444,0,0,0.010850694444444444,0,0)" xlink:href="#K"/><use transform="matrix(0.010850694444444444,0,0,0.010850694444444444,14.539930555555555,0)" xlink:href="#H"/><use transform="matrix(0.010850694444444444,0,0,0.010850694444444444,27.10503472222222,0)" xlink:href="#L"/><use transform="matrix(0.010850694444444444,0,0,0.010850694444444444,39.55078125,0)" xlink:href="#J"/><use transform="matrix(0.010850694444444444,0,0,0.010850694444444444,52.072482638888886,0)" xlink:href="#M"/><use transform="matrix(0.010850694444444444,0,0,0.010850694444444444,57.96440972222222,0)" xlink:href="#N"/><use transform="matrix(0.010850694444444444,0,0,0.010850694444444444,65.47309027777777,0)" xlink:href="#M"/><use transform="matrix(0.010850694444444444,0,0,0.010850694444444444,71.3650173611111,0)" xlink:href="#H"/><use transform="matrix(0.010850694444444444,0,0,0.010850694444444444,83.93012152777777,0)" xlink:href="#L"/></g><path fill="#333" d="M972-643H361V0H169v-1456h902v158H361v498h611v157" id="ag"/><path fill="#333" d="M561-1102c238-4 403 126 403 351v498c0 99 13 178 38 237V0H808c-11-21-19-59-26-114C696-25 593 20 474 20c-199 0-368-130-365-320 4-251 214-359 490-356h180v-85c-1-135-86-212-229-212-115 0-232 67-233 171H131c20-205 206-316 430-320zM294-326c0 117 90 185 207 185 122 0 239-75 278-162v-222H634c-227 0-340 66-340 199" id="ah"/><path fill="#333" d="M341 0H156v-1536h185V0" id="ai"/><g id="i"><use transform="matrix(0.010850694444444444,0,0,0.010850694444444444,0,0)" xlink:href="#ag"/><use transform="matrix(0.010850694444444444,0,0,0.010850694444444444,11.9140625,0)" xlink:href="#ah"/><use transform="matrix(0.010850694444444444,0,0,0.010850694444444444,24.00173611111111,0)" xlink:href="#Q"/><use transform="matrix(0.010850694444444444,0,0,0.010850694444444444,31.260850694444443,0)" xlink:href="#ah"/><use transform="matrix(0.010850694444444444,0,0,0.010850694444444444,43.34852430555556,0)" xlink:href="#ai"/></g><path fill="#333" d="M19 279c92 0 127-48 127-150v-1211h185V125c0 208-94 312-283 312-41 0-78-6-113-18V271c21 5 49 8 84 8zm216-1543c-68 0-107-42-108-105 0-61 42-107 108-107 68 0 110 44 110 107s-42 105-110 105" id="aj"/><path fill="#333" d="M491 20c-241-1-355-148-355-398v-704h185v699c0 164 67 246 200 246 141 0 235-53 282-158v-787h185V0H812l-4-107C736-22 630 20 491 20" id="ak"/><path fill="#333" d="M663-916c-163-27-288 18-338 148V0H140v-1082h180l3 125c61-97 147-145 258-145 36 0 63 5 82 14v172" id="al"/><g id="j"><use transform="matrix(0.010850694444444444,0,0,0.010850694444444444,0,0)" xlink:href="#W"/><use transform="matrix(0.010850694444444444,0,0,0.010850694444444444,6.043836805555555,0)" xlink:href="#S"/><use transform="matrix(0.010850694444444444,0,0,0.010850694444444444,18.30512152777778,0)" xlink:href="#aj"/><use transform="matrix(0.010850694444444444,0,0,0.010850694444444444,23.61111111111111,0)" xlink:href="#ak"/><use transform="matrix(0.010850694444444444,0,0,0.010850694444444444,35.861545138888886,0)" xlink:href="#al"/><use transform="matrix(0.010850694444444444,0,0,0.010850694444444444,43.576388888888886,0)" xlink:href="#V"/></g><path fill="#333" d="M1216-1011c-1 297-202 441-512 441H361V0H169v-1456h537c297-6 510 164 510 445zm-192 2c1-178-126-288-307-289H361v571h345c196 1 318-92 318-282" id="am"/><path fill="#333" d="M538-131c121 0 232-49 232-156 0-50-20-88-56-117-73-60-334-92-420-143-92-55-162-110-162-238 0-190 192-317 400-317 223 0 414 129 413 338H759c0-108-110-186-227-186-119 0-215 53-215 159 0 45 18 78 53 101 76 52 331 90 416 139 98 57 169 115 169 251C955-92 760 20 538 20c-176 0-314-68-386-174-38-55-57-115-57-179h185c6 129 116 202 258 202" id="an"/><path fill="#333" d="M341 0H156v-1082h185V0zm-91-1264c-68 0-108-42-109-105 0-62 41-107 109-107s110 44 110 107-42 105-110 105" id="ao"/><path fill="#333" d="M634-1102c292 0 422 254 422 573 0 298-143 547-420 549-137 0-242-48-317-145L310 0H140v-1536h185v573c75-93 178-139 309-139zm-44 965c207 0 281-175 281-413 0-224-79-395-283-395-122 0-210 57-263 170v468c57 113 145 170 265 170" id="ap"/><g id="k"><use transform="matrix(0.010850694444444444,0,0,0.010850694444444444,0,0)" xlink:href="#am"/><use transform="matrix(0.010850694444444444,0,0,0.010850694444444444,13.878038194444445,0)" xlink:href="#T"/><use transform="matrix(0.010850694444444444,0,0,0.010850694444444444,26.551649305555554,0)" xlink:href="#an"/><use transform="matrix(0.010850694444444444,0,0,0.010850694444444444,38.009982638888886,0)" xlink:href="#an"/><use transform="matrix(0.010850694444444444,0,0,0.010850694444444444,49.46831597222221,0)" xlink:href="#ao"/><use transform="matrix(0.010850694444444444,0,0,0.010850694444444444,54.8611111111111,0)" xlink:href="#ap"/><use transform="matrix(0.010850694444444444,0,0,0.010850694444444444,67.32855902777777,0)" xlink:href="#ai"/><use transform="matrix(0.010850694444444444,0,0,0.010850694444444444,72.72135416666666,0)" xlink:href="#P"/></g><path fill="#333" d="M1161-1018c0 201-122 330-278 388l342 618V0h-206L703-589H361V0H168v-1456h482c310-2 511 139 511 438zm-193 0c0-187-120-280-313-280H361v552h295c179 3 313-101 312-272" id="aq"/><path fill="#333" d="M520 20C244 20 95-247 95-550c0-298 151-550 427-552 127 0 227 43 301 130v-564h185V0H838l-9-116C755-25 652 20 520 20zm48-965c-210 0-288 177-288 416 0 218 87 392 286 392 117 0 203-53 257-158v-497c-55-102-140-153-255-153" id="ar"/><g id="l"><use transform="matrix(0.011935763888888888,0,0,0.011935763888888888,0,0)" xlink:href="#aq"/><use transform="matrix(0.011935763888888888,0,0,0.011935763888888888,15.050998263888888,0)" xlink:href="#T"/><use transform="matrix(0.011935763888888888,0,0,0.011935763888888888,28.99197048611111,0)" xlink:href="#ah"/><use transform="matrix(0.011935763888888888,0,0,0.011935763888888888,42.28841145833333,0)" xlink:href="#ar"/></g><path fill="#333" d="M688-137c238 0 323-102 359-325h193c-32 297-228 482-552 482-361 0-569-299-569-680 0-197 8-360 73-497 88-186 257-317 513-319 316-2 509 195 535 488h-193c-31-212-118-330-342-330-272 0-397 224-393 523v141c-3 282 115 517 376 517" id="as"/><g id="m"><use transform="matrix(0.011935763888888888,0,0,0.011935763888888888,0,0)" xlink:href="#as"/><use transform="matrix(0.011935763888888888,0,0,0.011935763888888888,15.910373263888888,0)" xlink:href="#T"/><use transform="matrix(0.011935763888888888,0,0,0.011935763888888888,29.85134548611111,0)" xlink:href="#S"/><use transform="matrix(0.011935763888888888,0,0,0.011935763888888888,43.33875868055555,0)" xlink:href="#ar"/><use transform="matrix(0.011935763888888888,0,0,0.011935763888888888,57.12456597222222,0)" xlink:href="#ao"/><use transform="matrix(0.011935763888888888,0,0,0.011935763888888888,63.05664062499999,0)" xlink:href="#Q"/><use transform="matrix(0.011935763888888888,0,0,0.011935763888888888,71.04166666666666,0)" xlink:href="#ao"/><use transform="matrix(0.011935763888888888,0,0,0.011935763888888888,76.97374131944443,0)" xlink:href="#T"/><use transform="matrix(0.011935763888888888,0,0,0.011935763888888888,90.91471354166666,0)" xlink:href="#S"/></g><path fill="#333" d="M277-1536c5 179-19 330-30 494H136l1-494h140zm270 0c5 179-19 330-30 494H406l1-494h140" id="at"/><g id="n"><use transform="matrix(0.011935763888888888,0,0,0.011935763888888888,0,0)" xlink:href="#at"/><use transform="matrix(0.011935763888888888,0,0,0.011935763888888888,7.817925347222221,0)" xlink:href="#O"/><use transform="matrix(0.011935763888888888,0,0,0.011935763888888888,29.135199652777775,0)" xlink:href="#P"/><use transform="matrix(0.011935763888888888,0,0,0.011935763888888888,42.08550347222222,0)" xlink:href="#Q"/><use transform="matrix(0.011935763888888888,0,0,0.011935763888888888,50.070529513888886,0)" xlink:href="#at"/></g><path fill="#333" d="M1248-1138c106 220 104 603 2 820-91 195-274 338-542 338C281 20 86-300 86-759c0-291 115-515 296-629 182-114 467-115 648 0 94 60 166 141 218 250zM940-344c111-153 110-617 0-765-57-77-133-119-234-119s-177 41-233 118c-64 88-83 240-83 415 0 149 27 264 82 346s133 123 236 123c101 0 176-40 232-118" id="au"/><g id="o"><use transform="matrix(0.011935763888888888,0,0,0.011935763888888888,0,0)" xlink:href="#au"/><use transform="matrix(0.011935763888888888,0,0,0.011935763888888888,16.87717013888889,0)" xlink:href="#G"/></g><g id="p"><use transform="matrix(0.011935763888888888,0,0,0.011935763888888888,0,0)" xlink:href="#at"/><use transform="matrix(0.011935763888888888,0,0,0.011935763888888888,7.817925347222221,0)" xlink:href="#R"/><use transform="matrix(0.011935763888888888,0,0,0.011935763888888888,22.31987847222222,0)" xlink:href="#S"/><use transform="matrix(0.011935763888888888,0,0,0.011935763888888888,35.807291666666664,0)" xlink:href="#T"/><use transform="matrix(0.011935763888888888,0,0,0.011935763888888888,49.748263888888886,0)" xlink:href="#U"/><use transform="matrix(0.011935763888888888,0,0,0.011935763888888888,68.11740451388889,0)" xlink:href="#V"/><use transform="matrix(0.011935763888888888,0,0,0.011935763888888888,79.86219618055554,0)" xlink:href="#at"/></g><g id="q"><use transform="matrix(0.011935763888888888,0,0,0.011935763888888888,0,0)" xlink:href="#at"/><use transform="matrix(0.011935763888888888,0,0,0.011935763888888888,7.817925347222221,0)" xlink:href="#W"/><use transform="matrix(0.011935763888888888,0,0,0.011935763888888888,14.466145833333332,0)" xlink:href="#X"/><use transform="matrix(0.011935763888888888,0,0,0.011935763888888888,27.26128472222222,0)" xlink:href="#V"/><use transform="matrix(0.011935763888888888,0,0,0.011935763888888888,39.006076388888886,0)" xlink:href="#at"/></g><path fill="#333" d="M730-137c145 0 253-29 323-105v-327H716v-156h528v534C1148-51 964 20 729 20c-394 0-598-279-607-678v-127c-5-410 194-690 585-691 310-1 499 171 537 447h-192c-36-193-151-289-344-289-285 0-393 220-393 528v119c-5 296 140 534 415 534" id="av"/><g id="r"><use transform="matrix(0.011935763888888888,0,0,0.011935763888888888,0,0)" xlink:href="#av"/><use transform="matrix(0.011935763888888888,0,0,0.011935763888888888,16.650390625,0)" xlink:href="#P"/><use transform="matrix(0.011935763888888888,0,0,0.011935763888888888,29.600694444444443,0)" xlink:href="#Q"/></g><path fill="#333" d="M589-945c-131 0-219 81-264 174V0H140v-1536h185v585c82-101 189-151 320-151 229 0 346 129 346 387V0H806v-716c-2-153-65-229-217-229" id="aw"/><g id="s"><use transform="matrix(0.011935763888888888,0,0,0.011935763888888888,0,0)" xlink:href="#X"/><use transform="matrix(0.011935763888888888,0,0,0.011935763888888888,12.795138888888888,0)" xlink:href="#al"/><use transform="matrix(0.011935763888888888,0,0,0.011935763888888888,20.589192708333332,0)" xlink:href="#ah"/><use transform="matrix(0.011935763888888888,0,0,0.011935763888888888,33.88563368055556,0)" xlink:href="#an"/><use transform="matrix(0.011935763888888888,0,0,0.011935763888888888,46.48980034722222,0)" xlink:href="#aw"/><use transform="matrix(0.011935763888888888,0,0,0.011935763888888888,59.953342013888886,0)" xlink:href="#P"/><use transform="matrix(0.011935763888888888,0,0,0.011935763888888888,72.90364583333333,0)" xlink:href="#an"/></g><g id="t"><use transform="matrix(0.011935763888888888,0,0,0.011935763888888888,0,0)" xlink:href="#U"/><use transform="matrix(0.011935763888888888,0,0,0.011935763888888888,18.369140625,0)" xlink:href="#ao"/><use transform="matrix(0.011935763888888888,0,0,0.011935763888888888,24.30121527777778,0)" xlink:href="#Q"/><use transform="matrix(0.011935763888888888,0,0,0.011935763888888888,32.28624131944444,0)" xlink:href="#aw"/></g><path fill="#333" d="M952-300H426L326 0H7l542-1456h278L1372 0h-319zM507-543h364l-183-545" id="ax"/><path fill="#333" d="M1314 0h-300L430-958V0H130v-1456h300l585 960v-960h299V0" id="ay"/><path fill="#333" d="M130 0v-1456h448c435 14 673 299 665 762-5 285-130 500-319 606C822-31 708 0 581 0H130zm809-685c9-311-79-526-361-528H430v972h145c252-2 356-181 364-444" id="az"/><g id="u"><use transform="matrix(0.014105902777777776,0,0,0.014105902777777776,0,0)" xlink:href="#ax"/><use transform="matrix(0.014105902777777776,0,0,0.014105902777777776,19.437934027777775,0)" xlink:href="#ay"/><use transform="matrix(0.014105902777777776,0,0,0.014105902777777776,39.83506944444444,0)" xlink:href="#az"/></g><g id="v"><use transform="matrix(0.011935763888888888,0,0,0.011935763888888888,0,0)" xlink:href="#am"/><use transform="matrix(0.011935763888888888,0,0,0.011935763888888888,15.265842013888888,0)" xlink:href="#P"/><use transform="matrix(0.011935763888888888,0,0,0.011935763888888888,28.216145833333325,0)" xlink:href="#ar"/><use transform="matrix(0.011935763888888888,0,0,0.011935763888888888,42.00195312499999,0)" xlink:href="#P"/><use transform="matrix(0.011935763888888888,0,0,0.011935763888888888,54.95225694444444,0)" xlink:href="#an"/><use transform="matrix(0.011935763888888888,0,0,0.011935763888888888,67.5564236111111,0)" xlink:href="#Q"/><use transform="matrix(0.011935763888888888,0,0,0.011935763888888888,75.54144965277777,0)" xlink:href="#al"/><use transform="matrix(0.011935763888888888,0,0,0.011935763888888888,83.81293402777777,0)" xlink:href="#ao"/><use transform="matrix(0.011935763888888888,0,0,0.011935763888888888,89.74500868055554,0)" xlink:href="#ah"/><use transform="matrix(0.011935763888888888,0,0,0.011935763888888888,103.04144965277777,0)" xlink:href="#S"/></g><g id="w"><use transform="matrix(0.011935763888888888,0,0,0.011935763888888888,0,0)" xlink:href="#am"/><use transform="matrix(0.011935763888888888,0,0,0.011935763888888888,15.421006944444443,0)" xlink:href="#aw"/><use transform="matrix(0.011935763888888888,0,0,0.011935763888888888,28.88454861111111,0)" xlink:href="#V"/><use transform="matrix(0.011935763888888888,0,0,0.011935763888888888,40.45030381944444,0)" xlink:href="#an"/><use transform="matrix(0.011935763888888888,0,0,0.011935763888888888,53.05447048611111,0)" xlink:href="#ao"/><use transform="matrix(0.011935763888888888,0,0,0.011935763888888888,58.986545138888886,0)" xlink:href="#X"/><use transform="matrix(0.011935763888888888,0,0,0.011935763888888888,71.78168402777777,0)" xlink:href="#ah"/><use transform="matrix(0.011935763888888888,0,0,0.011935763888888888,85.078125,0)" xlink:href="#ai"/></g><g id="x"><use transform="matrix(0.011935763888888888,0,0,0.011935763888888888,0,0)" xlink:href="#at"/><use transform="matrix(0.011935763888888888,0,0,0.011935763888888888,7.817925347222221,0)" xlink:href="#ag"/><use transform="matrix(0.011935763888888888,0,0,0.011935763888888888,20.92339409722222,0)" xlink:href="#ah"/><use transform="matrix(0.011935763888888888,0,0,0.011935763888888888,34.21983506944444,0)" xlink:href="#Q"/><use transform="matrix(0.011935763888888888,0,0,0.011935763888888888,42.20486111111111,0)" xlink:href="#ah"/><use transform="matrix(0.011935763888888888,0,0,0.011935763888888888,55.50130208333333,0)" xlink:href="#ai"/></g><g id="y"><use transform="matrix(0.011935763888888888,0,0,0.011935763888888888,0,0)" xlink:href="#W"/><use transform="matrix(0.011935763888888888,0,0,0.011935763888888888,6.648220486111111,0)" xlink:href="#S"/><use transform="matrix(0.011935763888888888,0,0,0.011935763888888888,20.135633680555554,0)" xlink:href="#aj"/><use transform="matrix(0.011935763888888888,0,0,0.011935763888888888,25.97222222222222,0)" xlink:href="#ak"/><use transform="matrix(0.011935763888888888,0,0,0.011935763888888888,39.44769965277778,0)" xlink:href="#al"/><use transform="matrix(0.011935763888888888,0,0,0.011935763888888888,47.93402777777778,0)" xlink:href="#V"/><use transform="matrix(0.011935763888888888,0,0,0.011935763888888888,59.67881944444444,0)" xlink:href="#at"/></g><g id="z"><use transform="matrix(0.011935763888888888,0,0,0.011935763888888888,0,0)" xlink:href="#at"/><use transform="matrix(0.011935763888888888,0,0,0.011935763888888888,7.817925347222221,0)" xlink:href="#am"/><use transform="matrix(0.011935763888888888,0,0,0.011935763888888888,23.083767361111107,0)" xlink:href="#T"/><use transform="matrix(0.011935763888888888,0,0,0.011935763888888888,37.02473958333333,0)" xlink:href="#an"/><use transform="matrix(0.011935763888888888,0,0,0.011935763888888888,49.62890625,0)" xlink:href="#an"/><use transform="matrix(0.011935763888888888,0,0,0.011935763888888888,62.23307291666665,0)" xlink:href="#ao"/><use transform="matrix(0.011935763888888888,0,0,0.011935763888888888,68.16514756944443,0)" xlink:href="#ap"/><use transform="matrix(0.011935763888888888,0,0,0.011935763888888888,81.87934027777776,0)" xlink:href="#ai"/><use transform="matrix(0.011935763888888888,0,0,0.011935763888888888,87.81141493055553,0)" xlink:href="#P"/></g><g id="A"><use transform="matrix(0.011935763888888888,0,0,0.011935763888888888,0,0)" xlink:href="#W"/><use transform="matrix(0.011935763888888888,0,0,0.011935763888888888,6.648220486111111,0)" xlink:href="#S"/><use transform="matrix(0.011935763888888888,0,0,0.011935763888888888,20.135633680555554,0)" xlink:href="#aj"/><use transform="matrix(0.011935763888888888,0,0,0.011935763888888888,25.97222222222222,0)" xlink:href="#ak"/><use transform="matrix(0.011935763888888888,0,0,0.011935763888888888,39.44769965277778,0)" xlink:href="#al"/><use transform="matrix(0.011935763888888888,0,0,0.011935763888888888,47.93402777777778,0)" xlink:href="#V"/><use transform="matrix(0.011935763888888888,0,0,0.011935763888888888,59.67881944444444,0)" xlink:href="#at"/></g><g id="D"><use transform="matrix(0.011935763888888888,0,0,0.011935763888888888,0,0)" xlink:href="#av"/><use transform="matrix(0.011935763888888888,0,0,0.011935763888888888,16.650390625,0)" xlink:href="#P"/><use transform="matrix(0.011935763888888888,0,0,0.011935763888888888,29.600694444444443,0)" xlink:href="#Q"/></g><g id="E"><use transform="matrix(0.011935763888888888,0,0,0.011935763888888888,0,0)" xlink:href="#U"/><use transform="matrix(0.011935763888888888,0,0,0.011935763888888888,18.369140625,0)" xlink:href="#ao"/><use transform="matrix(0.011935763888888888,0,0,0.011935763888888888,24.30121527777778,0)" xlink:href="#Q"/><use transform="matrix(0.011935763888888888,0,0,0.011935763888888888,32.28624131944444,0)" xlink:href="#aw"/></g><g id="F"><use transform="matrix(0.011935763888888888,0,0,0.011935763888888888,0,0)" xlink:href="#aq"/><use transform="matrix(0.011935763888888888,0,0,0.011935763888888888,15.050998263888888,0)" xlink:href="#T"/><use transform="matrix(0.011935763888888888,0,0,0.011935763888888888,28.99197048611111,0)" xlink:href="#ah"/><use transform="matrix(0.011935763888888888,0,0,0.011935763888888888,42.28841145833333,0)" xlink:href="#ar"/></g></defs></g></svg>