<svg xmlns="http://www.w3.org/2000/svg" xmlns:xlink="http://www.w3.org/1999/xlink" xmlns:lucid="lucid" width="750" height="300"><g transform="translate(-86 -376)" lucid:page-tab-id="0_0"><path d="M100 26c0-3.3 2.7-6 6-6h248c3.3 0 6 2.7 6 6v328c0 3.3-2.7 6-6 6H106c-3.3 0-6-2.7-6-6zM560 26c0-3.3 2.7-6 6-6h248c3.3 0 6 2.7 6 6v328c0 3.3-2.7 6-6 6H566c-3.3 0-6-2.7-6-6zM560 701.8c0-3.3 2.7-6 6-6h248c3.3 0 6 2.7 6 6v515.38c0 3.32-2.7 6-6 6H566c-3.3 0-6-2.68-6-6zM100 406c0-3.3 2.7-6 6-6h248c3.3 0 6 2.7 6 6v248c0 3.3-2.7 6-6 6H106c-3.3 0-6-2.7-6-6z" stroke="#5e5e5e" stroke-width="3" fill="#fff"/><path d="M100 406c0-3.3 2.7-6 6-6h248c3.3 0 6 2.7 6 6v43.7c0 3.33-2.7 6-6 6H106c-3.3 0-6-2.67-6-6z" stroke="#5e5e5e" stroke-width="3" fill="#fcce14"/><use xlink:href="#a" transform="matrix(1,0,0,1,105.00000000000003,405) translate(48.45377604166667 29.241319444444443)"/><use xlink:href="#b" transform="matrix(1,0,0,1,105.00000000000003,405) translate(105.17035590277777 29.241319444444443)"/><path d="M120 486c0-3.3 2.7-6 6-6h28c3.3 0 6 2.7 6 6v28c0 3.3-2.7 6-6 6h-28c-3.3 0-6-2.7-6-6zM180 486c0-3.3 2.7-6 6-6h148c3.3 0 6 2.7 6 6v28c0 3.3-2.7 6-6 6H186c-3.3 0-6-2.7-6-6z" stroke="#5e5e5e" stroke-width="3" fill="#c3f7c8"/><use xlink:href="#c" transform="matrix(1,0,0,1,185,485) translate(55.794270833333336 22.491319444444443)"/><path d="M120 546c0-3.3 2.7-6 6-6h28c3.3 0 6 2.7 6 6v28c0 3.3-2.7 6-6 6h-28c-3.3 0-6-2.7-6-6zM180 546c0-3.3 2.7-6 6-6h148c3.3 0 6 2.7 6 6v28c0 3.3-2.7 6-6 6H186c-3.3 0-6-2.7-6-6z" stroke="#5e5e5e" stroke-width="3" fill="#c3f7c8"/><use xlink:href="#d" transform="matrix(1,0,0,1,185,545) translate(42.333984375 22.491319444444443)"/><path d="M120 606c0-3.3 2.7-6 6-6h28c3.3 0 6 2.7 6 6v28c0 3.3-2.7 6-6 6h-28c-3.3 0-6-2.7-6-6zM180 606c0-3.3 2.7-6 6-6h148c3.3 0 6 2.7 6 6v28c0 3.3-2.7 6-6 6H186c-3.3 0-6-2.7-6-6z" stroke="#5e5e5e" stroke-width="3" fill="#c3f7c8"/><use xlink:href="#e" transform="matrix(1,0,0,1,185,605) translate(60.90494791666667 22.491319444444443)"/><path d="M380 526c0-3.3 2.7-6 6-6h112c3.3 0 6-2.7 6-6v-8c0-3.3 1.8-4 4-1.54l28 31.08c2.2 2.46 2.2 6.46 0 8.92l-28 31.08c-2.2 2.46-4 1.77-4-1.54v-8c0-3.3-2.7-6-6-6H386c-3.3 0-6-2.7-6-6z" stroke="#5e5e5e" stroke-width="3" fill="#ffdda6"/><path d="M155.04 491.54l-16.86 23.15c-1.25 1.68-3.26 1.68-4.5 0l-8.72-12c-1.24-1.68-1.24-4.46 0-6.18 1.25-1.72 3.3-1.72 4.54 0l6.4 8.84 14.6-20.05c1.25-1.68 3.3-1.68 4.54 0 1.24 1.74 1.24 4.5 0 6.24zM155.04 551.8l-16.86 23.14c-1.25 1.7-3.26 1.7-4.5 0l-8.72-11.98c-1.24-1.7-1.24-4.47 0-6.2 1.25-1.7 3.3-1.7 4.54 0l6.4 8.85 14.6-20.04c1.25-1.7 3.3-1.7 4.54 0 1.24 1.73 1.24 4.5 0 6.23zM155.04 611.54l-16.86 23.15c-1.25 1.68-3.26 1.68-4.5 0l-8.72-12c-1.24-1.68-1.24-4.46 0-6.18 1.25-1.72 3.3-1.72 4.54 0l6.4 8.84 14.6-20.05c1.25-1.68 3.3-1.68 4.54 0 1.24 1.74 1.24 4.5 0 6.24z" stroke="#000" stroke-opacity="0" fill="#5e5e5e"/><path d="M560 401.96c0-3.3 2.7-6 6-6h248c3.3 0 6 2.7 6 6V654c0 3.3-2.7 6-6 6H566c-3.3 0-6-2.7-6-6z" stroke="#5e5e5e" stroke-width="3" fill="#fff"/><use xlink:href="#f" transform="matrix(1,0,0,1,565,400.96458047292685) translate(125 46.584201388888886)"/><use xlink:href="#g" transform="matrix(1,0,0,1,565,400.96458047292685) translate(125 75.23003472222221)"/><use xlink:href="#g" transform="matrix(1,0,0,1,565,400.96458047292685) translate(125 103.87586805555554)"/><use xlink:href="#g" transform="matrix(1,0,0,1,565,400.96458047292685) translate(125 132.52170138888886)"/><use xlink:href="#h" transform="matrix(1,0,0,1,565,400.96458047292685) translate(34.526909722222214 161.1675347222222)"/><use xlink:href="#i" transform="matrix(1,0,0,1,565,400.96458047292685) translate(78.16406249999999 161.1675347222222)"/><use xlink:href="#j" transform="matrix(1,0,0,1,565,400.96458047292685) translate(169.72330729166669 161.1675347222222)"/><use xlink:href="#k" transform="matrix(1,0,0,1,565,400.96458047292685) translate(9.766167534722229 189.81336805555551)"/><use xlink:href="#l" transform="matrix(1,0,0,1,565,400.96458047292685) translate(71.89181857638889 189.81336805555551)"/><use xlink:href="#m" transform="matrix(1,0,0,1,565,400.96458047292685) translate(182.34537760416666 189.81336805555551)"/><use xlink:href="#n" transform="matrix(1,0,0,1,565,400.96458047292685) translate(16.1935763888889 218.45920138888883)"/><use xlink:href="#o" transform="matrix(1,0,0,1,565,400.96458047292685) translate(54.72222222222223 218.45920138888883)"/><use xlink:href="#n" transform="matrix(1,0,0,1,565,400.96458047292685) translate(148.45377604166669 218.45920138888883)"/><use xlink:href="#p" transform="matrix(1,0,0,1,565,400.96458047292685) translate(186.982421875 218.45920138888883)"/><path d="M656.27 450.5l-7.38-3.4c-3.85-1.7-6.26-2.3-6.26-7.2.14-2 1.56-4.6 2.4-6.4l4.56-10.1c.85-1.9 1.84-3.1 3.97-3.4 1.57-.2 3.4.8 4.83 1.5l7.25 3.3 18.9 8.6 12.2 5.7 5.12-11.4c.85-1.8 1.27-3.7 3.12-4.8 2.4-1.5 5.1-.1 7.38 1l12.5 5.8c1.27.9 2.55 2.3 3.4 3.5 1 1.8 1.85 4.4 2.56 6.4l4.26 11.5c.43 1.2 2.27 6.6 2.98 7.3.57.6 4.4 2.7 5.4 3.3l11.8 6.7c3.12 1.7 6.24 3.1 5.96 7.4-.15 1.9-1.57 5.1-2.28 6.9l-1.7 4.5c-1.42 3.7-2.56 5.7-6.82 5.6-2 0-3.98-1.2-5.82-2l-6.68-3c-3.4 6.9-13.35 8.6-19.46 4.3-3.83-2.7-5.54-6.9-5.54-11.5 0-1.5.15-2.6.86-4l-8.8-3.9-12.8-5.8-11.78-5.2c-.43 1.4-1.42 2.6-2.56 3.5-4.26 3.5-10.65 4.3-15.48 1.6-4.26-2.3-7.1-7.4-6.82-12.3 0-1.2.43-2.8.7-4zm68.9 1.1l-3.42-9.3-2-4.5-3.68-1.9-6.1-2.7-4.27 9.9 13.35 6 6.1 2.5zm-56.4-3.1c-1.42.2-2.84.6-3.98 1.6-4.13 3.7-1.7 11.3 5.1 10.8 3.84-.3 6.26-4.7 4.98-8.2-1-2.7-3.27-4.2-6.1-4.2zM627.3 452c1.84 0 5.4.8 7.38 1.1 2.7.5 6.1.7 8.24 2.5l8.24 9c1.28 1.5 3.27 3.9 5.1 4.7l15.5 3.5c3.4 1.2 5.4 5.5 8.52 7.2 1.27.8 2.4.9 3.97.9h3.4c3.14 0 5.4 1.2 8.25 2.2l11.22 4.3c2.84 1.2 8.38 8.3 11.08 9.5l14.2 3.1 7.1 4.4c4.12 2.6 6.25 3.4 9.52 7.3 1.85 2.3 2.13 5.8-.7 7.5-1.15.7-3.13.8-4.55.8h-95.74-15.76c-2.42 0-6.4.2-8.67-.5-3.12-.9-4.26-3.7-4.26-6.7V467c0-2.9-.57-8.5.85-10.9.85-1.4 2.4-2.4 3.83-3.2 1.28-.6 1.85-.7 3.27-.9zm98.7 22.6c-3.1.5-5.67 2.4-5.8 5.7-.3 3.5 2.26 6.6 5.8 6.7 1.15 0 1.86 0 2.85-.5 6.4-2.9 3.98-12.1-2.84-11.9z" stroke="#000" stroke-width=".94" fill="#5e5e5e"/><defs><path fill="#333" d="M1209-1016c0 219-100 334-260 407l315 595V0H942L669-533H430V0H130v-1456h541c318-3 538 141 538 440zm-300 24c-1-144-85-221-238-221H430v437h242c144 2 238-77 237-216" id="q"/><path fill="#333" d="M579 20C257 20 58-214 66-551c8-331 182-551 511-551 324 0 514 231 514 572 0 319-198 550-512 550zm-2-888c-169 0-222 141-222 338 0 181 61 317 224 317 170 0 223-137 223-338 0-178-64-317-225-317" id="r"/><path fill="#333" d="M552-1102c254-4 435 134 435 383v469c1 103 15 180 43 233V0H738c-13-26-23-58-29-97C639-19 548 20 436 20 238 20 64-113 68-304c5-258 212-357 496-357h133c11-137-29-227-160-227-90 0-156 45-156 131H92c15-231 213-342 460-345zM357-325c0 76 61 124 142 124 88 0 168-45 198-105v-186H589c-152 2-232 51-232 167" id="s"/><path fill="#333" d="M488 20C204 20 66-234 66-549c0-305 140-551 424-553 105 0 192 39 261 118v-552h290V0H780l-14-115C694-25 601 20 488 20zM355-528c0 176 51 314 207 314 89 0 152-38 189-113v-427c-36-75-98-113-187-113-139 0-209 113-209 339" id="t"/><g id="a"><use transform="matrix(0.010850694444444444,0,0,0.010850694444444444,0,0)" xlink:href="#q"/><use transform="matrix(0.010850694444444444,0,0,0.010850694444444444,14.181857638888888,0)" xlink:href="#r"/><use transform="matrix(0.010850694444444444,0,0,0.010850694444444444,26.746961805555554,0)" xlink:href="#s"/><use transform="matrix(0.010850694444444444,0,0,0.010850694444444444,38.66102430555556,0)" xlink:href="#t"/></g><path fill="#333" d="M687-225c189-1 272-84 286-260h300c-19 311-251 505-586 505C296 20 86-277 86-686c0-466 174-782 605-790 340-6 557 198 584 514H975c-15-183-92-268-284-268-100 0-173 38-225 108-63 84-76 264-76 443 0 157 24 272 72 345s122 109 225 109" id="u"/><path fill="#333" d="M750-692c-1-124-48-174-173-175-81 0-142 35-183 104V0H105v-1082h272l9 125c77-97 181-145 311-145 244 0 342 151 342 403V0H750v-692" id="v"/><path fill="#333" d="M416 0H126v-1082h290V0zM271-1212c-92 0-162-61-162-150s68-149 162-149c93 0 162 60 162 149s-70 150-162 150" id="w"/><path fill="#333" d="M457-330c2 83 25 111 111 112 32 0 60-2 85-7V-6c-57 17-115 26-175 26-203 0-310-102-310-307v-583H10v-212h158v-266h289v266h185v212H457v540" id="x"/><g id="b"><use transform="matrix(0.010850694444444444,0,0,0.010850694444444444,0,0)" xlink:href="#u"/><use transform="matrix(0.010850694444444444,0,0,0.010850694444444444,14.539930555555555,0)" xlink:href="#r"/><use transform="matrix(0.010850694444444444,0,0,0.010850694444444444,27.10503472222222,0)" xlink:href="#v"/><use transform="matrix(0.010850694444444444,0,0,0.010850694444444444,39.55078125,0)" xlink:href="#t"/><use transform="matrix(0.010850694444444444,0,0,0.010850694444444444,52.072482638888886,0)" xlink:href="#w"/><use transform="matrix(0.010850694444444444,0,0,0.010850694444444444,57.96440972222222,0)" xlink:href="#x"/><use transform="matrix(0.010850694444444444,0,0,0.010850694444444444,65.47309027777777,0)" xlink:href="#w"/><use transform="matrix(0.010850694444444444,0,0,0.010850694444444444,71.3650173611111,0)" xlink:href="#r"/><use transform="matrix(0.010850694444444444,0,0,0.010850694444444444,83.93012152777777,0)" xlink:href="#v"/></g><path fill="#333" d="M483-459l28 192 41-173 288-1016h162l281 1016 40 176 31-196 226-996h193L1420 0h-175L945-1061l-23-111-23 111L588 0H413L61-1456h192" id="y"/><path fill="#333" d="M599-131c141 0 220-65 285-146l113 88C906-50 770 20 589 20 281 21 93-214 93-545c0-223 93-397 233-485 74-48 154-72 240-72 300 2 449 218 445 537v77H278c0 197 129 357 321 357zm227-509c-3-180-88-310-260-310-170 0-264 140-282 310h542" id="z"/><path fill="#333" d="M456 20C285 20 205-92 206-268v-671H9v-143h197v-262h185v262h202v143H391v671c-9 125 92 149 207 118V0c-49 13-96 20-142 20" id="A"/><g id="c"><use transform="matrix(0.010850694444444444,0,0,0.010850694444444444,0,0)" xlink:href="#y"/><use transform="matrix(0.010850694444444444,0,0,0.010850694444444444,19.379340277777775,0)" xlink:href="#z"/><use transform="matrix(0.010850694444444444,0,0,0.010850694444444444,31.15234375,0)" xlink:href="#A"/></g><path fill="#333" d="M631-137c179 0 314-70 314-231 0-71-25-127-75-166s-141-77-272-115c-165-47-285-106-360-175s-112-154-112-255c0-245 231-397 495-397 206 0 369 89 449 218 43 68 65 142 65 223H942c0-184-129-283-321-283-172 0-299 76-301 236 0 59 26 109 76 150s135 78 256 113c205 59 345 116 436 256 35 53 50 119 50 193-2 256-231 398-507 390C333 12 90-129 80-422h193c0 187 160 285 358 285" id="B"/><path fill="#333" d="M589-945c-131 0-219 81-264 174V0H140v-1082h175l6 136c83-104 191-156 324-156 229 0 346 129 346 387V0H806v-716c-2-153-65-229-217-229" id="C"/><path fill="#333" d="M584 20C278 26 81-227 91-551c10-320 175-545 491-551 308-5 503 247 494 573-9 322-175 543-492 549zm-2-970c-208 0-305 185-305 421 0 216 106 398 307 398 211 0 307-186 307-420 0-214-109-399-309-399" id="D"/><path fill="#333" d="M1098-255l208-827h185L1176 0h-150L763-820 507 0H357L43-1082h184l213 810 252-810h149" id="E"/><path fill="#333" d="M494-271l252-811h198L509 167C425 381 299 474 84 421V271c167 16 242-37 283-173l41-110L22-1082h202" id="F"/><g id="d"><use transform="matrix(0.010850694444444444,0,0,0.010850694444444444,0,0)" xlink:href="#B"/><use transform="matrix(0.010850694444444444,0,0,0.010850694444444444,13.18359375,0)" xlink:href="#C"/><use transform="matrix(0.010850694444444444,0,0,0.010850694444444444,25.44487847222222,0)" xlink:href="#D"/><use transform="matrix(0.010850694444444444,0,0,0.010850694444444444,38.11848958333333,0)" xlink:href="#E"/><use transform="matrix(0.010850694444444444,0,0,0.010850694444444444,54.81770833333333,0)" xlink:href="#F"/></g><path fill="#333" d="M375 0H183v-1456h192V0" id="G"/><path fill="#333" d="M277-555c0 244 77 420 297 424 127 2 249-93 255-210h175C980-127 805 20 574 20 258 20 81-222 92-562c11-319 164-533 481-540 237-5 426 165 431 392H829c-7-133-115-242-256-240-209 4-296 166-296 395" id="H"/><g id="e"><use transform="matrix(0.010850694444444444,0,0,0.010850694444444444,0,0)" xlink:href="#G"/><use transform="matrix(0.010850694444444444,0,0,0.010850694444444444,6.043836805555555,0)" xlink:href="#H"/><use transform="matrix(0.010850694444444444,0,0,0.010850694444444444,17.67578125,0)" xlink:href="#F"/></g><path fill="#333" d="M730-137c145 0 253-29 323-105v-327H716v-156h528v534C1148-51 964 20 729 20c-394 0-598-279-607-678v-127c-5-410 194-690 585-691 310-1 499 171 537 447h-192c-36-193-151-289-344-289-285 0-393 220-393 528v119c-5 296 140 534 415 534" id="I"/><g id="h"><use transform="matrix(0.011935763888888888,0,0,0.011935763888888888,0,0)" xlink:href="#I"/><use transform="matrix(0.011935763888888888,0,0,0.011935763888888888,16.650390625,0)" xlink:href="#z"/><use transform="matrix(0.011935763888888888,0,0,0.011935763888888888,29.600694444444443,0)" xlink:href="#A"/></g><path fill="#333" d="M663-916c-163-27-288 18-338 148V0H140v-1082h180l3 125c61-97 147-145 258-145 36 0 63 5 82 14v172" id="J"/><path fill="#333" d="M561-1102c238-4 403 126 403 351v498c0 99 13 178 38 237V0H808c-11-21-19-59-26-114C696-25 593 20 474 20c-199 0-368-130-365-320 4-251 214-359 490-356h180v-85c-1-135-86-212-229-212-115 0-232 67-233 171H131c20-205 206-316 430-320zM294-326c0 117 90 185 207 185 122 0 239-75 278-162v-222H634c-227 0-340 66-340 199" id="K"/><path fill="#333" d="M538-131c121 0 232-49 232-156 0-50-20-88-56-117-73-60-334-92-420-143-92-55-162-110-162-238 0-190 192-317 400-317 223 0 414 129 413 338H759c0-108-110-186-227-186-119 0-215 53-215 159 0 45 18 78 53 101 76 52 331 90 416 139 98 57 169 115 169 251C955-92 760 20 538 20c-176 0-314-68-386-174-38-55-57-115-57-179h185c6 129 116 202 258 202" id="L"/><path fill="#333" d="M589-945c-131 0-219 81-264 174V0H140v-1536h185v585c82-101 189-151 320-151 229 0 346 129 346 387V0H806v-716c-2-153-65-229-217-229" id="M"/><g id="i"><use transform="matrix(0.011935763888888888,0,0,0.011935763888888888,0,0)" xlink:href="#H"/><use transform="matrix(0.011935763888888888,0,0,0.011935763888888888,12.795138888888888,0)" xlink:href="#J"/><use transform="matrix(0.011935763888888888,0,0,0.011935763888888888,20.589192708333332,0)" xlink:href="#K"/><use transform="matrix(0.011935763888888888,0,0,0.011935763888888888,33.88563368055556,0)" xlink:href="#L"/><use transform="matrix(0.011935763888888888,0,0,0.011935763888888888,46.48980034722222,0)" xlink:href="#M"/><use transform="matrix(0.011935763888888888,0,0,0.011935763888888888,59.953342013888886,0)" xlink:href="#z"/><use transform="matrix(0.011935763888888888,0,0,0.011935763888888888,72.90364583333333,0)" xlink:href="#L"/></g><path fill="#333" d="M341 0H156v-1082h185V0zm-91-1264c-68 0-108-42-109-105 0-62 41-107 109-107s110 44 110 107-42 105-110 105" id="N"/><g id="j"><use transform="matrix(0.011935763888888888,0,0,0.011935763888888888,0,0)" xlink:href="#E"/><use transform="matrix(0.011935763888888888,0,0,0.011935763888888888,18.369140625,0)" xlink:href="#N"/><use transform="matrix(0.011935763888888888,0,0,0.011935763888888888,24.30121527777778,0)" xlink:href="#A"/><use transform="matrix(0.011935763888888888,0,0,0.011935763888888888,32.28624131944444,0)" xlink:href="#M"/></g><path fill="#333" d="M1161-1018c0 201-122 330-278 388l342 618V0h-206L703-589H361V0H168v-1456h482c310-2 511 139 511 438zm-193 0c0-187-120-280-313-280H361v552h295c179 3 313-101 312-272" id="O"/><path fill="#333" d="M520 20C244 20 95-247 95-550c0-298 151-550 427-552 127 0 227 43 301 130v-564h185V0H838l-9-116C755-25 652 20 520 20zm48-965c-210 0-288 177-288 416 0 218 87 392 286 392 117 0 203-53 257-158v-497c-55-102-140-153-255-153" id="P"/><g id="k"><use transform="matrix(0.011935763888888888,0,0,0.011935763888888888,0,0)" xlink:href="#O"/><use transform="matrix(0.011935763888888888,0,0,0.011935763888888888,15.050998263888888,0)" xlink:href="#D"/><use transform="matrix(0.011935763888888888,0,0,0.011935763888888888,28.99197048611111,0)" xlink:href="#K"/><use transform="matrix(0.011935763888888888,0,0,0.011935763888888888,42.28841145833333,0)" xlink:href="#P"/></g><path fill="#333" d="M688-137c238 0 323-102 359-325h193c-32 297-228 482-552 482-361 0-569-299-569-680 0-197 8-360 73-497 88-186 257-317 513-319 316-2 509 195 535 488h-193c-31-212-118-330-342-330-272 0-397 224-393 523v141c-3 282 115 517 376 517" id="Q"/><g id="l"><use transform="matrix(0.011935763888888888,0,0,0.011935763888888888,0,0)" xlink:href="#Q"/><use transform="matrix(0.011935763888888888,0,0,0.011935763888888888,15.910373263888888,0)" xlink:href="#D"/><use transform="matrix(0.011935763888888888,0,0,0.011935763888888888,29.85134548611111,0)" xlink:href="#C"/><use transform="matrix(0.011935763888888888,0,0,0.011935763888888888,43.33875868055555,0)" xlink:href="#P"/><use transform="matrix(0.011935763888888888,0,0,0.011935763888888888,57.12456597222222,0)" xlink:href="#N"/><use transform="matrix(0.011935763888888888,0,0,0.011935763888888888,63.05664062499999,0)" xlink:href="#A"/><use transform="matrix(0.011935763888888888,0,0,0.011935763888888888,71.04166666666666,0)" xlink:href="#N"/><use transform="matrix(0.011935763888888888,0,0,0.011935763888888888,76.97374131944443,0)" xlink:href="#D"/><use transform="matrix(0.011935763888888888,0,0,0.011935763888888888,90.91471354166666,0)" xlink:href="#C"/></g><path fill="#333" d="M277-1536c5 179-19 330-30 494H136l1-494h140zm270 0c5 179-19 330-30 494H406l1-494h140" id="R"/><g id="m"><use transform="matrix(0.011935763888888888,0,0,0.011935763888888888,0,0)" xlink:href="#R"/><use transform="matrix(0.011935763888888888,0,0,0.011935763888888888,7.817925347222221,0)" xlink:href="#y"/><use transform="matrix(0.011935763888888888,0,0,0.011935763888888888,29.135199652777775,0)" xlink:href="#z"/><use transform="matrix(0.011935763888888888,0,0,0.011935763888888888,42.08550347222222,0)" xlink:href="#A"/><use transform="matrix(0.011935763888888888,0,0,0.011935763888888888,50.070529513888886,0)" xlink:href="#R"/></g><path fill="#333" d="M1248-1138c106 220 104 603 2 820-91 195-274 338-542 338C281 20 86-300 86-759c0-291 115-515 296-629 182-114 467-115 648 0 94 60 166 141 218 250zM940-344c111-153 110-617 0-765-57-77-133-119-234-119s-177 41-233 118c-64 88-83 240-83 415 0 149 27 264 82 346s133 123 236 123c101 0 176-40 232-118" id="S"/><g id="n"><use transform="matrix(0.011935763888888888,0,0,0.011935763888888888,0,0)" xlink:href="#S"/><use transform="matrix(0.011935763888888888,0,0,0.011935763888888888,16.87717013888889,0)" xlink:href="#q"/></g><g id="o"><use transform="matrix(0.011935763888888888,0,0,0.011935763888888888,0,0)" xlink:href="#R"/><use transform="matrix(0.011935763888888888,0,0,0.011935763888888888,7.817925347222221,0)" xlink:href="#B"/><use transform="matrix(0.011935763888888888,0,0,0.011935763888888888,22.31987847222222,0)" xlink:href="#C"/><use transform="matrix(0.011935763888888888,0,0,0.011935763888888888,35.807291666666664,0)" xlink:href="#D"/><use transform="matrix(0.011935763888888888,0,0,0.011935763888888888,49.748263888888886,0)" xlink:href="#E"/><use transform="matrix(0.011935763888888888,0,0,0.011935763888888888,68.11740451388889,0)" xlink:href="#F"/><use transform="matrix(0.011935763888888888,0,0,0.011935763888888888,79.86219618055554,0)" xlink:href="#R"/></g><g id="p"><use transform="matrix(0.011935763888888888,0,0,0.011935763888888888,0,0)" xlink:href="#R"/><use transform="matrix(0.011935763888888888,0,0,0.011935763888888888,7.817925347222221,0)" xlink:href="#G"/><use transform="matrix(0.011935763888888888,0,0,0.011935763888888888,14.466145833333332,0)" xlink:href="#H"/><use transform="matrix(0.011935763888888888,0,0,0.011935763888888888,27.26128472222222,0)" xlink:href="#F"/><use transform="matrix(0.011935763888888888,0,0,0.011935763888888888,39.006076388888886,0)" xlink:href="#R"/></g></defs></g></svg>