<svg xmlns="http://www.w3.org/2000/svg" xmlns:xlink="http://www.w3.org/1999/xlink" xmlns:lucid="lucid" width="1212" height="374"><g transform="translate(-84 0)" lucid:page-tab-id="0_0"><path d="M100 26a6 6 0 0 1 6-6h248a6 6 0 0 1 6 6v328a6 6 0 0 1-6 6H106a6 6 0 0 1-6-6z" stroke="#5e5e5e" stroke-width="3" fill="#fff"/><path d="M380 176a6 6 0 0 1 6-6h112a6 6 0 0 0 6-6v-8a2.3 2.3 0 0 1 4-1.54l28 31.08a6.67 6.67 0 0 1 0 8.92l-28 31.08a2.3 2.3 0 0 1-4-1.54v-8a6 6 0 0 0-6-6H386a6 6 0 0 1-6-6z" stroke="#5e5e5e" stroke-width="3" fill="#ffdda6"/><path d="M120 206a6 6 0 0 1 6-6h208a6 6 0 0 1 6 6v108a6 6 0 0 1-6 6H126a6 6 0 0 1-6-6z" stroke="#000" stroke-opacity="0" stroke-width="3" fill="#fff" fill-opacity="0"/><use xlink:href="#a" transform="matrix(1,0,0,1,125,205) translate(33.85308159722226 46.05034722222221)"/><use xlink:href="#b" transform="matrix(1,0,0,1,125,205) translate(137.0757378472222 46.05034722222221)"/><use xlink:href="#c" transform="matrix(1,0,0,1,125,205) translate(16.53537326388893 82.50868055555551)"/><path d="M244.64 115.6c0-11.5-9.37-20.9-20.9-20.9-11.48 0-20.85 9.4-20.85 20.9 0 11.5 9.36 20.9 20.83 20.9 11.54 0 20.9-9.4 20.9-20.9zm-20.9 16.9c-9.3 0-16.92-7.6-16.92-16.9 0-9.3 7.62-16.9 16.9-16.9 9.38 0 16.9 7.6 16.9 16.9 0 9.3-7.52 16.9-16.9 16.9z" stroke="#000" stroke-opacity="0" stroke-width=".3" fill="#5e5e5e"/><path d="M206 97.9c.5 0 1-.1 1.33-.5 4.5-4 10.37-6.3 16.4-6.3 3.43 0 6.7.7 9.78 2 1.02.5 2.2 0 2.6-1 .5-1 0-2.2-1-2.6-3.6-1.6-7.36-2.4-11.37-2.4-7.03 0-13.8 2.6-19.08 7.4-.75.7-.84 2-.08 2.8.33.4.92.6 1.42.6zM201.22 101.5c-.92-.5-2.18-.1-2.68.9-2.1 4-3.26 8.6-3.26 13.2 0 1.1.92 2 2 2 1.1 0 2-.9 2-2 0-4 .94-7.9 2.78-11.4.5-.9.16-2.1-.84-2.7z" stroke="#000" stroke-opacity="0" stroke-width=".3" fill="#5e5e5e"/><path d="M271.25 176.6l-14.9-14.9c1.76-2.5 2.85-5.5 2.85-8.8 0-5.8-3.26-10.8-8.03-13.4 5.44-10.3 8.2-18.4 8.2-23.9 0-19.6-15.98-35.6-35.64-35.6-19.58 0-35.56 16-35.56 35.6 0 19 32.63 61.8 33.97 63.6.4.5 1 .8 1.6.8.65 0 1.24-.3 1.57-.8.1 0 4.45-5.7 9.97-13.8 2.43 1.7 5.44 2.7 8.7 2.7 3.68 0 7.03-1.3 9.7-3.5l14.73 14.8c.42.4.92.6 1.42.6.5 0 1-.2 1.43-.6.75-.8.75-2 0-2.8zm-47.52-1.9c-2.77-3.8-8.96-12.3-15.06-22-10.8-17.1-16.5-29.9-16.5-37.1 0-17.4 14.15-31.6 31.56-31.6 17.48 0 31.62 14.2 31.62 31.6 0 5-2.68 12.5-7.95 22.5-1.1-.3-2.26-.4-3.43-.4-8.45 0-15.22 6.8-15.22 15.2 0 3.7 1.33 7.2 3.5 9.8-3.6 5.3-6.68 9.6-8.52 12zm20.24-10.5c-6.27 0-11.3-5.1-11.3-11.3 0-6.2 5.03-11.2 11.3-11.2 6.2 0 11.2 5 11.2 11.2 0 6.2-5 11.3-11.2 11.3z" stroke="#000" stroke-opacity="0" stroke-width=".3" fill="#5e5e5e"/><path d="M560 26a6 6 0 0 1 6-6h248a6 6 0 0 1 6 6v328a6 6 0 0 1-6 6H566a6 6 0 0 1-6-6z" stroke="#5e5e5e" stroke-width="3" fill="#fff"/><path d="M580 205a6 6 0 0 1 6-6h208a6 6 0 0 1 6 6v110a6 6 0 0 1-6 6H586a6 6 0 0 1-6-6z" stroke="#000" stroke-opacity="0" stroke-width="3" fill="#fff" fill-opacity="0"/><use xlink:href="#d" transform="matrix(1,0,0,1,585,204.00000000000003) translate(12.0008680555556 28.862847222222207)"/><use xlink:href="#e" transform="matrix(1,0,0,1,585,204.00000000000003) translate(89.17100694444446 28.862847222222207)"/><use xlink:href="#f" transform="matrix(1,0,0,1,585,204.00000000000003) translate(25.31575520833337 65.32118055555551)"/><use xlink:href="#g" transform="matrix(1,0,0,1,585,204.00000000000003) translate(108.37999131944444 65.32118055555551)"/><use xlink:href="#h" transform="matrix(1,0,0,1,585,204.00000000000003) translate(38.69140625000003 101.77951388888883)"/><path d="M735.9 80h-91.8c-1.15 0-2 .9-2 2v11.6c0 .5.18 1 .57 1.4l38.23 38.5v33.1c0 .6.28 1.2.67 1.5l14.37 11.5c.3.3.77.4 1.25.4.27 0 .56-.1.85-.2.67-.3 1.05-1 1.05-1.8v-44.5L737.33 95c.4-.4.58-.9.58-1.4V82c0-1.1-.85-2-2-2zm-40.73 93.9l-10.34-8.3v-30.9h10.34v39.2zm1.15-43.2h-12.64l-34.8-35.1h82.23l-34.78 35.1zm37.56-39.1h-87.76V84h87.76v7.6z" stroke="#000" stroke-opacity="0" stroke-width=".29" fill="#5e5e5e"/><path d="M679.08 117.3l-.87-.8c-.75-.8-2-.8-2.76 0-.77.8-.77 2 0 2.8l.86.9c.38.4.86.5 1.44.5.47 0 .95-.1 1.34-.5.86-.8.86-2.1 0-2.9zM673.9 112.1l-13.7-13.7c-.86-.8-2.1-.8-2.87 0s-.77 2 0 2.8l13.7 13.7c.38.4.96.6 1.44.6.47 0 1.05-.2 1.43-.6.77-.8.77-2 0-2.8z" stroke="#000" stroke-opacity="0" stroke-width=".29" fill="#5e5e5e"/><path d="M840 176a6 6 0 0 1 6-6h112a6 6 0 0 0 6-6v-8a2.3 2.3 0 0 1 4-1.54l28 31.08a6.67 6.67 0 0 1 0 8.92l-28 31.08a2.3 2.3 0 0 1-4-1.54v-8a6 6 0 0 0-6-6H846a6 6 0 0 1-6-6z" stroke="#5e5e5e" stroke-width="3" fill="#ffdda6"/><path d="M1020 26a6 6 0 0 1 6-6h248a6 6 0 0 1 6 6v328a6 6 0 0 1-6 6h-248a6 6 0 0 1-6-6z" stroke="#5e5e5e" stroke-width="3" fill="#fff"/><path d="M1040 205a6 6 0 0 1 6-6h208a6 6 0 0 1 6 6v110a6 6 0 0 1-6 6h-208a6 6 0 0 1-6-6z" stroke="#000" stroke-opacity="0" stroke-width="3" fill="#fff" fill-opacity="0"/><use xlink:href="#i" transform="matrix(1,0,0,1,1045,204.00000000000003) translate(18.122829861111157 28.862847222222207)"/><use xlink:href="#j" transform="matrix(1,0,0,1,1045,204.00000000000003) translate(115.57291666666666 28.862847222222207)"/><use xlink:href="#k" transform="matrix(1,0,0,1,1045,204.00000000000003) translate(29.326171875000043 65.32118055555551)"/><use xlink:href="#l" transform="matrix(1,0,0,1,1045,204.00000000000003) translate(141.60264756944443 65.32118055555551)"/><use xlink:href="#m" transform="matrix(1,0,0,1,1045,204.00000000000003) translate(48.542751736111136 101.77951388888883)"/><path d="M1177.86 156.68c-.65-.66-1.87-.66-2.62 0l-4.2 4.18v-21.23c0-1-.75-1.76-1.78-1.76s-1.87.77-1.87 1.76v21.23l-4.22-4.18c-.65-.66-1.87-.66-2.52 0-.75.77-.75 1.87 0 2.64l7.3 7.26c.37.44.83.55 1.3.55.47 0 .94-.1 1.3-.55l7.3-7.26c.75-.77.75-1.87 0-2.64z" stroke="#000" stroke-opacity="0" stroke-width=".29" fill="#5e5e5e"/><path d="M1169.26 125c-15.15 0-27.5 12.32-27.5 27.5s12.35 27.5 27.5 27.5 27.5-12.32 27.5-27.5-12.35-27.5-27.5-27.5zm0 51.37c-13.18 0-23.84-10.78-23.84-23.87 0-13.1 10.66-23.87 23.84-23.87 13.1 0 23.84 10.78 23.84 23.87 0 13.1-10.75 23.87-23.84 23.87zM1143.55 170.87h-36.65V158c0-1-.85-1.87-1.78-1.87-1.03 0-1.87.88-1.87 1.87v14.63c0 1.1.84 1.87 1.87 1.87h38.43c1.03 0 1.87-.77 1.87-1.87 0-1-.84-1.76-1.87-1.76zM1105.12 148.87c-1.03 0-1.87.77-1.87 1.76 0 1.1.84 1.87 1.87 1.87 1.03 0 1.78-.77 1.78-1.87 0-1-.85-1.76-1.78-1.76z" stroke="#000" stroke-opacity="0" stroke-width=".29" fill="#5e5e5e"/><path d="M1179.73 99.92l-29.36-29.37c-.37-.33-.84-.55-1.3-.55h-43.95c-1.03 0-1.87.77-1.87 1.87v71.5c0 1 .84 1.76 1.87 1.76.94 0 1.78-.77 1.78-1.76V73.63h40.4v27.5c0 1.1.74 1.87 1.77 1.87h27.48v16.5c0 1 .85 1.87 1.87 1.87 1.03 0 1.87-.88 1.87-1.87v-18.37c0-.44-.3-.88-.57-1.2zm-28.8-.55v-23.1l23.1 23.1h-23.1z" stroke="#000" stroke-opacity="0" stroke-width=".29" fill="#5e5e5e"/><defs><path fill="#5e5e5e" d="M631-137c179 0 314-70 314-231 0-71-25-127-75-166s-141-77-272-115c-165-47-285-106-360-175s-112-154-112-255c0-245 231-397 495-397 206 0 369 89 449 218 43 68 65 142 65 223H942c0-184-129-283-321-283-172 0-299 76-301 236 0 59 26 109 76 150s135 78 256 113c205 59 345 116 436 256 35 53 50 119 50 193-2 256-231 398-507 390C333 12 90-129 80-422h193c0 187 160 285 358 285" id="n"/><path fill="#5e5e5e" d="M599-131c141 0 220-65 285-146l113 88C906-50 770 20 589 20 281 21 93-214 93-545c0-223 93-397 233-485 74-48 154-72 240-72 300 2 449 218 445 537v77H278c0 197 129 357 321 357zm227-509c-3-180-88-310-260-310-170 0-264 140-282 310h542" id="o"/><path fill="#5e5e5e" d="M561-1102c238-4 403 126 403 351v498c0 99 13 178 38 237V0H808c-11-21-19-59-26-114C696-25 593 20 474 20c-199 0-368-130-365-320 4-251 214-359 490-356h180v-85c-1-135-86-212-229-212-115 0-232 67-233 171H131c20-205 206-316 430-320zM294-326c0 117 90 185 207 185 122 0 239-75 278-162v-222H634c-227 0-340 66-340 199" id="p"/><path fill="#5e5e5e" d="M663-916c-163-27-288 18-338 148V0H140v-1082h180l3 125c61-97 147-145 258-145 36 0 63 5 82 14v172" id="q"/><path fill="#5e5e5e" d="M277-555c0 244 77 420 297 424 127 2 249-93 255-210h175C980-127 805 20 574 20 258 20 81-222 92-562c11-319 164-533 481-540 237-5 426 165 431 392H829c-7-133-115-242-256-240-209 4-296 166-296 395" id="r"/><path fill="#5e5e5e" d="M589-945c-131 0-219 81-264 174V0H140v-1536h185v585c82-101 189-151 320-151 229 0 346 129 346 387V0H806v-716c-2-153-65-229-217-229" id="s"/><g id="a"><use transform="matrix(0.015190972222222215,0,0,0.015190972222222215,0,0)" xlink:href="#n"/><use transform="matrix(0.015190972222222215,0,0,0.015190972222222215,18.457031249999993,0)" xlink:href="#o"/><use transform="matrix(0.015190972222222215,0,0,0.015190972222222215,34.9392361111111,0)" xlink:href="#p"/><use transform="matrix(0.015190972222222215,0,0,0.015190972222222215,51.86197916666664,0)" xlink:href="#q"/><use transform="matrix(0.015190972222222215,0,0,0.015190972222222215,62.100694444444414,0)" xlink:href="#r"/><use transform="matrix(0.015190972222222215,0,0,0.015190972222222215,78.38541666666663,0)" xlink:href="#s"/></g><path fill="#5e5e5e" d="M704-1390c-164-38-297 28-288 194v114h231v143H416V0H231v-939H60v-143h171v-111c-12-274 208-416 483-347" id="t"/><path fill="#5e5e5e" d="M584 20C278 26 81-227 91-551c10-320 175-545 491-551 308-5 503 247 494 573-9 322-175 543-492 549zm-2-970c-208 0-305 185-305 421 0 216 106 398 307 398 211 0 307-186 307-420 0-214-109-399-309-399" id="u"/><g id="b"><use transform="matrix(0.015190972222222215,0,0,0.015190972222222215,0,0)" xlink:href="#t"/><use transform="matrix(0.015190972222222215,0,0,0.015190972222222215,10.800781249999995,0)" xlink:href="#u"/><use transform="matrix(0.015190972222222215,0,0,0.015190972222222215,28.543836805555543,0)" xlink:href="#q"/></g><path fill="#5e5e5e" d="M19 279c92 0 127-48 127-150v-1211h185V125c0 208-94 312-283 312-41 0-78-6-113-18V271c21 5 49 8 84 8zm216-1543c-68 0-107-42-108-105 0-61 42-107 108-107 68 0 110 44 110 107s-42 105-110 105" id="v"/><path fill="#5e5e5e" d="M491 20c-241-1-355-148-355-398v-704h185v699c0 164 67 246 200 246 141 0 235-53 282-158v-787h185V0H812l-4-107C736-22 630 20 491 20" id="w"/><path fill="#5e5e5e" d="M341 0H156v-1082h185V0zm-91-1264c-68 0-108-42-109-105 0-62 41-107 109-107s110 44 110 107-42 105-110 105" id="x"/><path fill="#5e5e5e" d="M538-131c121 0 232-49 232-156 0-50-20-88-56-117-73-60-334-92-420-143-92-55-162-110-162-238 0-190 192-317 400-317 223 0 414 129 413 338H759c0-108-110-186-227-186-119 0-215 53-215 159 0 45 18 78 53 101 76 52 331 90 416 139 98 57 169 115 169 251C955-92 760 20 538 20c-176 0-314-68-386-174-38-55-57-115-57-179h185c6 129 116 202 258 202" id="y"/><path fill="#5e5e5e" d="M520 20C244 20 95-247 95-550c0-298 151-550 427-552 127 0 227 43 301 130v-564h185V0H838l-9-116C755-25 652 20 520 20zm48-965c-210 0-288 177-288 416 0 218 87 392 286 392 117 0 203-53 257-158v-497c-55-102-140-153-255-153" id="z"/><path fill="#5e5e5e" d="M456 20C285 20 205-92 206-268v-671H9v-143h197v-262h185v262h202v143H391v671c-9 125 92 149 207 118V0c-49 13-96 20-142 20" id="A"/><path fill="#5e5e5e" d="M589-945c-131 0-219 81-264 174V0H140v-1082h175l6 136c83-104 191-156 324-156 229 0 346 129 346 387V0H806v-716c-2-153-65-229-217-229" id="B"/><path fill="#5e5e5e" d="M258 11c-71 0-114-43-114-108 0-67 42-112 114-112s116 45 116 112c-1 65-45 108-116 108" id="C"/><g id="c"><use transform="matrix(0.015190972222222215,0,0,0.015190972222222215,0,0)" xlink:href="#v"/><use transform="matrix(0.015190972222222215,0,0,0.015190972222222215,7.428385416666663,0)" xlink:href="#w"/><use transform="matrix(0.015190972222222215,0,0,0.015190972222222215,24.578993055555546,0)" xlink:href="#q"/><use transform="matrix(0.015190972222222215,0,0,0.015190972222222215,35.10633680555554,0)" xlink:href="#x"/><use transform="matrix(0.015190972222222215,0,0,0.015190972222222215,42.656249999999986,0)" xlink:href="#y"/><use transform="matrix(0.015190972222222215,0,0,0.015190972222222215,58.69791666666664,0)" xlink:href="#z"/><use transform="matrix(0.015190972222222215,0,0,0.015190972222222215,76.2434895833333,0)" xlink:href="#x"/><use transform="matrix(0.015190972222222215,0,0,0.015190972222222215,83.79340277777774,0)" xlink:href="#r"/><use transform="matrix(0.015190972222222215,0,0,0.015190972222222215,100.07812499999996,0)" xlink:href="#A"/><use transform="matrix(0.015190972222222215,0,0,0.015190972222222215,110.24088541666661,0)" xlink:href="#x"/><use transform="matrix(0.015190972222222215,0,0,0.015190972222222215,117.79079861111106,0)" xlink:href="#u"/><use transform="matrix(0.015190972222222215,0,0,0.015190972222222215,135.5338541666666,0)" xlink:href="#B"/><use transform="matrix(0.015190972222222215,0,0,0.015190972222222215,152.69965277777771,0)" xlink:href="#y"/><use transform="matrix(0.015190972222222215,0,0,0.015190972222222215,168.74131944444437,0)" xlink:href="#C"/></g><path fill="#5e5e5e" d="M972-643H361V0H169v-1456h902v158H361v498h611v157" id="D"/><path fill="#5e5e5e" d="M341 0H156v-1536h185V0" id="E"/><g id="d"><use transform="matrix(0.015190972222222215,0,0,0.015190972222222215,0,0)" xlink:href="#D"/><use transform="matrix(0.015190972222222215,0,0,0.015190972222222215,17.196180555555546,0)" xlink:href="#x"/><use transform="matrix(0.015190972222222215,0,0,0.015190972222222215,24.746093749999986,0)" xlink:href="#E"/><use transform="matrix(0.015190972222222215,0,0,0.015190972222222215,32.29600694444443,0)" xlink:href="#A"/><use transform="matrix(0.015190972222222215,0,0,0.015190972222222215,42.45876736111109,0)" xlink:href="#o"/><use transform="matrix(0.015190972222222215,0,0,0.015190972222222215,58.9409722222222,0)" xlink:href="#q"/></g><g id="e"><use transform="matrix(0.015190972222222215,0,0,0.015190972222222215,0,0)" xlink:href="#r"/><use transform="matrix(0.015190972222222215,0,0,0.015190972222222215,16.284722222222214,0)" xlink:href="#q"/><use transform="matrix(0.015190972222222215,0,0,0.015190972222222215,26.20442708333332,0)" xlink:href="#p"/><use transform="matrix(0.015190972222222215,0,0,0.015190972222222215,43.12717013888887,0)" xlink:href="#y"/><use transform="matrix(0.015190972222222215,0,0,0.015190972222222215,59.16883680555553,0)" xlink:href="#s"/><use transform="matrix(0.015190972222222215,0,0,0.015190972222222215,76.30425347222219,0)" xlink:href="#o"/><use transform="matrix(0.015190972222222215,0,0,0.015190972222222215,92.78645833333329,0)" xlink:href="#y"/></g><path fill="#5e5e5e" d="M521 20C240 20 96-239 96-550c0-303 147-552 427-552 132 0 235 47 309 140l9-120h169V-26c4 277-183 454-459 452-165-1-334-81-400-187l96-111c79 98 176 147 291 147 180 1 288-109 286-290v-93C750-23 649 20 521 20zm48-965c-209 0-287 178-287 416 0 217 86 392 285 392 117 0 202-53 257-159v-494c-57-103-142-155-255-155" id="F"/><g id="f"><use transform="matrix(0.015190972222222215,0,0,0.015190972222222215,0,0)" xlink:href="#w"/><use transform="matrix(0.015190972222222215,0,0,0.015190972222222215,17.150607638888882,0)" xlink:href="#y"/><use transform="matrix(0.015190972222222215,0,0,0.015190972222222215,33.19227430555554,0)" xlink:href="#x"/><use transform="matrix(0.015190972222222215,0,0,0.015190972222222215,40.742187499999986,0)" xlink:href="#B"/><use transform="matrix(0.015190972222222215,0,0,0.015190972222222215,57.907986111111086,0)" xlink:href="#F"/></g><g id="g"><use transform="matrix(0.015190972222222215,0,0,0.015190972222222215,0,0)" xlink:href="#r"/><use transform="matrix(0.015190972222222215,0,0,0.015190972222222215,16.284722222222214,0)" xlink:href="#q"/><use transform="matrix(0.015190972222222215,0,0,0.015190972222222215,26.20442708333332,0)" xlink:href="#p"/><use transform="matrix(0.015190972222222215,0,0,0.015190972222222215,43.12717013888887,0)" xlink:href="#y"/><use transform="matrix(0.015190972222222215,0,0,0.015190972222222215,59.16883680555553,0)" xlink:href="#s"/></g><path fill="#5e5e5e" d="M634-1102c292 0 422 254 422 573 0 298-143 547-420 549-137 0-242-48-317-145L310 0H140v-1536h185v573c75-93 178-139 309-139zm-44 965c207 0 281-175 281-413 0-224-79-395-283-395-122 0-210 57-263 170v468c57 113 145 170 265 170" id="G"/><g id="h"><use transform="matrix(0.015190972222222215,0,0,0.015190972222222215,0,0)" xlink:href="#p"/><use transform="matrix(0.015190972222222215,0,0,0.015190972222222215,16.922743055555546,0)" xlink:href="#A"/><use transform="matrix(0.015190972222222215,0,0,0.015190972222222215,27.085503472222207,0)" xlink:href="#A"/><use transform="matrix(0.015190972222222215,0,0,0.015190972222222215,37.24826388888887,0)" xlink:href="#q"/><use transform="matrix(0.015190972222222215,0,0,0.015190972222222215,47.775607638888864,0)" xlink:href="#x"/><use transform="matrix(0.015190972222222215,0,0,0.015190972222222215,55.32552083333331,0)" xlink:href="#G"/><use transform="matrix(0.015190972222222215,0,0,0.015190972222222215,72.77994791666663,0)" xlink:href="#w"/><use transform="matrix(0.015190972222222215,0,0,0.015190972222222215,89.93055555555551,0)" xlink:href="#A"/><use transform="matrix(0.015190972222222215,0,0,0.015190972222222215,100.09331597222217,0)" xlink:href="#o"/><use transform="matrix(0.015190972222222215,0,0,0.015190972222222215,116.57552083333327,0)" xlink:href="#y"/></g><path fill="#5e5e5e" d="M992-673H361v516h733V0H169v-1456h915v158H361v468h631v157" id="H"/><path fill="#5e5e5e" d="M503-687l240-395h216L605-547 970 0H756L506-405 256 0H41l365-547-354-535h214" id="I"/><path fill="#5e5e5e" d="M632-1102c291 0 422 251 422 573 0 297-141 548-419 549-131 0-235-42-310-125v521H140v-1498h169l9 120c75-93 180-140 314-140zm-53 971c207 0 290-180 290-419 0-218-92-395-292-395-112 0-196 50-252 149v517c55 99 140 148 254 148" id="J"/><g id="i"><use transform="matrix(0.015190972222222215,0,0,0.015190972222222215,0,0)" xlink:href="#H"/><use transform="matrix(0.015190972222222215,0,0,0.015190972222222215,17.682291666666657,0)" xlink:href="#I"/><use transform="matrix(0.015190972222222215,0,0,0.015190972222222215,33.10112847222221,0)" xlink:href="#J"/><use transform="matrix(0.015190972222222215,0,0,0.015190972222222215,50.55555555555553,0)" xlink:href="#u"/><use transform="matrix(0.015190972222222215,0,0,0.015190972222222215,68.29861111111107,0)" xlink:href="#q"/><use transform="matrix(0.015190972222222215,0,0,0.015190972222222215,79.58550347222219,0)" xlink:href="#A"/></g><g id="j"><use transform="matrix(0.015190972222222215,0,0,0.015190972222222215,0,0)" xlink:href="#r"/><use transform="matrix(0.015190972222222215,0,0,0.015190972222222215,16.284722222222214,0)" xlink:href="#q"/><use transform="matrix(0.015190972222222215,0,0,0.015190972222222215,26.20442708333332,0)" xlink:href="#p"/><use transform="matrix(0.015190972222222215,0,0,0.015190972222222215,43.12717013888887,0)" xlink:href="#y"/><use transform="matrix(0.015190972222222215,0,0,0.015190972222222215,59.16883680555553,0)" xlink:href="#s"/></g><g id="k"><use transform="matrix(0.015190972222222215,0,0,0.015190972222222215,0,0)" xlink:href="#q"/><use transform="matrix(0.015190972222222215,0,0,0.015190972222222215,10.238715277777773,0)" xlink:href="#o"/><use transform="matrix(0.015190972222222215,0,0,0.015190972222222215,26.72092013888888,0)" xlink:href="#r"/><use transform="matrix(0.015190972222222215,0,0,0.015190972222222215,43.00564236111109,0)" xlink:href="#u"/><use transform="matrix(0.015190972222222215,0,0,0.015190972222222215,60.74869791666664,0)" xlink:href="#q"/><use transform="matrix(0.015190972222222215,0,0,0.015190972222222215,70.98741319444441,0)" xlink:href="#z"/><use transform="matrix(0.015190972222222215,0,0,0.015190972222222215,88.53298611111107,0)" xlink:href="#y"/></g><g id="l"><use transform="matrix(0.015190972222222215,0,0,0.015190972222222215,0,0)" xlink:href="#t"/><use transform="matrix(0.015190972222222215,0,0,0.015190972222222215,10.800781249999995,0)" xlink:href="#u"/><use transform="matrix(0.015190972222222215,0,0,0.015190972222222215,28.543836805555543,0)" xlink:href="#q"/></g><path fill="#5e5e5e" d="M494-271l252-811h198L509 167C425 381 299 474 84 421V271c167 16 242-37 283-173l41-110L22-1082h202" id="K"/><g id="m"><use transform="matrix(0.015190972222222215,0,0,0.015190972222222215,0,0)" xlink:href="#p"/><use transform="matrix(0.015190972222222215,0,0,0.015190972222222215,16.922743055555546,0)" xlink:href="#B"/><use transform="matrix(0.015190972222222215,0,0,0.015190972222222215,34.08854166666665,0)" xlink:href="#p"/><use transform="matrix(0.015190972222222215,0,0,0.015190972222222215,51.0112847222222,0)" xlink:href="#E"/><use transform="matrix(0.015190972222222215,0,0,0.015190972222222215,58.56119791666664,0)" xlink:href="#K"/><use transform="matrix(0.015190972222222215,0,0,0.015190972222222215,73.28124999999997,0)" xlink:href="#y"/><use transform="matrix(0.015190972222222215,0,0,0.015190972222222215,89.32291666666663,0)" xlink:href="#x"/><use transform="matrix(0.015190972222222215,0,0,0.015190972222222215,96.87282986111107,0)" xlink:href="#y"/></g></defs></g></svg>