<svg id="svg" xmlns="http://www.w3.org/2000/svg" xmlns:xlink="http://www.w3.org/1999/xlink" width="400" height="341.01247248716066" viewBox="0, 0, 400,341.01247248716066"><g id="svgg"><path id="path0" d="M120.206 1.205 C 116.952 1.679,114.064 3.845,113.268 6.408 C 112.961 7.395,111.770 10.096,111.176 11.152 C 111.040 11.394,110.648 12.186,110.305 12.913 C 109.635 14.333,109.324 14.966,108.903 15.774 C 108.756 16.056,108.149 17.344,107.555 18.635 C 106.283 21.399,105.411 23.256,103.147 28.026 C 102.228 29.963,101.146 32.274,100.742 33.162 C 99.550 35.783,97.545 40.044,94.318 46.813 C 93.933 47.622,93.617 48.394,93.617 48.528 C 93.617 48.662,93.371 49.123,93.070 49.551 C 92.769 49.980,92.345 50.858,92.127 51.504 C 91.909 52.150,91.510 53.008,91.240 53.412 C 87.879 58.434,91.978 65.753,98.139 65.731 C 101.846 65.718,103.879 64.187,106.054 59.775 C 109.482 52.820,110.932 49.684,110.932 49.226 C 110.932 48.965,111.079 48.660,111.258 48.549 C 111.438 48.438,111.846 47.737,112.164 46.991 C 112.868 45.341,114.162 42.568,114.508 41.966 C 114.647 41.724,115.031 40.932,115.359 40.205 C 116.585 37.500,118.470 33.462,120.770 28.613 C 121.690 26.676,122.771 24.365,123.174 23.478 C 124.592 20.354,124.455 20.536,125.135 20.891 C 125.474 21.068,126.309 21.690,126.989 22.272 C 127.670 22.854,128.858 23.831,129.630 24.442 C 133.791 27.733,136.077 29.565,138.502 31.548 C 140.953 33.552,144.690 36.549,147.469 38.738 C 148.391 39.464,149.713 40.521,150.407 41.086 C 151.102 41.651,152.347 42.641,153.174 43.287 C 154.001 43.933,155.280 44.959,156.016 45.569 C 160.097 48.950,164.523 48.973,167.777 45.630 C 171.368 41.942,170.885 36.576,166.660 33.228 C 165.790 32.538,164.417 31.452,163.610 30.814 C 162.803 30.177,161.416 29.057,160.528 28.326 C 159.640 27.595,158.357 26.620,157.676 26.159 C 156.995 25.699,155.938 24.903,155.328 24.389 C 153.936 23.218,151.735 21.447,146.975 17.671 C 144.847 15.982,142.456 14.055,140.892 12.766 C 140.109 12.120,138.712 10.998,137.788 10.271 C 136.864 9.545,135.540 8.489,134.846 7.924 C 134.151 7.359,132.906 6.368,132.079 5.723 C 131.252 5.077,129.830 3.920,128.921 3.151 C 126.420 1.038,124.415 0.590,120.206 1.205 M276.722 1.317 C 275.985 1.554,274.636 2.378,273.724 3.148 C 272.813 3.919,271.390 5.077,270.562 5.723 C 269.735 6.368,268.490 7.359,267.796 7.924 C 267.101 8.489,265.777 9.545,264.853 10.271 C 263.929 10.998,262.533 12.120,261.749 12.766 C 260.185 14.055,257.795 15.982,255.666 17.671 C 250.906 21.447,248.706 23.218,247.313 24.389 C 246.703 24.903,245.646 25.699,244.965 26.159 C 244.284 26.620,243.001 27.595,242.113 28.326 C 241.225 29.057,239.839 30.177,239.032 30.814 C 238.225 31.452,236.852 32.538,235.981 33.228 C 231.756 36.576,231.273 41.942,234.864 45.630 C 238.118 48.973,242.544 48.950,246.626 45.569 C 247.361 44.959,248.640 43.933,249.467 43.287 C 250.295 42.641,251.539 41.651,252.234 41.086 C 252.928 40.521,254.251 39.464,255.172 38.738 C 257.951 36.549,261.688 33.552,264.139 31.548 C 266.564 29.565,268.851 27.733,273.011 24.442 C 273.783 23.831,274.972 22.854,275.652 22.272 C 276.333 21.690,277.167 21.068,277.507 20.891 C 278.186 20.536,278.049 20.354,279.467 23.478 C 279.870 24.365,280.952 26.676,281.871 28.613 C 284.172 33.462,286.057 37.500,287.282 40.205 C 287.611 40.932,287.994 41.724,288.133 41.966 C 288.480 42.568,289.773 45.341,290.477 46.991 C 290.796 47.737,291.203 48.438,291.383 48.549 C 291.562 48.660,291.709 48.965,291.709 49.226 C 291.709 49.684,293.159 52.820,296.587 59.775 C 298.762 64.187,300.796 65.718,304.502 65.731 C 310.663 65.753,314.762 58.434,311.401 53.412 C 311.131 53.008,310.732 52.150,310.514 51.504 C 310.297 50.858,309.872 49.980,309.571 49.551 C 309.270 49.123,309.024 48.662,309.024 48.528 C 309.024 48.394,308.709 47.622,308.323 46.813 C 305.097 40.044,303.091 35.783,301.899 33.162 C 301.495 32.274,300.413 29.963,299.494 28.026 C 297.230 23.256,296.358 21.399,295.086 18.635 C 294.492 17.344,293.885 16.056,293.738 15.774 C 293.317 14.966,293.007 14.333,292.336 12.913 C 291.993 12.186,291.601 11.394,291.465 11.152 C 290.854 10.067,289.675 7.380,289.345 6.320 C 288.137 2.453,281.443 -0.201,276.722 1.317 M190.951 57.419 C 190.924 57.444,188.393 57.543,185.326 57.637 C 182.260 57.732,179.354 57.922,178.870 58.060 C 178.386 58.198,177.809 58.248,177.589 58.173 C 177.225 58.048,175.789 58.228,171.093 58.984 C 170.205 59.127,168.489 59.389,167.278 59.567 C 164.842 59.924,161.458 60.608,159.208 61.197 C 157.260 61.707,154.173 62.434,152.899 62.681 C 152.335 62.791,151.477 63.050,150.992 63.256 C 150.507 63.462,148.921 63.994,147.469 64.438 C 144.978 65.200,143.508 65.750,139.692 67.349 C 138.804 67.722,137.087 68.441,135.877 68.948 C 134.666 69.455,133.280 70.087,132.795 70.353 C 132.311 70.618,131.255 71.156,130.448 71.550 C 129.640 71.943,128.560 72.579,128.046 72.963 C 127.532 73.347,126.981 73.661,126.821 73.661 C 126.661 73.661,125.925 74.123,125.185 74.688 C 124.445 75.253,123.722 75.715,123.578 75.715 C 123.434 75.715,122.613 76.244,121.754 76.889 C 120.895 77.535,120.048 78.063,119.873 78.063 C 119.698 78.063,118.836 78.653,117.958 79.375 C 117.079 80.096,115.654 81.252,114.791 81.943 C 110.071 85.718,105.049 90.743,101.317 95.423 C 98.851 98.514,94.378 105.255,92.914 108.085 C 92.563 108.763,92.122 109.582,91.934 109.905 C 91.746 110.227,91.050 111.680,90.387 113.133 C 89.724 114.585,88.976 116.170,88.725 116.654 C 88.474 117.139,87.823 118.893,87.277 120.554 C 86.731 122.214,86.093 123.943,85.859 124.395 C 85.625 124.848,85.238 125.999,85.000 126.952 C 84.762 127.906,84.276 129.743,83.920 131.034 C 83.564 132.326,83.172 133.977,83.047 134.703 C 82.726 136.580,81.874 140.341,81.711 140.605 C 80.839 142.016,79.680 157.648,79.678 168.012 L 79.677 175.642 80.457 177.109 C 83.649 183.116,92.033 183.073,94.987 177.035 L 95.800 175.373 95.846 166.557 C 95.885 159.141,96.080 155.341,96.697 149.963 C 97.147 146.046,98.840 137.271,99.642 134.703 C 99.869 133.977,100.338 132.392,100.683 131.181 C 101.029 129.971,101.485 128.584,101.697 128.100 C 101.909 127.616,102.173 126.856,102.284 126.412 C 102.394 125.967,102.735 125.114,103.040 124.515 C 103.345 123.917,103.595 123.290,103.596 123.122 C 103.596 122.954,104.437 121.167,105.466 119.149 C 108.038 114.101,108.340 113.560,109.252 112.364 C 109.692 111.788,110.051 111.194,110.051 111.045 C 110.051 110.896,110.656 109.984,111.394 109.018 C 112.132 108.053,113.090 106.795,113.522 106.222 C 116.919 101.716,123.163 95.586,127.166 92.827 C 127.679 92.472,128.479 91.888,128.943 91.527 C 130.402 90.393,133.454 88.462,136.823 86.543 L 138.209 85.753 138.390 86.824 C 141.693 106.357,155.730 125.701,173.219 134.822 C 174.229 135.348,175.319 135.929,175.642 136.112 C 187.651 142.917,202.992 144.693,214.087 140.561 C 223.646 137.001,224.863 135.983,230.215 127.073 C 237.502 114.941,240.124 111.308,242.507 110.044 L 243.822 109.346 249.497 110.731 C 271.527 116.109,280.782 114.889,286.346 105.875 C 287.601 103.842,287.338 103.858,288.747 105.723 C 289.387 106.570,290.514 108.053,291.251 109.018 C 291.987 109.984,292.590 110.896,292.590 111.045 C 292.590 111.194,292.949 111.788,293.389 112.364 C 294.301 113.560,294.603 114.101,297.176 119.149 C 298.204 121.167,299.045 122.954,299.046 123.122 C 299.046 123.290,299.296 123.917,299.601 124.515 C 299.906 125.114,300.247 125.967,300.357 126.412 C 300.468 126.856,300.732 127.616,300.944 128.100 C 301.156 128.584,301.612 129.971,301.958 131.181 C 302.304 132.392,302.772 133.977,302.999 134.703 C 303.801 137.271,305.495 146.046,305.944 149.963 C 306.561 155.341,306.756 159.141,306.795 166.557 L 306.841 175.373 307.654 177.035 C 310.644 183.145,319.051 183.104,322.271 176.963 C 323.619 174.393,323.114 155.351,321.370 142.975 C 321.204 141.794,321.006 140.728,320.930 140.605 C 320.767 140.341,319.916 136.580,319.594 134.703 C 319.470 133.977,319.077 132.326,318.721 131.034 C 318.366 129.743,317.880 127.906,317.641 126.952 C 317.403 125.999,317.016 124.848,316.782 124.395 C 316.548 123.943,315.910 122.214,315.365 120.554 C 314.819 118.893,314.167 117.139,313.916 116.654 C 313.665 116.170,312.918 114.585,312.255 113.133 C 311.592 111.680,310.895 110.227,310.707 109.905 C 310.519 109.582,310.078 108.763,309.727 108.085 C 308.263 105.255,303.790 98.514,301.325 95.423 C 297.592 90.743,292.570 85.718,287.851 81.943 C 286.987 81.252,285.562 80.096,284.684 79.375 C 283.806 78.653,282.944 78.063,282.768 78.063 C 282.593 78.063,281.746 77.535,280.887 76.889 C 280.028 76.244,279.207 75.715,279.063 75.715 C 278.920 75.715,278.196 75.253,277.456 74.688 C 276.716 74.123,275.980 73.661,275.820 73.661 C 275.660 73.661,275.109 73.347,274.595 72.963 C 274.081 72.579,273.001 71.943,272.194 71.550 C 271.387 71.156,270.330 70.618,269.846 70.353 C 269.362 70.087,267.975 69.455,266.764 68.948 C 265.554 68.441,263.837 67.722,262.949 67.349 C 259.133 65.750,257.664 65.200,255.172 64.438 C 253.720 63.994,252.134 63.462,251.650 63.256 C 251.165 63.050,250.306 62.791,249.742 62.681 C 248.468 62.434,245.381 61.707,243.434 61.197 C 241.184 60.608,237.799 59.924,235.363 59.567 C 234.153 59.389,232.436 59.127,231.548 58.984 C 226.852 58.228,225.416 58.048,225.052 58.173 C 224.832 58.248,224.255 58.198,223.771 58.060 C 222.427 57.678,191.323 57.071,190.951 57.419 M72.068 85.234 C 71.434 85.468,70.576 85.911,70.161 86.218 C 69.745 86.524,68.811 87.061,68.085 87.411 C 67.359 87.760,65.774 88.695,64.563 89.488 C 63.353 90.281,61.653 91.369,60.787 91.906 C 59.920 92.444,58.785 93.147,58.265 93.470 C 57.744 93.793,56.934 94.352,56.465 94.713 C 55.292 95.616,52.859 97.326,51.798 97.994 C 50.761 98.647,48.983 100.025,46.938 101.761 C 46.130 102.447,45.366 103.008,45.240 103.008 C 45.115 103.008,44.294 103.596,43.416 104.316 C 42.538 105.035,41.191 106.124,40.424 106.737 C 33.098 112.581,23.247 122.148,18.847 127.691 C 18.156 128.562,17.000 129.992,16.279 130.870 C 15.557 131.748,14.967 132.566,14.967 132.687 C 14.967 132.807,14.472 133.501,13.866 134.227 C 13.261 134.954,12.238 136.424,11.592 137.494 C 10.946 138.565,10.022 140.058,9.538 140.814 C 8.218 142.871,4.696 150.117,4.696 150.773 C 4.696 150.994,4.392 151.860,4.022 152.697 C 2.466 156.211,1.349 162.838,1.342 168.594 C 1.335 173.667,1.541 176.101,2.184 178.565 C 2.436 179.527,2.641 180.491,2.641 180.707 C 2.641 180.923,2.900 181.635,3.216 182.289 C 3.532 182.944,3.998 184.191,4.251 185.062 C 4.504 185.932,5.080 187.074,5.530 187.600 C 5.981 188.125,6.516 188.969,6.719 189.476 C 7.060 190.329,11.119 194.428,13.651 196.478 C 15.446 197.931,19.750 200.096,22.716 201.037 C 27.982 202.709,35.908 202.774,41.534 201.193 C 44.450 200.373,47.768 199.211,49.450 198.421 C 53.675 196.435,56.037 195.210,56.677 194.672 C 56.899 194.486,57.715 193.997,58.491 193.586 C 59.266 193.175,60.323 192.496,60.838 192.078 C 62.323 190.872,64.291 189.397,65.922 188.267 C 71.381 184.485,70.655 176.627,64.600 173.949 C 61.882 172.746,58.299 173.379,56.095 175.450 C 55.554 175.959,55.016 176.376,54.901 176.376 C 54.785 176.376,54.172 176.818,53.538 177.360 C 52.903 177.901,51.979 178.552,51.483 178.808 C 50.987 179.063,50.408 179.480,50.197 179.735 C 49.985 179.989,49.269 180.465,48.604 180.792 C 47.939 181.118,46.867 181.666,46.222 182.009 C 41.971 184.266,37.795 185.627,33.456 186.168 C 29.642 186.644,24.419 184.790,21.511 181.927 C 19.448 179.897,18.680 178.186,17.632 173.294 C 17.407 172.245,17.394 165.344,17.616 165.119 C 17.702 165.033,18.296 165.084,18.937 165.233 C 30.961 168.021,50.378 158.998,58.054 147.056 C 61.859 141.138,65.101 133.260,66.460 126.632 C 67.380 122.144,70.541 111.991,72.672 106.676 L 74.319 102.568 75.971 101.527 C 76.880 100.954,78.015 100.294,78.494 100.060 C 87.140 95.829,81.101 81.896,72.068 85.234 M325.298 85.184 C 318.540 87.923,318.006 97.152,324.430 100.200 C 325.065 100.501,326.103 101.124,326.739 101.584 C 327.374 102.044,328.052 102.421,328.245 102.421 C 328.438 102.421,328.806 102.652,329.063 102.935 C 329.320 103.217,330.034 103.706,330.649 104.021 C 331.265 104.336,332.011 104.798,332.309 105.048 C 332.606 105.298,333.412 105.833,334.099 106.236 C 336.859 107.856,339.571 109.852,339.434 110.162 C 339.354 110.343,338.819 111.559,338.244 112.864 C 331.381 128.445,340.051 152.090,355.393 159.634 C 356.603 160.230,358.254 161.126,359.061 161.627 C 359.868 162.128,361.062 162.870,361.715 163.277 C 369.103 167.884,371.539 173.528,370.555 183.763 L 370.311 186.309 369.235 186.171 C 364.758 185.599,360.696 184.280,356.420 182.009 C 355.774 181.666,354.702 181.118,354.037 180.792 C 353.373 180.465,352.656 179.989,352.445 179.735 C 352.233 179.480,351.655 179.063,351.159 178.808 C 350.663 178.552,349.738 177.901,349.103 177.360 C 348.469 176.818,347.856 176.376,347.741 176.376 C 347.625 176.376,347.088 175.959,346.546 175.450 C 344.343 173.379,340.760 172.746,338.041 173.949 C 331.986 176.627,331.261 184.485,336.720 188.267 C 338.350 189.397,340.318 190.872,341.803 192.078 C 342.318 192.496,343.375 193.175,344.151 193.586 C 344.927 193.997,345.743 194.486,345.964 194.672 C 346.604 195.210,348.966 196.435,353.191 198.421 C 354.874 199.211,358.192 200.373,361.108 201.193 C 366.733 202.774,374.659 202.709,379.925 201.037 C 382.892 200.096,387.196 197.931,388.990 196.478 C 391.522 194.428,395.581 190.329,395.922 189.476 C 396.125 188.969,396.660 188.125,397.111 187.600 C 397.561 187.074,398.137 185.932,398.390 185.062 C 398.643 184.191,399.109 182.944,399.425 182.289 C 399.968 181.166,399.999 180.427,399.990 169.126 C 399.979 156.510,399.885 155.417,398.575 152.547 C 398.229 151.789,397.946 150.990,397.946 150.771 C 397.946 150.116,394.420 142.866,393.103 140.814 C 392.619 140.058,391.695 138.565,391.049 137.494 C 390.404 136.424,389.380 134.954,388.775 134.227 C 388.169 133.501,387.674 132.807,387.674 132.687 C 387.674 132.566,387.084 131.748,386.363 130.870 C 385.641 129.992,384.486 128.562,383.795 127.691 C 379.394 122.148,369.544 112.581,362.218 106.737 C 361.450 106.124,360.103 105.035,359.225 104.316 C 358.347 103.596,357.526 103.008,357.401 103.008 C 357.275 103.008,356.512 102.447,355.704 101.761 C 353.658 100.025,351.880 98.647,350.844 97.994 C 349.620 97.224,347.174 95.494,346.295 94.776 C 345.891 94.447,345.099 93.912,344.534 93.588 C 343.969 93.264,342.715 92.481,341.746 91.847 C 337.697 89.197,335.833 88.074,331.579 85.720 C 330.071 84.886,326.736 84.602,325.298 85.184 M135.877 138.012 C 118.419 143.986,111.684 182.211,124.546 202.317 C 125.147 203.257,125.598 204.065,125.549 204.112 C 125.499 204.159,124.098 204.904,122.434 205.767 C 116.412 208.893,115.894 209.178,115.375 209.648 C 115.085 209.910,114.703 210.125,114.526 210.125 C 114.349 210.125,113.599 210.587,112.859 211.152 C 112.119 211.717,111.393 212.179,111.245 212.179 C 111.098 212.179,110.371 212.641,109.631 213.206 C 108.891 213.771,108.165 214.233,108.017 214.233 C 107.869 214.233,107.177 214.666,106.479 215.195 C 105.780 215.724,104.684 216.463,104.042 216.839 C 102.857 217.531,101.924 218.236,99.696 220.123 C 99.016 220.700,97.964 221.470,97.359 221.835 C 96.753 222.200,96.093 222.721,95.891 222.993 C 95.690 223.265,95.128 223.740,94.644 224.048 C 92.069 225.685,81.914 235.298,77.036 240.716 C 76.229 241.613,75.031 242.936,74.374 243.657 C 69.233 249.297,72.560 257.533,79.971 257.514 C 83.395 257.506,84.086 257.108,87.748 253.031 C 93.887 246.198,104.551 236.259,108.955 233.267 C 110.772 232.032,112.118 231.087,113.280 230.232 C 115.133 228.866,117.233 227.440,117.682 227.242 C 117.924 227.136,118.650 226.692,119.296 226.256 C 119.941 225.820,121.118 225.082,121.909 224.617 C 122.701 224.152,123.956 223.409,124.697 222.967 C 125.439 222.524,126.706 221.834,127.513 221.433 C 128.320 221.032,129.178 220.579,129.420 220.427 C 129.663 220.274,130.389 219.898,131.034 219.590 C 131.680 219.282,133.133 218.546,134.263 217.954 C 135.393 217.362,136.449 216.874,136.610 216.870 C 136.772 216.865,137.498 216.580,138.225 216.236 C 138.951 215.892,140.139 215.383,140.866 215.105 C 141.592 214.826,142.913 214.304,143.800 213.943 C 147.662 212.373,151.646 210.980,155.099 209.992 C 162.280 207.936,163.473 207.616,165.957 207.076 C 168.817 206.456,171.893 205.903,176.816 205.127 C 177.946 204.949,179.530 204.682,180.337 204.533 C 183.729 203.908,193.679 203.344,201.321 203.344 C 208.962 203.344,218.913 203.908,222.304 204.533 C 223.111 204.682,224.696 204.949,225.825 205.127 C 230.748 205.903,233.824 206.456,236.684 207.076 C 239.168 207.616,240.361 207.936,247.542 209.992 C 250.996 210.980,254.979 212.373,258.841 213.943 C 259.729 214.304,261.049 214.826,261.775 215.105 C 262.502 215.383,263.690 215.892,264.417 216.236 C 265.143 216.580,265.869 216.865,266.031 216.870 C 266.192 216.874,267.249 217.362,268.379 217.954 C 269.508 218.546,270.961 219.282,271.607 219.590 C 272.252 219.898,272.979 220.274,273.221 220.427 C 273.463 220.579,274.321 221.032,275.128 221.433 C 275.935 221.834,277.202 222.524,277.944 222.967 C 278.685 223.409,279.940 224.152,280.732 224.617 C 281.524 225.082,282.700 225.820,283.346 226.256 C 283.991 226.692,284.718 227.136,284.960 227.242 C 285.408 227.440,287.508 228.866,289.362 230.232 C 290.523 231.087,291.869 232.032,293.687 233.267 C 298.090 236.259,308.755 246.198,314.894 253.031 C 318.555 257.108,319.246 257.506,322.671 257.514 C 330.081 257.533,333.408 249.297,328.268 243.657 C 327.610 242.936,326.412 241.613,325.605 240.716 C 320.727 235.298,310.573 225.685,307.997 224.048 C 307.513 223.740,306.952 223.265,306.750 222.993 C 306.548 222.721,305.888 222.200,305.283 221.835 C 304.677 221.470,303.625 220.700,302.945 220.123 C 300.717 218.236,299.784 217.531,298.600 216.839 C 297.958 216.463,296.861 215.724,296.162 215.195 C 295.464 214.666,294.772 214.233,294.624 214.233 C 294.477 214.233,293.750 213.771,293.010 213.206 C 292.270 212.641,291.544 212.179,291.396 212.179 C 291.248 212.179,290.522 211.717,289.782 211.152 C 289.042 210.587,288.292 210.125,288.115 210.125 C 287.938 210.125,287.557 209.910,287.267 209.648 C 286.691 209.127,284.961 208.191,279.457 205.421 L 275.862 203.612 276.618 202.393 C 290.968 179.232,280.843 137.344,260.895 137.344 C 252.196 137.344,242.601 147.717,240.536 159.354 C 240.464 159.758,240.134 161.409,239.803 163.023 C 238.094 171.349,238.239 182.402,240.155 189.785 L 240.551 191.309 239.645 191.152 C 237.376 190.758,234.367 190.132,234.175 190.013 C 233.287 189.464,218.087 187.642,212.032 187.359 C 205.790 187.066,191.023 187.215,186.207 187.619 C 181.361 188.025,168.972 189.700,168.457 190.019 C 168.335 190.094,167.129 190.366,165.776 190.623 C 164.423 190.880,162.724 191.204,161.999 191.342 C 160.392 191.650,160.495 191.802,160.995 189.875 C 162.397 184.474,163.027 174.017,162.315 167.977 C 159.871 147.257,148.041 133.849,135.877 138.012 M150.725 249.466 C 149.934 249.599,149.208 249.828,149.111 249.976 C 149.015 250.124,148.441 250.407,147.836 250.604 C 147.230 250.801,146.735 251.084,146.735 251.233 C 146.735 251.382,146.551 251.504,146.326 251.504 C 146.101 251.504,145.605 251.832,145.225 252.233 C 144.845 252.633,144.369 252.964,144.167 252.966 C 143.966 252.969,143.800 253.105,143.800 253.268 C 143.800 253.430,143.401 253.982,142.913 254.493 C 142.425 255.003,141.948 255.728,141.854 256.104 C 141.760 256.479,141.591 256.787,141.480 256.787 C 141.234 256.787,140.572 258.550,140.572 259.204 C 140.572 259.462,140.414 259.725,140.221 259.789 C 139.752 259.946,139.697 266.400,140.163 266.702 C 140.341 266.817,140.651 267.605,140.852 268.452 C 141.053 269.299,141.328 269.993,141.462 269.993 C 141.597 269.993,141.794 270.269,141.901 270.606 C 142.162 271.429,145.859 275.144,146.674 275.403 C 147.031 275.516,147.322 275.718,147.322 275.853 C 147.322 275.987,148.015 276.261,148.863 276.462 C 149.710 276.663,150.491 276.962,150.597 277.126 C 150.862 277.535,156.981 277.548,157.244 277.141 C 157.921 276.095,160.436 276.089,161.799 277.129 C 167.431 281.428,175.877 278.908,178.181 272.242 C 180.226 266.323,175.540 259.555,168.972 258.941 L 167.086 258.765 166.739 257.467 C 166.342 255.984,166.258 255.865,164.004 253.607 C 161.738 251.336,161.352 251.041,160.126 250.636 C 159.540 250.443,159.061 250.186,159.061 250.065 C 159.061 249.433,153.365 249.024,150.725 249.466 M240.939 249.517 C 240.051 249.678,239.259 249.907,239.178 250.027 C 239.098 250.147,238.536 250.407,237.931 250.604 C 237.326 250.801,236.831 251.084,236.831 251.233 C 236.831 251.382,236.656 251.504,236.443 251.504 C 236.230 251.504,235.783 251.801,235.450 252.164 C 235.117 252.528,234.236 253.390,233.493 254.082 C 232.749 254.774,232.059 255.665,231.960 256.063 C 231.860 256.461,231.673 256.787,231.546 256.787 C 231.418 256.787,231.155 257.447,230.961 258.254 C 230.768 259.061,230.490 259.721,230.345 259.721 C 230.200 259.721,230.081 260.025,230.081 260.397 C 230.081 260.781,229.648 261.493,229.079 262.045 C 226.624 264.424,225.645 269.325,226.950 272.707 C 227.568 274.309,227.657 274.338,229.133 273.420 C 229.735 273.046,230.794 272.517,231.487 272.244 L 232.746 271.749 234.479 273.487 C 235.432 274.443,236.483 275.312,236.815 275.417 C 237.146 275.522,237.417 275.718,237.417 275.853 C 237.417 275.987,238.111 276.261,238.958 276.462 C 239.806 276.663,240.587 276.964,240.696 277.131 C 240.969 277.554,247.381 277.535,247.643 277.110 C 247.753 276.932,248.469 276.628,249.234 276.436 C 249.998 276.243,250.624 276.002,250.624 275.899 C 250.624 275.796,251.036 275.529,251.540 275.306 C 252.637 274.821,253.425 274.029,256.205 270.615 C 256.518 270.231,256.858 269.472,256.960 268.928 C 257.062 268.384,257.251 267.938,257.379 267.938 C 258.324 267.938,258.321 258.639,257.376 258.308 C 257.231 258.257,256.955 257.737,256.761 257.151 C 256.392 256.032,256.254 255.823,254.952 254.413 C 254.508 253.932,254.145 253.411,254.145 253.255 C 254.145 253.099,253.995 252.971,253.812 252.971 C 253.629 252.971,253.179 252.674,252.813 252.311 C 251.746 251.255,251.388 251.021,250.259 250.649 C 249.673 250.455,249.153 250.180,249.102 250.037 C 248.849 249.324,243.793 249.002,240.939 249.517 M78.490 268.897 C 72.693 271.245,71.270 277.842,75.548 282.535 C 76.205 283.256,77.403 284.580,78.210 285.476 C 83.088 290.894,93.243 300.507,95.818 302.145 C 96.302 302.453,96.863 302.927,97.065 303.199 C 97.267 303.471,97.927 303.992,98.532 304.357 C 99.138 304.722,100.190 305.492,100.870 306.069 C 103.098 307.956,104.031 308.662,105.215 309.354 C 105.858 309.729,106.954 310.469,107.653 310.997 C 108.351 311.526,109.043 311.959,109.191 311.959 C 109.339 311.959,110.065 312.421,110.805 312.986 C 111.545 313.551,112.271 314.013,112.419 314.013 C 112.567 314.013,113.293 314.475,114.033 315.040 C 114.773 315.605,115.523 316.067,115.700 316.067 C 115.877 316.067,116.259 316.282,116.549 316.545 C 117.162 317.100,118.941 318.048,125.605 321.369 C 131.997 324.555,133.291 325.165,133.660 325.166 C 133.830 325.167,134.619 325.497,135.413 325.900 C 136.207 326.303,137.069 326.632,137.329 326.632 C 137.588 326.632,138.089 326.834,138.441 327.081 C 138.793 327.328,140.440 327.980,142.101 328.530 C 143.762 329.081,145.781 329.789,146.588 330.104 C 148.188 330.729,152.158 331.916,158.034 333.525 C 158.841 333.747,160.227 334.127,161.115 334.371 C 162.003 334.614,163.258 334.899,163.903 335.003 C 165.975 335.338,169.422 336.044,169.640 336.179 C 170.147 336.492,182.590 338.171,187.381 338.573 C 193.944 339.123,211.045 339.123,217.608 338.573 C 222.399 338.171,234.842 336.492,235.349 336.179 C 235.567 336.044,239.014 335.338,241.086 335.003 C 241.731 334.899,242.986 334.614,243.874 334.371 C 244.762 334.127,246.148 333.747,246.955 333.525 C 252.831 331.916,256.801 330.729,258.401 330.104 C 259.208 329.789,261.227 329.081,262.888 328.530 C 264.549 327.980,266.196 327.328,266.548 327.081 C 266.900 326.834,267.401 326.632,267.660 326.632 C 267.920 326.632,268.782 326.303,269.576 325.900 C 270.370 325.497,271.159 325.167,271.329 325.166 C 272.106 325.163,287.472 317.421,288.440 316.545 C 288.730 316.282,289.112 316.067,289.289 316.067 C 289.466 316.067,290.216 315.605,290.956 315.040 C 291.696 314.475,292.422 314.013,292.570 314.013 C 292.718 314.013,293.444 313.551,294.184 312.986 C 294.924 312.421,295.650 311.959,295.798 311.959 C 295.946 311.959,296.638 311.526,297.336 310.997 C 298.035 310.469,299.131 309.729,299.774 309.354 C 300.958 308.662,301.891 307.956,304.119 306.069 C 304.799 305.492,305.851 304.722,306.457 304.357 C 307.062 303.992,307.722 303.471,307.924 303.199 C 308.126 302.927,308.687 302.453,309.171 302.145 C 311.746 300.507,321.901 290.894,326.779 285.476 C 327.586 284.580,328.784 283.256,329.441 282.535 C 334.582 276.896,331.255 268.659,323.844 268.678 C 320.420 268.687,319.729 269.085,316.067 273.161 C 309.928 279.994,299.264 289.933,294.860 292.926 C 293.043 294.161,291.697 295.105,290.536 295.961 C 288.682 297.327,286.582 298.752,286.134 298.950 C 285.891 299.056,285.165 299.500,284.519 299.936 C 283.874 300.372,282.698 301.110,281.906 301.575 C 281.114 302.040,279.859 302.783,279.118 303.225 C 278.376 303.668,277.109 304.358,276.302 304.759 C 275.495 305.160,274.637 305.613,274.395 305.766 C 274.153 305.918,273.426 306.294,272.781 306.602 C 272.135 306.910,270.682 307.646,269.552 308.238 C 268.423 308.830,267.366 309.318,267.205 309.323 C 267.043 309.327,266.317 309.612,265.591 309.956 C 264.864 310.300,263.676 310.809,262.949 311.088 C 262.223 311.366,260.902 311.889,260.015 312.249 C 256.153 313.819,252.169 315.212,248.716 316.201 C 241.535 318.256,240.342 318.576,237.858 319.116 C 234.998 319.737,231.922 320.289,226.999 321.065 C 225.869 321.243,224.285 321.510,223.478 321.659 C 220.086 322.284,210.136 322.848,202.494 322.848 C 194.853 322.848,184.903 322.284,181.511 321.659 C 180.704 321.510,179.120 321.243,177.990 321.065 C 173.067 320.289,169.991 319.737,167.131 319.116 C 164.647 318.576,163.454 318.256,156.273 316.201 C 152.820 315.212,148.836 313.819,144.974 312.249 C 144.087 311.889,142.766 311.366,142.040 311.088 C 141.313 310.809,140.125 310.300,139.398 309.956 C 138.672 309.612,137.946 309.327,137.784 309.323 C 137.623 309.318,136.566 308.830,135.437 308.238 C 134.307 307.646,132.854 306.910,132.208 306.602 C 131.563 306.294,130.836 305.918,130.594 305.766 C 130.352 305.613,129.494 305.160,128.687 304.759 C 127.880 304.358,126.613 303.668,125.871 303.225 C 125.130 302.783,123.875 302.040,123.083 301.575 C 122.291 301.110,121.115 300.372,120.470 299.936 C 119.824 299.500,119.098 299.056,118.855 298.950 C 118.407 298.752,116.307 297.327,114.453 295.961 C 113.292 295.105,111.946 294.161,110.129 292.926 C 105.725 289.933,95.061 279.994,88.921 273.161 C 86.430 270.388,85.800 269.817,84.602 269.248 C 83.232 268.598,79.725 268.396,78.490 268.897 " stroke="none" fill="#cb8272" fill-rule="evenodd"></path></g></svg>